RobotoAvar2-opsz8-wdth100-wght400.ufo
<glyph name="numbersign" format="2">
  <advance width="1588"/>
  <unicode hex="0023"/>
  <outline>
    <contour>
      <point x="216.0" y="-20.000000000000004" type="line"/>
      <point x="653.0" y="1501.0" type="line"/>
      <point x="810.9303482587065" y="1501.0" type="line"/>
      <point x="373.9303482587065" y="-20.000000000000004" type="line"/>
    </contour>
    <contour>
      <point x="751.7542919206784" y="-20.000000000000004" type="line"/>
      <point x="1188.7542919206785" y="1501.0" type="line"/>
      <point x="1346.684640179385" y="1501.0" type="line"/>
      <point x="909.6846401793848" y="-20.000000000000004" type="line"/>
    </contour>
    <contour>
      <point x="64.0" y="397.4579439252336" type="line"/>
      <point x="64.0" y="545.2710280373832" type="line"/>
      <point x="1448.6846401793848" y="545.2710280373832" type="line"/>
      <point x="1448.6846401793848" y="397.4579439252336" type="line"/>
    </contour>
    <contour>
      <point x="115.00000000000001" y="932.4579439252338" type="line"/>
      <point x="115.00000000000001" y="1080.2710280373833" type="line"/>
      <point x="1498.6846401793846" y="1080.2710280373833" type="line"/>
      <point x="1498.6846401793846" y="932.4579439252338" type="line"/>
    </contour>
  </outline>
</glyph>
<glyph name="dollar" format="2">
  <advance width="1086"/>
  <unicode hex="0024"/>
  <outline>
    <contour>
      <point x="21.0" y="383.05472636815927" type="qcurve" smooth="yes"/>
      <point x="21.0" y="393.8457711442787" type="line"/>
      <point x="211.08411214953273" y="393.8457711442787" type="line"/>
      <point x="211.08411214953273" y="383.05472636815927" type="line" smooth="yes"/>
      <point x="211.08411214953273" y="266.92039800995025"/>
      <point x="385.5489008819271" y="152.089552238806"/>
      <point x="542.1263656706595" y="152.089552238806" type="qcurve" smooth="yes"/>
      <point x="697.0683809463935" y="152.089552238806"/>
      <point x="864.7249572199553" y="270.04047519412285"/>
      <point x="864.7249572199553" y="366.79125401032223" type="qcurve" smooth="yes"/>
      <point x="864.7249572199553" y="456.89132624360104"/>
      <point x="713.7506815664996" y="601.9628800842438"/>
      <point x="481.5348163748849" y="662.466960642359" type="qcurve" smooth="yes"/>
      <point x="242.05679873634332" y="723.8852836646043"/>
      <point x="49.00000000000001" y="940.0001974463605"/>
      <point x="49.00000000000001" y="1093.9487955772015" type="qcurve" smooth="yes"/>
      <point x="49.00000000000001" y="1252.0304725549558"/>
      <point x="304.44800579175995" y="1458.0"/>
      <point x="530.6474924312229" y="1458.0" type="qcurve" smooth="yes"/>
      <point x="758.0275766750034" y="1458.0"/>
      <point x="1024.8865341582205" y="1232.7711442786072"/>
      <point x="1024.8865341582205" y="1074.3980099502487" type="qcurve" smooth="yes"/>
      <point x="1024.8865341582205" y="1063.4676616915424" type="line"/>
      <point x="834.8024220086877" y="1063.4676616915424" type="line"/>
      <point x="834.8024220086877" y="1074.3980099502487" type="line" smooth="yes"/>
      <point x="834.8024220086877" y="1176.437810945274"/>
      <point x="682.0770698960116" y="1300.4079601990052"/>
      <point x="530.6474924312229" y="1300.4079601990052" type="qcurve" smooth="yes"/>
      <point x="380.2251166832679" y="1300.4079601990052"/>
      <point x="237.08411214953273" y="1195.1151253080393"/>
      <point x="237.08411214953273" y="1098.3453061793837" type="qcurve" smooth="yes"/>
      <point x="237.08411214953273" y="1016.9772049322953"/>
      <point x="382.0249440568646" y="876.8814663683033"/>
      <point x="611.1615769382652" y="816.4089772278531" type="qcurve" smooth="yes"/>
      <point x="848.7358167697777" y="754.6951428195341"/>
      <point x="1052.8090693694883" y="533.4904567592471"/>
      <point x="1052.8090693694883" y="370.60727918915364" type="qcurve" smooth="yes"/>
      <point x="1052.8090693694883" y="204.9208898249309"/>
      <point x="777.9003554034488" y="-6.000000000000001"/>
      <point x="542.1263656706595" y="-6.000000000000001" type="qcurve" smooth="yes"/>
      <point x="304.962944589937" y="-6.000000000000001"/>
      <point x="21.0" y="202.80099502487565"/>
    </contour>
    <contour>
      <point x="462.578254574174" y="-170.0" type="line"/>
      <point x="462.578254574174" y="758.0" type="line"/>
      <point x="607.0829274713703" y="758.0" type="line"/>
      <point x="607.0829274713703" y="168.73239436619718" type="line"/>
      <point x="621.0829274713703" y="158.73239436619718" type="line"/>
      <point x="621.0829274713703" y="-170.0" type="line"/>
    </contour>
    <contour>
      <point x="476.578254574174" y="758.0" type="line"/>
      <point x="476.578254574174" y="1385.9999999999998" type="line"/>
      <point x="462.578254574174" y="1396.0000000000002" type="line"/>
      <point x="462.578254574174" y="1586.0" type="line"/>
      <point x="621.0829274713703" y="1586.0" type="line"/>
      <point x="621.0829274713703" y="758.0" type="line"/>
    </contour>
  </outline>
</glyph>
<glyph name="ampersand" format="2">
  <advance width="1357"/>
  <unicode hex="0026"/>
  <outline>
    <contour>
      <point x="80.00000000000001" y="379.3130841121495" type="qcurve" smooth="yes"/>
      <point x="80.00000000000001" y="539.3130841121496"/>
      <point x="326.05353317655505" y="766.716502062545"/>
      <point x="484.25845466625026" y="859.1302173481677" type="qcurve" smooth="yes"/>
      <point x="653.2441068973941" y="957.5219217850461" type="line" smooth="yes"/>
      <point x="741.4051029569802" y="1008.2393108827326"/>
      <point x="805.5872054758458" y="1109.7921839401124"/>
      <point x="805.5872054758458" y="1168.3631840796022" type="qcurve" smooth="yes"/>
      <point x="805.5872054758458" y="1236.5174129353236"/>
      <point x="707.5492964295281" y="1327.7313432835822"/>
      <point x="612.2491773068317" y="1327.7313432835822" type="qcurve" smooth="yes"/>
      <point x="517.1928392786626" y="1327.7313432835822"/>
      <point x="413.4252336448598" y="1226.6915422885572"/>
      <point x="413.4252336448598" y="1158.363184079602" type="qcurve" smooth="yes"/>
      <point x="413.4252336448598" y="1089.4776119402986"/>
      <point x="498.3243562364563" y="960.6497314664011"/>
      <point x="604.6604580755562" y="839.018691588785" type="qcurve" smooth="yes"/>
      <point x="1332.5512702382518" y="0.0" type="line"/>
      <point x="1088.1765170462024" y="0.0" type="line"/>
      <point x="444.9039094379361" y="741.9764380676584" type="line" smooth="yes"/>
      <point x="335.73700144794003" y="868.9076609187838"/>
      <point x="218.34112149532712" y="1057.4813084112152"/>
      <point x="218.34112149532712" y="1159.1495327102805" type="qcurve" smooth="yes"/>
      <point x="218.34112149532712" y="1300.0"/>
      <point x="441.6431486112939" y="1486.0"/>
      <point x="612.5449519547191" y="1486.0" type="qcurve" smooth="yes"/>
      <point x="783.4815811687907" y="1486.0"/>
      <point x="990.1963274976965" y="1310.6245873436558"/>
      <point x="990.1963274976965" y="1177.5852978100154" type="qcurve" smooth="yes"/>
      <point x="990.1963274976965" y="1053.9751243781097"/>
      <point x="851.986883733236" y="886.3811454770378"/>
      <point x="750.7425990358855" y="827.583126227491" type="qcurve" smooth="yes"/>
      <point x="581.9048341286853" y="729.2241320709863" type="line" smooth="yes"/>
      <point x="434.0546395965415" y="642.7342967929865"/>
      <point x="277.7383177570094" y="486.20398009950253"/>
      <point x="277.7383177570094" y="379.6865671641791" type="qcurve" smooth="yes"/>
      <point x="277.7383177570094" y="273.2039800995025"/>
      <point x="438.11922616743846" y="139.90547263681592"/>
      <point x="583.7606950111887" y="139.90547263681592" type="qcurve" smooth="yes"/>
      <point x="774.9385021712551" y="139.90547263681592"/>
      <point x="1054.988427940592" y="422.3227553819687"/>
      <point x="1056.6566522396572" y="674.0" type="qcurve"/>
      <point x="1235.0383704093722" y="674.0" type="line"/>
      <point x="1233.4355666710546" y="379.7383177570093"/>
      <point x="859.7730683164408" y="-20.000000000000004"/>
      <point x="585.3874555745689" y="-20.000000000000004" type="qcurve" smooth="yes"/>
      <point x="345.5447545083586" y="-20.000000000000004"/>
      <point x="80.00000000000001" y="204.31308411214954"/>
    </contour>
  </outline>
</glyph>
<glyph name="asterisk" format="2">
  <advance width="1099"/>
  <unicode hex="002A"/>
  <outline>
    <contour>
      <point x="56.99004975124378" y="1044.3655665335298" type="line"/>
      <point x="118.11442786069651" y="1230.3904421554203" type="line"/>
      <point x="488.93977296615515" y="1070.6516011491838" type="line"/>
      <point x="451.2183799313293" y="1476.0000000000002" type="line"/>
      <point x="648.0790764487423" y="1476.0000000000002" type="line"/>
      <point x="610.3576834139164" y="1070.6516011491838" type="line"/>
      <point x="981.183028519375" y="1230.3904421554203" type="line"/>
      <point x="1042.3074066288277" y="1044.3655665335298" type="line"/>
      <point x="648.6213650059561" y="954.348118562119" type="line"/>
      <point x="916.2383505010162" y="650.1216452946535" type="line"/>
      <point x="756.7010370681803" y="534.4997547473898" type="line"/>
      <point x="549.6661411253592" y="884.3779693083877" type="line"/>
      <point x="342.631245182538" y="534.4997547473898" type="line"/>
      <point x="183.0939317497022" y="650.1216452946535" type="line"/>
      <point x="450.67609137411534" y="954.348118562119" type="line"/>
    </contour>
  </outline>
</glyph>
<glyph name="two" format="2">
  <advance width="1214"/>
  <unicode hex="0032"/>
  <outline>
    <contour>
      <point x="110.50631828353298" y="0.0" type="line"/>
      <point x="110.50631828353298" y="150.99439717301345" type="line"/>
      <point x="661.4718968013691" y="703.2869350758384" type="line" smooth="yes"/>
      <point x="771.7850840571396" y="812.4523702404132"/>
      <point x="883.7935369224695" y="976.2965778583717"/>
      <point x="883.7935369224695" y="1073.4240944808666" type="qcurve" smooth="yes"/>
      <point x="883.7935369224695" y="1170.8238712977172"/>
      <point x="741.7061353100235" y="1314.4527363184081"/>
      <point x="614.2194945373174" y="1314.4527363184081" type="qcurve" smooth="yes"/>
      <point x="484.4747052548237" y="1314.4527363184081"/>
      <point x="310.3194023956825" y="1160.6783837820246"/>
      <point x="310.3194023956825" y="1024.0112521504627" type="qcurve" smooth="yes"/>
      <point x="310.3194023956825" y="1014.1505556330497" type="line"/>
      <point x="109.85211267605634" y="1014.1505556330497" type="line"/>
      <point x="109.85211267605634" y="1024.0112521504627" type="line" smooth="yes"/>
      <point x="109.85211267605634" y="1228.2365741386525"/>
      <point x="396.29742691046545" y="1486.0"/>
      <point x="612.7134395155983" y="1486.0" type="qcurve" smooth="yes"/>
      <point x="827.3138752073514" y="1486.0"/>
      <point x="1087.025536395946" y="1249.0216208676247"/>
      <point x="1087.025536395946" y="1084.0976658762265" type="qcurve" smooth="yes"/>
      <point x="1087.025536395946" y="940.2196726647138"/>
      <point x="920.9041366813426" y="711.1816182350063"/>
      <point x="798.9469527445043" y="592.4964384343912" type="qcurve" smooth="yes"/>
      <point x="376.81367481403043" y="176.50374296740597" type="line"/>
      <point x="1128.3565223114388" y="176.50374296740597" type="line"/>
      <point x="1128.3565223114388" y="0.0" type="line"/>
    </contour>
  </outline>
</glyph>
<glyph name="four" format="2">
  <advance width="1214"/>
  <unicode hex="0034"/>
  <outline>
    <contour>
      <point x="760.3987100171121" y="0.0" type="line"/>
      <point x="760.3987100171121" y="397.6728971962617" type="line"/>
      <point x="760.3987100171121" y="449.6728971962617" type="line"/>
      <point x="760.3987100171121" y="1148.7329244916657" type="line"/>
      <point x="748.3987100171121" y="1148.7329244916657" type="line"/>
      <point x="290.94227428082706" y="508.044776119403" type="line"/>
      <point x="793.7499012768199" y="508.044776119403" type="line"/>
      <point x="870.7499012768199" y="508.044776119403" type="line"/>
      <point x="1157.4828221666446" y="508.044776119403" type="line"/>
      <point x="1157.4828221666446" y="338.5174129353235" type="line"/>
      <point x="54.17706452599449" y="338.5174129353235" type="line"/>
      <point x="54.17706452599449" y="476.04477611940297" type="line"/>
      <point x="763.6623916091519" y="1456.0" type="line"/>
      <point x="953.4828221666448" y="1456.0" type="line"/>
      <point x="953.4828221666448" y="0.0" type="line"/>
    </contour>
  </outline>
</glyph>
<glyph name="five" format="2">
  <advance width="1214"/>
  <unicode hex="0035"/>
  <outline>
    <contour>
      <point x="98.26635514018692" y="371.9303482587065" type="qcurve" smooth="yes"/>
      <point x="98.26635514018692" y="381.9303482587065" type="line"/>
      <point x="293.37218638936423" y="381.9303482587065" type="line"/>
      <point x="293.37218638936423" y="371.9303482587065" type="line" smooth="yes"/>
      <point x="293.37218638936423" y="265.02985074626866"/>
      <point x="459.38609571597067" y="140.5721393034826"/>
      <point x="598.2109676705325" y="140.5721393034826" type="qcurve" smooth="yes"/>
      <point x="736.0206817695124" y="140.5721393034826"/>
      <point x="912.63472423325" y="311.7910447761194"/>
      <point x="912.63472423325" y="466.497512437811" type="qcurve" smooth="yes"/>
      <point x="912.63472423325" y="621.2039800995026"/>
      <point x="738.6264380349144" y="783.5621890547264"/>
      <point x="601.9869708322938" y="783.5621890547264" type="qcurve" smooth="yes"/>
      <point x="507.3174757383283" y="783.5621890547264"/>
      <point x="363.0688655576927" y="720.7277398056448"/>
      <point x="300.0358952899056" y="662.9154228855723" type="qcurve"/>
      <point x="149.50934579439254" y="730.7311805458688" type="line"/>
      <point x="223.41121495327104" y="1456.0" type="line"/>
      <point x="1035.4213505331052" y="1456.0" type="line"/>
      <point x="1035.4213505331052" y="1275.3432835820895" type="line"/>
      <point x="389.40412423862" y="1275.3432835820895" type="line"/>
      <point x="347.0780031002026" y="878.542288557214" type="line"/>
      <point x="398.3806680694199" y="907.469033337983"/>
      <point x="543.7734609170811" y="952.0000000000001"/>
      <point x="624.8095958931157" y="952.0000000000001" type="qcurve" smooth="yes"/>
      <point x="835.7087008029486" y="952.0000000000001"/>
      <point x="1115.718836382783" y="695.0000000000001"/>
      <point x="1115.718836382783" y="465.00000000000006" type="qcurve" smooth="yes"/>
      <point x="1115.718836382783" y="235.0"/>
      <point x="822.3381597999211" y="-30.000000000000004"/>
      <point x="597.6010267210742" y="-30.000000000000004" type="qcurve" smooth="yes"/>
      <point x="359.26646777956995" y="-30.000000000000004"/>
      <point x="98.26635514018692" y="197.8905472636816"/>
    </contour>
  </outline>
</glyph>
<glyph name="seven" format="2">
  <advance width="1214"/>
  <unicode hex="0037"/>
  <outline>
    <contour>
      <point x="298.88074239831514" y="0.0" type="line"/>
      <point x="885.9767671449256" y="1283.747663551402" type="line"/>
      <point x="79.47887323943662" y="1283.747663551402" type="line"/>
      <point x="79.47887323943662" y="1456.0" type="line"/>
      <point x="1104.588916677636" y="1456.0" type="line"/>
      <point x="1104.588916677636" y="1340.2897196261683" type="line"/>
      <point x="510.6470975385021" y="0.0" type="line"/>
    </contour>
  </outline>
</glyph>
<glyph name="eight" format="2">
  <advance width="1214"/>
  <unicode hex="0038"/>
  <outline>
    <contour>
      <point x="103.40845070422534" y="386.0" type="qcurve" smooth="yes"/>
      <point x="103.40845070422534" y="516.0000000000001"/>
      <point x="255.18125575885216" y="700.9018691588785"/>
      <point x="374.1010925365276" y="745.9018691588785" type="qcurve"/>
      <point x="374.1010925365276" y="749.9018691588786" type="line"/>
      <point x="282.78820587073847" y="792.9018691588785"/>
      <point x="152.1303145978676" y="967.0000000000001"/>
      <point x="152.1303145978676" y="1087.0" type="qcurve" smooth="yes"/>
      <point x="152.1303145978676" y="1267.0"/>
      <point x="414.9584704488614" y="1486.0"/>
      <point x="607.92371988943" y="1486.0" type="qcurve" smooth="yes"/>
      <point x="801.0368566539423" y="1486.0"/>
      <point x="1061.6346584177966" y="1268.9345794392525"/>
      <point x="1061.6346584177966" y="1087.0" type="qcurve" smooth="yes"/>
      <point x="1061.6346584177966" y="967.0000000000001"/>
      <point x="931.9767671449258" y="792.9018691588785"/>
      <point x="840.7790575227064" y="749.9018691588786" type="qcurve"/>
      <point x="840.7790575227064" y="745.9018691588785" type="line"/>
      <point x="959.583717256812" y="700.9018691588785"/>
      <point x="1110.3565223114388" y="516.0000000000001"/>
      <point x="1110.3565223114388" y="386.0" type="qcurve" smooth="yes"/>
      <point x="1110.3565223114388" y="188.0"/>
      <point x="821.1875082269319" y="-30.000000000000004"/>
      <point x="607.92371988943" y="-30.000000000000004" type="qcurve" smooth="yes"/>
      <point x="394.80781887587204" y="-30.000000000000004"/>
      <point x="103.40845070422534" y="188.0"/>
    </contour>
    <contour>
      <point x="304.4925628537581" y="399.41293532338307" type="qcurve" smooth="yes"/>
      <point x="304.4925628537581" y="283.27860696517416"/>
      <point x="469.34527409025696" y="140.0497512437811"/>
      <point x="607.92371988943" y="140.0497512437811" type="qcurve" smooth="yes"/>
      <point x="746.4673398179565" y="140.0497512437811"/>
      <point x="909.272410161906" y="283.27860696517416"/>
      <point x="909.272410161906" y="399.41293532338307" type="qcurve" smooth="yes"/>
      <point x="909.272410161906" y="515.5472636815921"/>
      <point x="746.4673398179565" y="660.5671641791045"/>
      <point x="607.92371988943" y="660.5671641791045" type="qcurve" smooth="yes"/>
      <point x="469.34527409025696" y="660.5671641791045"/>
      <point x="304.4925628537581" y="515.5472636815921"/>
    </contour>
    <contour>
      <point x="348.85876003685667" y="1073.5174129353234" type="qcurve" smooth="yes"/>
      <point x="348.85876003685667" y="967.2437810945275"/>
      <point x="490.6676761643933" y="829.2935323383085"/>
      <point x="607.92371988943" y="829.2935323383085" type="qcurve" smooth="yes"/>
      <point x="725.14493774382" y="829.2935323383085"/>
      <point x="864.9062129788074" y="967.2437810945275"/>
      <point x="864.9062129788074" y="1073.5174129353234" type="qcurve" smooth="yes"/>
      <point x="864.9062129788074" y="1179.7910447761194"/>
      <point x="725.14493774382" y="1315.9850746268658"/>
      <point x="607.92371988943" y="1315.9850746268658" type="qcurve" smooth="yes"/>
      <point x="490.6676761643933" y="1315.9850746268658"/>
      <point x="348.85876003685667" y="1179.7910447761194"/>
    </contour>
  </outline>
</glyph>
<glyph name="colon" format="2">
  <advance width="611"/>
  <unicode hex="003A"/>
  <outline>
    <contour>
      <point x="176.0" y="102.29906542056077" type="qcurve" smooth="yes"/>
      <point x="176.0" y="153.45794392523368"/>
      <point x="242.84579439252337" y="226.56542056074767"/>
      <point x="305.49532710280374" y="226.56542056074767" type="qcurve" smooth="yes"/>
      <point x="368.177570093458" y="226.56542056074767"/>
      <point x="435.0233644859813" y="153.45794392523368"/>
      <point x="435.0233644859813" y="102.29906542056077" type="qcurve" smooth="yes"/>
      <point x="435.0233644859813" y="51.107476635514026"/>
      <point x="368.177570093458" y="-22.0"/>
      <point x="305.49532710280374" y="-22.0" type="qcurve" smooth="yes"/>
      <point x="242.84579439252337" y="-22.0"/>
      <point x="176.0" y="51.107476635514026"/>
    </contour>
    <contour>
      <point x="176.0" y="943.7009345794393" type="qcurve" smooth="yes"/>
      <point x="176.0" y="994.8925233644861"/>
      <point x="242.84579439252337" y="1068.0000000000002"/>
      <point x="305.49532710280374" y="1068.0000000000002" type="qcurve" smooth="yes"/>
      <point x="368.177570093458" y="1068.0000000000002"/>
      <point x="435.0233644859813" y="994.8925233644861"/>
      <point x="435.0233644859813" y="943.7009345794393" type="qcurve" smooth="yes"/>
      <point x="435.0233644859813" y="892.5420560747664"/>
      <point x="368.177570093458" y="819.4345794392525"/>
      <point x="305.49532710280374" y="819.4345794392525" type="qcurve" smooth="yes"/>
      <point x="242.84579439252337" y="819.4345794392525"/>
      <point x="176.0" y="892.5420560747664"/>
    </contour>
  </outline>
</glyph>
<glyph name="semicolon" format="2">
  <advance width="632"/>
  <unicode hex="003B"/>
  <outline>
    <contour>
      <point x="112.82587064676618" y="-216.38991661411256" type="line"/>
      <point x="171.9203629738631" y="-154.79143017307828"/>
      <point x="239.84961168882455" y="-22.514084507042256"/>
      <point x="239.8169014084507" y="70.0" type="qcurve" smooth="yes"/>
      <point x="239.8169014084507" y="226.21495327102804" type="line"/>
      <point x="432.93372383835725" y="226.21495327102804" type="line"/>
      <point x="432.93372383835725" y="70.0" type="line" smooth="yes"/>
      <point x="432.93372383835725" y="-45.42749298132217"/>
      <point x="317.479945278216" y="-233.08807155482296"/>
      <point x="225.8529885782356" y="-295.3880597014925" type="qcurve"/>
    </contour>
    <contour>
      <point x="197.12531262340397" y="943.7009345794393" type="qcurve" smooth="yes"/>
      <point x="197.12531262340397" y="994.8925233644861"/>
      <point x="263.9711070159273" y="1068.0000000000002"/>
      <point x="326.62063972620774" y="1068.0000000000002" type="qcurve" smooth="yes"/>
      <point x="389.302882716862" y="1068.0000000000002"/>
      <point x="456.14867710938535" y="994.8925233644861"/>
      <point x="456.14867710938535" y="943.7009345794393" type="qcurve" smooth="yes"/>
      <point x="456.14867710938535" y="892.5420560747664"/>
      <point x="389.302882716862" y="819.4345794392525"/>
      <point x="326.62063972620774" y="819.4345794392525" type="qcurve" smooth="yes"/>
      <point x="263.9711070159273" y="819.4345794392525"/>
      <point x="197.12531262340397" y="892.5420560747664"/>
    </contour>
  </outline>
</glyph>
<glyph name="less" format="2">
  <advance width="1066"/>
  <unicode hex="003C"/>
  <outline>
    <contour>
      <point x="960.375937870212" y="214.45794392523365" type="line"/>
      <point x="100.0" y="595.355140186916" type="line"/>
      <point x="100.0" y="748.7757009345795" type="line"/>
      <point x="960.375937870212" y="1129.5420560747664" type="line"/>
      <point x="960.375937870212" y="927.9208240094775" type="line"/>
      <point x="337.99907858365145" y="677.0" type="line"/>
      <point x="960.375937870212" y="424.7311438725813" type="line"/>
    </contour>
  </outline>
</glyph>
<glyph name="equal" format="2">
  <advance width="1062"/>
  <unicode hex="003D"/>
  <outline>
    <contour>
      <point x="57.00000000000001" y="377.50000000000006" type="line"/>
      <point x="57.00000000000001" y="553.2710280373833" type="line"/>
      <point x="1005.4507042253522" y="553.2710280373833" type="line"/>
      <point x="1005.4507042253522" y="377.50000000000006" type="line"/>
    </contour>
    <contour>
      <point x="57.00000000000001" y="772.728971962617" type="line"/>
      <point x="57.00000000000001" y="948.5000000000001" type="line"/>
      <point x="1005.4507042253522" y="948.5000000000001" type="line"/>
      <point x="1005.4507042253522" y="772.728971962617" type="line"/>
    </contour>
  </outline>
</glyph>
<glyph name="D" format="2">
  <advance width="1439"/>
  <unicode hex="0044"/>
  <anchor x="664.2144925628538" y="0.0" name="bottom"/>
  <anchor x="328.5420560747664" y="728.0" name="center"/>
  <anchor x="664.2144925628538" y="1456.0" name="top"/>
  <outline>
    <contour>
      <point x="170.0" y="0.0" type="line"/>
      <point x="170.0" y="1456.0" type="line"/>
      <point x="645.6903382914309" y="1456.0" type="line" smooth="yes"/>
      <point x="941.7704173616582" y="1456.0"/>
      <point x="1323.5183625115178" y="1085.247991318909"/>
      <point x="1323.5183625115178" y="766.1518362511517" type="qcurve" smooth="yes"/>
      <point x="1323.5183625115178" y="687.7464130577861" type="line" smooth="yes"/>
      <point x="1323.5183625115178" y="372.6745438923587"/>
      <point x="941.7704173616582" y="0.0"/>
      <point x="645.6903382914309" y="0.0" type="qcurve" smooth="yes"/>
    </contour>
    <contour>
      <point x="376.03271028037386" y="171.05970149253733" type="line"/>
      <point x="641.4693299986837" y="171.05970149253733" type="line" smooth="yes"/>
      <point x="857.0446575860988" y="171.05970149253733"/>
      <point x="1114.9622877451625" y="445.60997827762606"/>
      <point x="1114.9622877451625" y="688.7826053358324" type="qcurve" smooth="yes"/>
      <point x="1114.9622877451625" y="766.7424045364855" type="line" smooth="yes"/>
      <point x="1114.9622877451625" y="1010.1028309158435"/>
      <point x="857.0446575860988" y="1284.6616915422887"/>
      <point x="641.4693299986837" y="1284.6965174129355" type="qcurve" smooth="yes"/>
      <point x="376.03271028037386" y="1284.6965174129355" type="line"/>
    </contour>
  </outline>
</glyph>
<glyph name="G" format="2">
  <advance width="1480"/>
  <unicode hex="0047"/>
  <anchor x="747.2570093457944" y="0.0" name="bottom"/>
  <anchor x="745.9485981308411" y="1456.0" name="top"/>
  <outline>
    <contour>
      <point x="115.00000000000001" y="683.177570093458" type="qcurve" smooth="yes"/>
      <point x="115.00000000000001" y="772.9205607476636" type="line" smooth="yes"/>
      <point x="115.00000000000001" y="1108.5732784674758"/>
      <point x="481.29613221244045" y="1486.0"/>
      <point x="771.0531130709492" y="1486.0" type="qcurve" smooth="yes"/>
      <point x="1033.7148324456434" y="1486.0"/>
      <point x="1331.8553838023258" y="1221.3598130841124"/>
      <point x="1348.464591286034" y="1037.3548379597341" type="qcurve" smooth="yes"/>
      <point x="1349.497301566408" y="1025.995024875622" type="line"/>
      <point x="1143.5940502830067" y="1025.995024875622" type="line"/>
      <point x="1143.4959194418852" y="1036.7800716045938" type="line" smooth="yes"/>
      <point x="1143.1688166381468" y="1133.7681220067884"/>
      <point x="946.9022627418392" y="1308.6616915422887"/>
      <point x="768.7771488745557" y="1308.6616915422887" type="qcurve" smooth="yes"/>
      <point x="567.8868468634844" y="1308.6616915422887"/>
      <point x="323.6214953271028" y="1022.158971497652"/>
      <point x="323.6214953271028" y="771.9675686985634" type="qcurve" smooth="yes"/>
      <point x="323.6214953271028" y="684.6866369089134" type="line" smooth="yes"/>
      <point x="323.6214953271028" y="433.3998465615846"/>
      <point x="568.9589629187222" y="145.3532338308458"/>
      <point x="789.3186784256945" y="145.3532338308458" type="qcurve" smooth="yes"/>
      <point x="906.8533291159054" y="145.3532338308458"/>
      <point x="1075.0734608515932" y="190.27363184079604"/>
      <point x="1150.5440305383706" y="239.01990049751248" type="qcurve"/>
      <point x="1150.5440305383706" y="567.179104477612" type="line"/>
      <point x="744.6214953271028" y="567.179104477612" type="line"/>
      <point x="744.6214953271028" y="735.1741293532339" type="line"/>
      <point x="1350.5113202579967" y="735.1741293532339" type="line"/>
      <point x="1350.6094510991181" y="160.00000000000003" type="line"/>
      <point x="1278.2792549690669" y="90.00000000000001"/>
      <point x="991.5827300250099" y="-30.000000000000004"/>
      <point x="789.6259707779388" y="-30.000000000000004" type="qcurve" smooth="yes"/>
      <point x="481.9714937226465" y="-30.000000000000004"/>
      <point x="115.00000000000001" y="347.492142093272"/>
    </contour>
  </outline>
</glyph>
<glyph name="I" format="2">
  <advance width="556"/>
  <unicode hex="0049"/>
  <anchor x="277.67289719626166" y="0.0" name="bottom"/>
  <anchor x="319.2149532710281" y="0.0" name="ogonek"/>
  <anchor x="278.13084112149534" y="1456.0" name="top"/>
  <anchor x="-75.00000000000001" y="1074.0000000000002" name="tonos"/>
  <anchor x="277.67289719626166" y="750.0000000000001" name="yu_dash"/>
  <outline>
    <contour>
      <point x="175.0" y="0.0" type="line"/>
      <point x="175.0" y="1456.0" type="line"/>
      <point x="381.0327102803738" y="1456.0" type="line"/>
      <point x="381.0327102803738" y="0.0" type="line"/>
    </contour>
  </outline>
</glyph>
<glyph name="J" format="2">
  <advance width="1156"/>
  <unicode hex="004A"/>
  <anchor x="560.8598130841121" y="0.0" name="bottom"/>
  <anchor x="873.0700934579439" y="1456.0" name="top"/>
  <outline>
    <contour>
      <point x="25.098130841121495" y="410.0995024875622" type="qcurve" smooth="yes"/>
      <point x="25.098130841121495" y="420.0995024875623" type="line"/>
      <point x="228.74299065420564" y="420.0995024875623" type="line"/>
      <point x="228.74299065420564" y="410.0995024875622" type="line" smooth="yes"/>
      <point x="228.74299065420564" y="281.56218905472633"/>
      <point x="379.73748998851994" y="147.02487562189054"/>
      <point x="511.97538502040277" y="147.02487562189054" type="qcurve" smooth="yes"/>
      <point x="644.3611673762294" y="147.02487562189054"/>
      <point x="795.3556667105438" y="296.4925373134329"/>
      <point x="795.3556667105438" y="435.09950248756223" type="qcurve" smooth="yes"/>
      <point x="795.3556667105438" y="1456.0" type="line"/>
      <point x="1001.3883769909175" y="1456.0" type="line"/>
      <point x="1001.3883769909175" y="435.09950248756223" type="line" smooth="yes"/>
      <point x="1001.3883769909175" y="219.61605523782958"/>
      <point x="731.3545776448808" y="-30.000000000000004"/>
      <point x="511.240094774253" y="-30.000000000000004" type="qcurve" smooth="yes"/>
      <point x="292.97305168248533" y="-30.000000000000004"/>
      <point x="25.098130841121495" y="204.75112753987074"/>
    </contour>
  </outline>
</glyph>
<glyph name="L" format="2">
  <advance width="1171"/>
  <unicode hex="004C"/>
  <anchor x="637.8504672897196" y="0.0" name="bottom"/>
  <anchor x="870.4672897196263" y="728.0" name="center"/>
  <anchor x="387.59813084112153" y="1456.0" name="top"/>
  <anchor x="762.7383177570094" y="1052.0" name="topright"/>
  <outline>
    <contour>
      <point x="170.0" y="0.0" type="line"/>
      <point x="170.0" y="1456.0" type="line"/>
      <point x="376.6869158878505" y="1456.0" type="line"/>
      <point x="376.6869158878505" y="172.00000000000003" type="line"/>
      <point x="1117.1164933526393" y="172.00000000000003" type="line"/>
      <point x="1117.1164933526393" y="0.0" type="line"/>
    </contour>
  </outline>
</glyph>
<glyph name="M" format="2">
  <advance width="1884"/>
  <unicode hex="004D"/>
  <anchor x="927.7999488538615" y="0.0" name="bottom"/>
  <anchor x="934.3420049286278" y="1456.0" name="top"/>
  <outline>
    <contour>
      <point x="170.0" y="0.0" type="line"/>
      <point x="170.0" y="1456.0" type="line"/>
      <point x="442.43457943925233" y="1456.0" type="line"/>
      <point x="895.8998946952745" y="361.63577728050547" type="line" smooth="yes"/>
      <point x="908.3933131499277" y="331.52198236145847"/>
      <point x="928.7036330130317" y="265.0983941029354"/>
      <point x="936.5727918915361" y="234.64045017770172" type="qcurve"/>
      <point x="944.4746610504147" y="234.64045017770172" type="line"/>
      <point x="952.3765302092932" y="265.0983941029354"/>
      <point x="972.8020271159669" y="331.66986968540215"/>
      <point x="985.1802685270502" y="361.63577728050547" type="qcurve" smooth="yes"/>
      <point x="1441.4056864551799" y="1456.0" type="line"/>
      <point x="1714.2654995392918" y="1456.0" type="line"/>
      <point x="1714.2654995392918" y="0.0" type="line"/>
      <point x="1514.036527576675" y="0.0" type="line"/>
      <point x="1514.036527576675" y="1054.2661576938267" type="line" smooth="yes"/>
      <point x="1514.036527576675" y="1084.4951296564434"/>
      <point x="1516.1019481374226" y="1159.8876530209293"/>
      <point x="1520.0692378570488" y="1190.0839147031722" type="qcurve"/>
      <point x="1512.0692378570488" y="1190.0839147031722" type="line"/>
      <point x="1506.1346584177966" y="1159.8876530209293"/>
      <point x="1482.8400026326183" y="1084.23206528893"/>
      <point x="1470.4290509411612" y="1054.2661576938267" type="qcurve" smooth="yes"/>
      <point x="1030.7970909569567" y="0.0" type="line"/>
      <point x="844.8765302092933" y="0.0" type="line"/>
      <point x="408.0373831775701" y="1054.2661576938267" type="line" smooth="yes"/>
      <point x="395.51125444254313" y="1084.4951296564434"/>
      <point x="372.3317757009346" y="1159.8876530209293"/>
      <point x="366.36448598130846" y="1190.0839147031722" type="qcurve"/>
      <point x="358.36448598130835" y="1190.0839147031722" type="line"/>
      <point x="362.3317757009346" y="1159.8876530209293"/>
      <point x="364.3644859813084" y="1084.4951296564434"/>
      <point x="364.3644859813084" y="1054.2661576938267" type="qcurve" smooth="yes"/>
      <point x="364.3644859813084" y="0.0" type="line"/>
    </contour>
  </outline>
</glyph>
<glyph name="N" format="2">
  <advance width="1529"/>
  <unicode hex="004E"/>
  <anchor x="748.1657599851212" y="0.0" name="bottom"/>
  <anchor x="748.1657599851212" y="1456.0" name="top"/>
  <anchor x="1217.2919282094203" y="0.0" name="engtail"/>
  <outline>
    <contour>
      <point x="170.0" y="0.0" type="line"/>
      <point x="170.0" y="1456.0" type="line"/>
      <point x="389.49532710280374" y="1456.0" type="line"/>
      <point x="1083.7883375016454" y="433.78445438989075" type="line" smooth="yes"/>
      <point x="1104.3144662366724" y="403.9977622745821"/>
      <point x="1138.0032907726734" y="344.20968803475057"/>
      <point x="1149.9378702119259" y="318.8171646702646" type="qcurve"/>
      <point x="1157.9378702119259" y="318.8171646702646" type="line"/>
      <point x="1156.9051599315521" y="349.04613663288137"/>
      <point x="1155.905159931552" y="423.06482822166646"/>
      <point x="1155.905159931552" y="453.3265104646572" type="qcurve" smooth="yes"/>
      <point x="1155.905159931552" y="1456.0" type="line"/>
      <point x="1358.690206660524" y="1456.0" type="line"/>
      <point x="1358.690206660524" y="0.0" type="line"/>
      <point x="1136.5780571278135" y="0.0" type="line"/>
      <point x="442.15420560747674" y="1022.3463867316048" type="line" smooth="yes"/>
      <point x="421.6607871528235" y="1052.1003685665396"/>
      <point x="388.93925233644865" y="1112.1828353297356"/>
      <point x="375.13551401869165" y="1137.5426484138477" type="qcurve"/>
      <point x="368.1028037383178" y="1137.5426484138477" type="line"/>
      <point x="369.1355140186916" y="1107.3136764512308"/>
      <point x="370.1682242990654" y="1032.7389100960906"/>
      <point x="370.1682242990654" y="1002.5099381334737" type="qcurve" smooth="yes"/>
      <point x="370.1682242990654" y="0.0" type="line"/>
    </contour>
  </outline>
</glyph>
<glyph name="O" format="2">
  <advance width="1537"/>
  <unicode hex="004F"/>
  <anchor x="768.6944188495459" y="0.0" name="bottom"/>
  <anchor x="768.6944188495459" y="728.0" name="center"/>
  <anchor x="978.5829932868238" y="0.0" name="ogonek"/>
  <anchor x="768.6944188495459" y="1456.0" name="top"/>
  <anchor x="973.4351059628802" y="1456.0" name="topright"/>
  <anchor x="24.05140186915888" y="1074.0000000000002" name="tonos"/>
  <anchor x="323.52336448598135" y="749.4084507042255" name="yu_dash"/>
  <outline>
    <contour>
      <point x="115.00000000000001" y="688.6991575621958" type="qcurve" smooth="yes"/>
      <point x="115.00000000000001" y="767.170001316309" type="line" smooth="yes"/>
      <point x="115.00000000000001" y="1106.3880479136503"/>
      <point x="479.9670922732658" y="1486.0"/>
      <point x="768.5465315256022" y="1486.0" type="qcurve" smooth="yes"/>
      <point x="1057.1259707779386" y="1486.0"/>
      <point x="1422.0930630512044" y="1106.3880479136503"/>
      <point x="1422.0930630512044" y="767.170001316309" type="qcurve" smooth="yes"/>
      <point x="1422.0930630512044" y="688.6991575621958" type="line" smooth="yes"/>
      <point x="1422.0930630512044" y="349.51382124522837"/>
      <point x="1056.7661576938265" y="-30.000000000000004"/>
      <point x="768.5465315256022" y="-30.000000000000004" type="qcurve" smooth="yes"/>
      <point x="480.32690535737794" y="-30.000000000000004"/>
      <point x="115.00000000000001" y="349.51382124522837"/>
    </contour>
    <contour>
      <point x="323.6214953271028" y="687.3249246724126" type="line" smooth="yes"/>
      <point x="323.6214953271028" y="435.9844790133838"/>
      <point x="567.7834671580888" y="149.2537313432836"/>
      <point x="768.579241805976" y="149.2537313432836" type="qcurve" smooth="yes"/>
      <point x="969.3750164538633" y="149.2537313432836"/>
      <point x="1213.5369882848495" y="435.9844790133838"/>
      <point x="1213.5369882848495" y="687.3249246724126" type="qcurve" smooth="yes"/>
      <point x="1213.5369882848495" y="768.6750753275874" type="line" smooth="yes"/>
      <point x="1213.5369882848495" y="1020.0155209866163"/>
      <point x="969.3750164538633" y="1306.7462686567167"/>
      <point x="768.579241805976" y="1306.7462686567167" type="qcurve" smooth="yes"/>
      <point x="567.7834671580888" y="1306.7462686567167"/>
      <point x="323.6214953271028" y="1020.0155209866163"/>
      <point x="323.6214953271028" y="768.6750753275874" type="qcurve" smooth="yes"/>
    </contour>
  </outline>
</glyph>
<glyph name="R" format="2">
  <advance width="1309"/>
  <unicode hex="0052"/>
  <anchor x="619.0014106118088" y="0.0" name="bottom"/>
  <anchor x="619.0014106118088" y="1456.0" name="top"/>
  <outline>
    <contour>
      <point x="167.6462704248928" y="0.0" type="line"/>
      <point x="167.6462704248928" y="1456.0" type="line"/>
      <point x="696.0660413871148" y="1456.0" type="line" smooth="yes"/>
      <point x="934.0261009026214" y="1456.0"/>
      <point x="1190.6080974618812" y="1221.7550797414797"/>
      <point x="1190.6080974618812" y="1025.6318407960198" type="qcurve" smooth="yes"/>
      <point x="1190.6080974618812" y="829.2996466266798"/>
      <point x="933.3718952951447" y="589.2636815920398"/>
      <point x="696.393144190853" y="589.4726368159204" type="qcurve" smooth="yes"/>
      <point x="266.7444012660143" y="589.4726368159204" type="line"/>
      <point x="266.7444012660143" y="755.9203980099503" type="line"/>
      <point x="688.1828638170213" y="755.9203980099503" type="line" smooth="yes"/>
      <point x="854.3221672996084" y="755.9203980099503"/>
      <point x="984.3137049385167" y="912.8706467661692"/>
      <point x="984.3137049385167" y="1025.6318407960198" type="qcurve" smooth="yes"/>
      <point x="984.3137049385167" y="1138.3930348258707"/>
      <point x="854.3221672996084" y="1289.55223880597"/>
      <point x="688.1828638170213" y="1289.55223880597" type="qcurve" smooth="yes"/>
      <point x="373.58084986414514" y="1289.55223880597" type="line"/>
      <point x="373.58084986414514" y="0.0" type="line"/>
    </contour>
    <contour>
      <point x="1040.3464152188903" y="0.0" type="line"/>
      <point x="669.5576828245244" y="672.0" type="line"/>
      <point x="875.4290794284469" y="701.0" type="line"/>
      <point x="1268.7389385833767" y="0.0" type="line"/>
    </contour>
  </outline>
</glyph>
<glyph name="V" format="2">
  <advance width="1339"/>
  <unicode hex="0056"/>
  <anchor x="672.6279452415428" y="0.0" name="bottom"/>
  <anchor x="679.4971041200474" y="1456.0" name="top"/>
  <outline>
    <contour>
      <point x="0.0" y="1456.0" type="line"/>
      <point x="220.02803738317758" y="1456.0" type="line"/>
      <point x="631.0693694879559" y="371.87949190469925" type="line" smooth="yes"/>
      <point x="643.480321179413" y="339.53507963669864"/>
      <point x="659.5130314597868" y="288.2052125839147"/>
      <point x="667.9385283664604" y="258.40285639068054" type="qcurve"/>
      <point x="676.9058180860866" y="258.40285639068054" type="line"/>
      <point x="685.035540344873" y="288.2052125839147"/>
      <point x="702.396735553508" y="339.53507963669864"/>
      <point x="714.8076872449651" y="371.87949190469925" type="qcurve" smooth="yes"/>
      <point x="1131.2597077793866" y="1456.0" type="line"/>
      <point x="1339.2970909569567" y="1456.0" type="line"/>
      <point x="765.1842832697117" y="-10.000000000000002" type="line"/>
      <point x="574.9973673818613" y="-10.000000000000002" type="line"/>
    </contour>
  </outline>
</glyph>
<glyph name="W" format="2">
  <advance width="1908"/>
  <unicode hex="0057"/>
  <anchor x="942.3269633142697" y="0.0" name="bottom"/>
  <anchor x="948.8690193890361" y="1456.0" name="top"/>
  <outline>
    <contour>
      <point x="424.41549295774655" y="-10.000000000000002" type="line"/>
      <point x="50.0" y="1456.0" type="line"/>
      <point x="258.7163353955509" y="1456.0" type="line"/>
      <point x="520.1538107147559" y="381.6746083980519" type="line" smooth="yes"/>
      <point x="528.4495853626431" y="347.7570751612479"/>
      <point x="535.0556798736344" y="306.6746083980519"/>
      <point x="539.0229695932605" y="273.6091878373042" type="qcurve"/>
      <point x="548.9575490325129" y="273.6091878373042" type="line"/>
      <point x="552.9248387521391" y="306.6746083980519"/>
      <point x="559.4328024220086" y="347.64189811767807"/>
      <point x="568.728577069896" y="381.6746083980519" type="qcurve" smooth="yes"/>
      <point x="852.9868369093064" y="1455.967289719626" type="line"/>
      <point x="1055.9821640121102" y="1455.967289719626" type="line"/>
      <point x="1351.8174279320785" y="381.7727392391734" type="line" smooth="yes"/>
      <point x="1361.2610899039096" y="347.8879162827432"/>
      <point x="1367.6538765302093" y="306.6746083980519"/>
      <point x="1371.6211662498356" y="273.6091878373042" type="qcurve"/>
      <point x="1380.5884559694616" y="273.6091878373042" type="line"/>
      <point x="1384.5557456890879" y="306.6746083980519"/>
      <point x="1391.9485323153876" y="347.6248519152297"/>
      <point x="1400.392194287219" y="381.7727392391734" type="qcurve" smooth="yes"/>
      <point x="1650.6465710148743" y="1456.0" type="line"/>
      <point x="1857.5264578122942" y="1456.0" type="line"/>
      <point x="1484.2940634460974" y="-10.000000000000002" type="line"/>
      <point x="1279.2893905489009" y="-10.000000000000002" type="line"/>
      <point x="984.5989864420167" y="1067.8300644991443" type="line" smooth="yes"/>
      <point x="975.2207450309334" y="1101.7475977359486"/>
      <point x="962.6644070027644" y="1162.53567197578"/>
      <point x="957.6971172831383" y="1195.6010925365279" type="qcurve"/>
      <point x="949.6971172831381" y="1195.6010925365279" type="line"/>
      <point x="944.729827563512" y="1162.53567197578"/>
      <point x="932.091022772147" y="1101.7475977359486"/>
      <point x="922.8279584046334" y="1067.8300644991443" type="qcurve" smooth="yes"/>
      <point x="628.8968013689615" y="-10.000000000000002" type="line"/>
    </contour>
  </outline>
</glyph>
<glyph name="X" format="2">
  <advance width="1286"/>
  <unicode hex="0058"/>
  <anchor x="619.9299065420562" y="0.0" name="bottom"/>
  <anchor x="619.9299065420562" y="1456.0" name="top"/>
  <anchor x="1012.4065420560747" y="0.0" name="cy_descender"/>
  <outline>
    <contour>
      <point x="25.0" y="0.0" type="line"/>
      <point x="570.8145320521259" y="806.9485981308413" type="line"/>
      <point x="597.4761748058445" y="806.9485981308413" type="line"/>
      <point x="1009.1165591680927" y="1456.0" type="line"/>
      <point x="1236.7046202448334" y="1456.0" type="line"/>
      <point x="715.6242595761486" y="669.5093457943926" type="line"/>
      <point x="688.1932341713834" y="669.5093457943926" type="line"/>
      <point x="252.555350796367" y="0.0" type="line"/>
    </contour>
    <contour>
      <point x="49.80373831775701" y="1456.0" type="line"/>
      <point x="284.4158878504673" y="1456.0" type="line"/>
      <point x="701.0849019349744" y="806.0000000000001" type="line"/>
      <point x="711.5285639068054" y="806.0000000000001" type="line"/>
      <point x="1261.408845596946" y="0.0" type="line"/>
      <point x="1022.8862050809531" y="0.0" type="line"/>
      <point x="581.8414505725945" y="670.0000000000001" type="line"/>
      <point x="571.3977886007635" y="670.0000000000001" type="line"/>
    </contour>
  </outline>
</glyph>
<glyph name="Y" format="2">
  <advance width="1287"/>
  <unicode hex="0059"/>
  <anchor x="620.3130841121497" y="0.0" name="bottom"/>
  <anchor x="628.4579439252336" y="1456.0" name="top"/>
  <anchor x="-175.0" y="1074.0000000000002" name="tonos"/>
  <outline>
    <contour>
      <point x="540.1830985915493" y="0.0" type="line"/>
      <point x="540.1830985915493" y="544.0" type="line"/>
      <point x="15.000000000000002" y="1456.0" type="line"/>
      <point x="245.39252336448604" y="1456.0" type="line"/>
      <point x="590.5055284980914" y="841.0052652362774" type="line" smooth="yes"/>
      <point x="606.8681058312493" y="811.7262735290246"/>
      <point x="633.2765565354746" y="761.0052652362774"/>
      <point x="644.3092668158483" y="734.0052652362774" type="qcurve"/>
      <point x="650.3092668158484" y="734.0052652362774" type="line"/>
      <point x="661.3092668158484" y="761.0052652362774"/>
      <point x="687.7177175200737" y="811.7106094510991"/>
      <point x="704.1784256943531" y="841.0052652362774" type="qcurve" smooth="yes"/>
      <point x="1053.193299986837" y="1456.0" type="line"/>
      <point x="1271.7587205475845" y="1456.0" type="line"/>
      <point x="746.5756219560353" y="544.0" type="line"/>
      <point x="746.5756219560353" y="0.0" type="line"/>
    </contour>
  </outline>
</glyph>
<glyph name="asciicircum" format="2">
  <advance width="1288"/>
  <unicode hex="005E"/>
  <outline>
    <contour>
      <point x="25.0" y="720.0000000000001" type="line"/>
      <point x="541.4084507042254" y="1456.0" type="line"/>
      <point x="746.2343213509915" y="1456.0" type="line"/>
      <point x="1262.642772055217" y="720.0000000000001" type="line"/>
      <point x="1036.356597295214" y="720.0000000000001" type="line"/>
      <point x="643.8213860276085" y="1291.4788732394366" type="line"/>
      <point x="249.8073015205662" y="720.0000000000001" type="line"/>
    </contour>
  </outline>
</glyph>
<glyph name="underscore" format="2">
  <advance width="1100"/>
  <unicode hex="005F"/>
  <outline>
    <contour>
      <point x="0.0" y="-429.9303482587065" type="line"/>
      <point x="0.0" y="-244.0" type="line"/>
      <point x="1099.718309859155" y="-244.0" type="line"/>
      <point x="1099.718309859155" y="-429.9303482587065" type="line"/>
    </contour>
  </outline>
</glyph>
<glyph name="c" format="2">
  <advance width="1125"/>
  <unicode hex="0063"/>
  <anchor x="584.5420560747664" y="0.0" name="bottom"/>
  <anchor x="584.5420560747664" y="1052.0" name="top"/>
  <outline>
    <contour>
      <point x="85.0" y="510.00000000000006" type="qcurve" smooth="yes"/>
      <point x="85.0" y="542.0" type="line" smooth="yes"/>
      <point x="85.0" y="780.0000000000001"/>
      <point x="360.3809398446756" y="1082.0"/>
      <point x="601.482295643017" y="1082.0" type="qcurve" smooth="yes"/>
      <point x="824.5427420617068" y="1082.0"/>
      <point x="1056.2586547321312" y="853.2238805970148"/>
      <point x="1056.2586547321312" y="709.1144278606965" type="qcurve" smooth="yes"/>
      <point x="1056.2586547321312" y="703.7873250569583" type="line"/>
      <point x="863.8941687508228" y="703.7873250569583" type="line"/>
      <point x="863.8941687508228" y="709.1144278606965" type="line" smooth="yes"/>
      <point x="863.8941687508228" y="791.4328358208954"/>
      <point x="739.5092622971755" y="917.1144278606965"/>
      <point x="601.5490983282875" y="917.1144278606965" type="qcurve" smooth="yes"/>
      <point x="440.82374621561144" y="917.1144278606965"/>
      <point x="288.5420560747664" y="699.2885572139304"/>
      <point x="288.5420560747664" y="541.4776119402985" type="qcurve" smooth="yes"/>
      <point x="288.5420560747664" y="510.52238805970154" type="line" smooth="yes"/>
      <point x="288.5420560747664" y="352.7114427860697"/>
      <point x="440.82374621561144" y="134.85074626865674"/>
      <point x="601.5490983282875" y="134.85074626865674" type="qcurve" smooth="yes"/>
      <point x="739.5092622971755" y="134.85074626865674"/>
      <point x="863.8941687508228" y="260.3687869065886"/>
      <point x="863.8941687508228" y="342.7199051471614" type="qcurve" smooth="yes"/>
      <point x="863.8941687508228" y="348.1778490723951" type="line"/>
      <point x="1056.2586547321312" y="348.1778490723951" type="line"/>
      <point x="1056.2586547321312" y="342.85074626865674" type="line" smooth="yes"/>
      <point x="1056.2586547321312" y="198.7412935323383"/>
      <point x="824.5427420617068" y="-30.000000000000004"/>
      <point x="601.482295643017" y="-30.000000000000004" type="qcurve" smooth="yes"/>
      <point x="360.3809398446756" y="-30.000000000000004"/>
      <point x="85.0" y="272.0"/>
    </contour>
  </outline>
</glyph>
<glyph name="e" format="2">
  <advance width="1145"/>
  <unicode hex="0065"/>
  <anchor x="604.2616822429908" y="0.0" name="bottom"/>
  <anchor x="790.5607476635514" y="0.0" name="ogonek"/>
  <anchor x="573.607476635514" y="1052.0" name="top"/>
  <outline>
    <contour>
      <point x="85.0" y="510.4906542056075" type="qcurve" smooth="yes"/>
      <point x="85.0" y="541.8037383177569" type="line" smooth="yes"/>
      <point x="85.0" y="779.9345794392524"/>
      <point x="362.1832960379097" y="1082.0"/>
      <point x="590.5793076214295" y="1082.0" type="qcurve" smooth="yes"/>
      <point x="818.794721600632" y="1082.0"/>
      <point x="1065.2729366855338" y="799.9303482587064"/>
      <point x="1065.2729366855338" y="559.0945273631842" type="qcurve" smooth="yes"/>
      <point x="1065.2729366855338" y="477.0000000000001" type="line"/>
      <point x="212.2803738317757" y="477.0000000000001" type="line"/>
      <point x="212.2803738317757" y="630.0845771144279" type="line"/>
      <point x="865.1888245360011" y="630.0845771144279" type="line"/>
      <point x="865.1888245360011" y="653.2835820895524" type="line" smooth="yes"/>
      <point x="865.1888245360011" y="763.7313432835822"/>
      <point x="727.794458338818" y="918.3333333333334"/>
      <point x="598.8437541134658" y="918.3333333333334" type="qcurve" smooth="yes"/>
      <point x="442.5620639726208" y="918.3333333333334"/>
      <point x="288.2803738317757" y="700.2985074626866"/>
      <point x="288.2803738317757" y="541.5820895522388" type="qcurve" smooth="yes"/>
      <point x="288.2803738317757" y="510.41791044776124" type="line" smooth="yes"/>
      <point x="288.2803738317757" y="351.70149253731347"/>
      <point x="454.47301566407793" y="134.36318407960198"/>
      <point x="627.8336185336318" y="134.36318407960198" type="qcurve" smooth="yes"/>
      <point x="736.3180088107573" y="134.36318407960198"/>
      <point x="890.1947325371301" y="222.29353233830847"/>
      <point x="938.5487063825274" y="281.7711442786069" type="qcurve"/>
      <point x="1056.715479794656" y="175.0" type="line"/>
      <point x="1003.7148874555747" y="100.0"/>
      <point x="781.7782019218114" y="-30.000000000000004"/>
      <point x="622.3170988548112" y="-30.000000000000004" type="qcurve" smooth="yes"/>
      <point x="362.1832960379097" y="-30.000000000000004"/>
      <point x="85.0" y="272.03271028037386"/>
    </contour>
  </outline>
</glyph>
<glyph name="f" format="2">
  <advance width="636"/>
  <unicode hex="0066"/>
  <anchor x="306.5420560747664" y="0.0" name="bottom"/>
  <anchor x="309.8130841121495" y="1536.0000000000002" name="top"/>
  <outline>
    <contour>
      <point x="212.4154929577465" y="0.0" type="line"/>
      <point x="212.4154929577465" y="1196.2056074766356" type="line" smooth="yes"/>
      <point x="212.4154929577465" y="1372.0700934579438"/>
      <point x="409.23305252073186" y="1556.0"/>
      <point x="577.300644991444" y="1556.0" type="qcurve" smooth="yes"/>
      <point x="615.419770962222" y="1556.0"/>
      <point x="683.4478083453995" y="1547.8691588785048"/>
      <point x="713.545939186521" y="1539.9345794392525" type="qcurve"/>
      <point x="703.5459391865211" y="1379.4868182452226" type="line"/>
      <point x="681.5459391865211" y="1383.4868182452226"/>
      <point x="631.5459391865211" y="1389.55223880597"/>
      <point x="602.2924180597605" y="1389.55223880597" type="qcurve" smooth="yes"/>
      <point x="512.5881927076477" y="1389.55223880597"/>
      <point x="410.89100960905625" y="1289.6218905472638"/>
      <point x="411.63044622877453" y="1189.5522388059703" type="qcurve" smooth="yes"/>
      <point x="411.63044622877453" y="982.039800995025" type="line"/>
      <point x="411.63044622877453" y="970.0" type="line"/>
      <point x="411.63044622877453" y="0.0" type="line"/>
    </contour>
    <contour>
      <point x="25.0" y="896.0696517412937" type="line"/>
      <point x="25.0" y="1052.0" type="line"/>
      <point x="288.330985915493" y="1052.0" type="line"/>
      <point x="347.4150980650257" y="1052.0" type="line"/>
      <point x="654.4191786231407" y="1052.0" type="line"/>
      <point x="654.4191786231407" y="896.0696517412937" type="line"/>
    </contour>
  </outline>
</glyph>
<glyph name="g" format="2">
  <advance width="1227"/>
  <unicode hex="0067"/>
  <anchor x="595.303738317757" y="-416.0" name="bottom"/>
  <anchor x="597.9532710280374" y="1052.0" name="top"/>
  <outline>
    <contour>
      <point x="573.6716467026458" y="-436.00000000000006" type="qcurve" smooth="yes"/>
      <point x="436.42056074766356" y="-436.00000000000006"/>
      <point x="204.2974858496775" y="-350.0"/>
      <point x="124.16355140186917" y="-284.0" type="qcurve"/>
      <point x="242.0141814293021" y="-133.2039800995025" type="line"/>
      <point x="290.1257405875716" y="-184.34328358208958"/>
      <point x="461.73989110653133" y="-262.681592039801"/>
      <point x="568.1694747926813" y="-262.681592039801" type="qcurve" smooth="yes"/>
      <point x="714.2209241406499" y="-262.681592039801"/>
      <point x="881.5184283269713" y="-113.42425721858"/>
      <point x="881.5184283269713" y="25.098898033198495" type="qcurve" smooth="yes"/>
      <point x="881.5184283269713" y="915.0000000000001" type="line"/>
      <point x="890.6311043833092" y="915.0000000000001" type="line"/>
      <point x="898.6311043833092" y="1052.0" type="line"/>
      <point x="1080.602540476504" y="1052.0" type="line"/>
      <point x="1080.602540476504" y="24.05607476635514" type="line" smooth="yes"/>
      <point x="1080.602540476504" y="-199.70560747663552"/>
      <point x="798.818349348427" y="-436.00000000000006"/>
    </contour>
    <contour>
      <point x="599.4470837205313" y="144.5721393034826" type="qcurve" smooth="yes"/>
      <point x="750.8056266646234" y="144.5721393034826"/>
      <point x="937.071652727543" y="359.46766169154233"/>
      <point x="937.071652727543" y="503.76616915422886" type="qcurve" smooth="yes"/>
      <point x="937.071652727543" y="530.8955223880598" type="line" smooth="yes"/>
      <point x="937.071652727543" y="698.3233830845771"/>
      <point x="745.0735341981682" y="907.4278606965175"/>
      <point x="599.4470837205313" y="907.4278606965175" type="qcurve" smooth="yes"/>
      <point x="438.32286212743054" y="907.4278606965175"/>
      <point x="288.57476635514024" y="696.3930348258707"/>
      <point x="288.57476635514024" y="541.4427860696518" type="qcurve" smooth="yes"/>
      <point x="288.57476635514024" y="510.45273631840803" type="line" smooth="yes"/>
      <point x="288.57476635514024" y="355.60696517412936"/>
      <point x="438.32286212743054" y="144.5721393034826"/>
    </contour>
    <contour>
      <point x="555.7217879275468" y="-20.000000000000004" type="qcurve" smooth="yes"/>
      <point x="342.31014075338726" y="-20.000000000000004"/>
      <point x="85.0" y="280.0"/>
      <point x="85.0" y="510.00000000000006" type="qcurve" smooth="yes"/>
      <point x="85.0" y="542.0" type="line" smooth="yes"/>
      <point x="85.0" y="772.0"/>
      <point x="342.31014075338726" y="1072.0"/>
      <point x="555.7217879275468" y="1072.0" type="qcurve" smooth="yes"/>
      <point x="771.8177651953475" y="1072.0"/>
      <point x="1006.3286620733373" y="769.0000000000001"/>
      <point x="1006.3286620733373" y="531.0000000000001" type="qcurve" smooth="yes"/>
      <point x="1006.3286620733373" y="505.00000000000006" type="line" smooth="yes"/>
      <point x="1006.3286620733373" y="282.00000000000006"/>
      <point x="770.7850549149737" y="-20.000000000000004"/>
    </contour>
  </outline>
</glyph>
<glyph name="h" format="2">
  <advance width="1192"/>
  <unicode hex="0068"/>
  <anchor x="595.5589048308543" y="0.0" name="bottom"/>
  <anchor x="326.54205607476644" y="1327.0" name="center"/>
  <anchor x="249.62616822429908" y="1536.0000000000002" name="top"/>
  <anchor x="954.2810978017638" y="0.0" name="engtail"/>
  <outline>
    <contour>
      <point x="347.08411214953276" y="0.0" type="line"/>
      <point x="148.0" y="0.0" type="line"/>
      <point x="148.0" y="1536.0000000000002" type="line"/>
      <point x="347.08411214953276" y="1536.0000000000002" type="line"/>
    </contour>
    <contour>
      <point x="254.3986360156569" y="785.822429906542" type="line"/>
      <point x="334.8793039541008" y="936.9818349348428"/>
      <point x="558.0623272344347" y="1072.0"/>
      <point x="697.9085823351323" y="1072.0" type="qcurve" smooth="yes"/>
      <point x="853.5533105173095" y="1072.0"/>
      <point x="1053.527379228643" y="889.855140186916"/>
      <point x="1053.527379228643" y="677.626168224299" type="qcurve" smooth="yes"/>
      <point x="1053.527379228643" y="0.0" type="line"/>
      <point x="854.4432670791101" y="0.0" type="line"/>
      <point x="854.4432670791101" y="666.860696517413" type="line" smooth="yes"/>
      <point x="854.4432670791101" y="792.860696517413"/>
      <point x="735.9714360931947" y="901.8606965174131"/>
      <point x="626.6318283532974" y="901.8606965174131" type="qcurve" smooth="yes"/>
      <point x="510.85948400684487" y="901.8606965174131"/>
      <point x="338.248284377769" y="750.0936269029999"/>
      <point x="254.3986360156569" y="563.2251824987214" type="qcurve"/>
    </contour>
  </outline>
</glyph>
<glyph name="p" format="2">
  <advance width="1229"/>
  <unicode hex="0070"/>
  <anchor x="660.7429906542055" y="0.0" name="bottom"/>
  <anchor x="653.644859813084" y="1052.0" name="top"/>
  <outline>
    <contour>
      <point x="148.0" y="-416.0" type="line"/>
      <point x="148.0" y="1052.0" type="line"/>
      <point x="329.08411214953276" y="1052.0" type="line"/>
      <point x="337.08411214953276" y="915.0000000000001" type="line"/>
      <point x="347.08411214953276" y="915.0000000000001" type="line"/>
      <point x="347.08411214953276" y="-416.0" type="line"/>
    </contour>
    <contour>
      <point x="634.647492431223" y="144.5721393034826" type="qcurve" smooth="yes"/>
      <point x="792.6334079241806" y="144.5721393034826"/>
      <point x="940.0277741213637" y="355.60696517412936"/>
      <point x="940.0277741213637" y="510.45273631840803" type="qcurve" smooth="yes"/>
      <point x="940.0277741213637" y="541.4427860696518" type="line" smooth="yes"/>
      <point x="940.0277741213637" y="696.3930348258707"/>
      <point x="792.6334079241806" y="907.4278606965175"/>
      <point x="634.647492431223" y="907.4278606965175" type="qcurve" smooth="yes"/>
      <point x="486.2531262340398" y="907.4278606965175"/>
      <point x="304.0841121495327" y="692.5323383084578"/>
      <point x="304.0841121495327" y="548.2686567164179" type="qcurve" smooth="yes"/>
      <point x="304.0841121495327" y="521.1393034825871" type="line" smooth="yes"/>
      <point x="304.0841121495327" y="353.6766169154229"/>
      <point x="491.5489008819271" y="144.5721393034826"/>
    </contour>
    <contour>
      <point x="679.2554955903646" y="-20.000000000000004" type="qcurve" smooth="yes"/>
      <point x="475.44359615637757" y="-20.000000000000004"/>
      <point x="234.8271028037383" y="265.00000000000006"/>
      <point x="234.8271028037383" y="520.0" type="qcurve" smooth="yes"/>
      <point x="234.8271028037383" y="554.0" type="line" smooth="yes"/>
      <point x="234.8271028037383" y="764.6728971962617"/>
      <point x="463.80367250230347" y="1072.0"/>
      <point x="679.2554955903646" y="1072.0" type="qcurve" smooth="yes"/>
      <point x="890.1655258654733" y="1072.0"/>
      <point x="1143.6025404765041" y="771.8691588785047"/>
      <point x="1143.6025404765041" y="541.8037383177569" type="qcurve" smooth="yes"/>
      <point x="1143.6025404765041" y="510.392523364486" type="line" smooth="yes"/>
      <point x="1143.6025404765041" y="280.2289719626168"/>
      <point x="890.1655258654733" y="-20.000000000000004"/>
    </contour>
  </outline>
</glyph>
<glyph name="r" format="2">
  <advance width="732"/>
  <unicode hex="0072"/>
  <anchor x="352.94392523364485" y="0.0" name="bottom"/>
  <anchor x="417.0" y="1052.0" name="top"/>
  <outline>
    <contour>
      <point x="148.0" y="0.0" type="line"/>
      <point x="148.0" y="1052.0" type="line"/>
      <point x="329.08411214953276" y="1052.0" type="line"/>
      <point x="347.08411214953276" y="740.3271028037384" type="line"/>
      <point x="347.08411214953276" y="0.0" type="line"/>
    </contour>
    <contour>
      <point x="249.5046728971963" y="519.0649788440974" type="qcurve"/>
      <point x="249.5046728971963" y="720.9953271028039" type="line"/>
      <point x="342.144135843096" y="954.3785046728973"/>
      <point x="520.4714360931947" y="1082.0"/>
      <point x="618.760168487561" y="1082.0" type="qcurve" smooth="yes"/>
      <point x="641.7953797551666" y="1082.0"/>
      <point x="691.7179149664341" y="1072.0"/>
      <point x="702.1615769382653" y="1068.0000000000002" type="qcurve"/>
      <point x="702.1615769382653" y="882.0696517412936" type="line"/>
      <point x="681.2742529946031" y="886.0696517412936"/>
      <point x="635.3517177833356" y="890.0696517412937"/>
      <point x="608.1686191917862" y="890.0696517412937" type="qcurve" smooth="yes"/>
      <point x="504.7319994734763" y="890.0696517412937"/>
      <point x="350.7156114255627" y="766.4621751057796"/>
    </contour>
  </outline>
</glyph>
<glyph name="s" format="2">
  <advance width="1061"/>
  <unicode hex="0073"/>
  <anchor x="517.5607476635514" y="0.0" name="bottom"/>
  <anchor x="516.9065420560748" y="1052.0" name="top"/>
  <outline>
    <contour>
      <point x="80.00000000000001" y="314.0746268656717" type="line"/>
      <point x="276.79439252336454" y="314.0746268656717" type="line"/>
      <point x="276.79439252336454" y="309.0746268656717" type="line" smooth="yes"/>
      <point x="276.79439252336454" y="220.32984609661975"/>
      <point x="419.00041191960435" y="131.5771144278607"/>
      <point x="536.8063051204424" y="131.5771144278607" type="qcurve" smooth="yes"/>
      <point x="650.3265418989035" y="131.5771144278607"/>
      <point x="782.1563244721502" y="215.7633561166132"/>
      <point x="782.1563244721502" y="282.9689868414935" type="qcurve" smooth="yes"/>
      <point x="782.1563244721502" y="349.79267215325245"/>
      <point x="674.3213866824887" y="421.32155924340395"/>
      <point x="498.03494800579176" y="459.40515993155196" type="qcurve" smooth="yes"/>
      <point x="310.9630673799621" y="498.47006903091494"/>
      <point x="106.17757009345794" y="644.8179429953037"/>
      <point x="106.17757009345794" y="776.4672897196263" type="qcurve" smooth="yes"/>
      <point x="106.17757009345794" y="909.4123541172643"/>
      <point x="331.73381316400753" y="1081.8521126760563"/>
      <point x="524.9607081742794" y="1082.0" type="qcurve" smooth="yes"/>
      <point x="722.0930813878481" y="1082.1478873239437"/>
      <point x="948.5231670396208" y="907.5240805974079"/>
      <point x="948.5231670396208" y="760.4115689159836" type="qcurve" smooth="yes"/>
      <point x="948.5231670396208" y="755.4115689159835" type="line"/>
      <point x="750.5371857312098" y="755.4115689159835" type="line"/>
      <point x="750.5371857312098" y="764.4115689159835" type="line" smooth="yes"/>
      <point x="750.5371857312098" y="837.647003890643"/>
      <point x="640.7469415460541" y="921.023509214491"/>
      <point x="523.5200737133079" y="920.8756218905473" type="qcurve" smooth="yes"/>
      <point x="409.8724522706987" y="920.7277345666037"/>
      <point x="303.6257631809362" y="844.2143900741128"/>
      <point x="303.6257631809362" y="786.4230663190564" type="qcurve" smooth="yes"/>
      <point x="303.6257631809362" y="728.5874779059815"/>
      <point x="426.19249579403237" y="661.6006468905965"/>
      <point x="601.5718046597342" y="623.6805976043175" type="qcurve" smooth="yes"/>
      <point x="785.6461482897478" y="585.0082118694405"/>
      <point x="981.4025931288668" y="433.5483743582994"/>
      <point x="981.4025931288668" y="293.25398183493485" type="qcurve" smooth="yes"/>
      <point x="981.4025931288668" y="151.6511780966171"/>
      <point x="757.3325654863762" y="-30.147887323943664"/>
      <point x="537.0108595498224" y="-30.147887323943664" type="qcurve" smooth="yes"/>
      <point x="318.8120670833015" y="-30.147887323943664"/>
      <point x="80.00000000000001" y="154.14502255079742"/>
      <point x="80.00000000000001" y="309.0746268656717" type="qcurve" smooth="yes"/>
    </contour>
  </outline>
</glyph>
<glyph name="u" format="2">
  <advance width="1192"/>
  <unicode hex="0075"/>
  <anchor x="581.7570093457944" y="0.0" name="bottom"/>
  <anchor x="1006.4953271028039" y="0.0" name="ogonek"/>
  <anchor x="581.7570093457944" y="1052.0" name="top"/>
  <anchor x="923.7056074766356" y="1052.0" name="topright"/>
  <anchor x="924.873831775701" y="0.0" name="cy_descender"/>
  <outline>
    <contour>
      <point x="499.528234829538" y="-20.000000000000004" type="qcurve" smooth="yes"/>
      <point x="330.2383177570094" y="-20.000000000000004"/>
      <point x="138.00000000000003" y="161.0"/>
      <point x="138.00000000000003" y="373.0" type="qcurve" smooth="yes"/>
      <point x="138.00000000000003" y="1052.0" type="line"/>
      <point x="337.08411214953276" y="1052.0" type="line"/>
      <point x="337.08411214953276" y="385.13930348258714" type="line" smooth="yes"/>
      <point x="337.08411214953276" y="259.1393034825871"/>
      <point x="455.5559431354483" y="150.13930348258708"/>
      <point x="564.4362248255891" y="150.13930348258708" type="qcurve" smooth="yes"/>
      <point x="659.2941102700267" y="150.13930348258708"/>
      <point x="822.7209215211294" y="262.90795135812317"/>
      <point x="937.3757309280896" y="487.9372827844456" type="qcurve"/>
      <point x="937.6458755321721" y="296.09052015164406" type="line"/>
      <point x="851.4192411641936" y="112.0293314263224"/>
      <point x="620.8685177508535" y="-20.000000000000004"/>
    </contour>
    <contour>
      <point x="862.4432670791102" y="0.0" type="line"/>
      <point x="844.4432670791103" y="228.68065359656896" type="line"/>
      <point x="844.4432670791103" y="1052.0" type="line"/>
      <point x="1043.5273792286428" y="1052.0" type="line"/>
      <point x="1043.5273792286428" y="0.0" type="line"/>
    </contour>
  </outline>
</glyph>
<glyph name="sterling" format="2">
  <advance width="1050"/>
  <unicode hex="00A3"/>
  <outline>
    <contour>
      <point x="1054.1682242990653" y="0.0" type="line"/>
      <point x="36.00000000000001" y="0.0" type="line"/>
      <point x="36.00000000000001" y="160.00000000000003" type="line"/>
      <point x="92.00000000000001" y="160.00000000000003" type="line" smooth="yes"/>
      <point x="184.00000000000003" y="160.00000000000003"/>
      <point x="264.0" y="324.0"/>
      <point x="250.0" y="467.0" type="qcurve" smooth="yes"/>
      <point x="195.00000000000003" y="1039.0" type="line" smooth="yes"/>
      <point x="177.00000000000003" y="1228.0"/>
      <point x="386.5420560747664" y="1476.0000000000002"/>
      <point x="594.0841121495328" y="1476.0000000000002" type="qcurve" smooth="yes"/>
      <point x="790.626168224299" y="1476.0000000000002"/>
      <point x="1010.1682242990654" y="1270.0000000000002"/>
      <point x="1010.1682242990654" y="1103.0000000000002" type="qcurve" smooth="yes"/>
      <point x="1010.1682242990654" y="1087.0" type="line"/>
      <point x="805.0841121495328" y="1087.0" type="line"/>
      <point x="805.0841121495328" y="1103.0000000000002" type="line" smooth="yes"/>
      <point x="805.0841121495328" y="1218.0"/>
      <point x="688.0841121495328" y="1309.0"/>
      <point x="596.0841121495328" y="1309.0" type="qcurve" smooth="yes"/>
      <point x="499.08411214953276" y="1309.0"/>
      <point x="382.08411214953276" y="1185.0"/>
      <point x="396.0841121495327" y="1039.0" type="qcurve" smooth="yes"/>
      <point x="446.5280373831776" y="513.626168224299" type="line" smooth="yes"/>
      <point x="459.75700934579436" y="375.30373831775705"/>
      <point x="402.33644859813086" y="207.29439252336448"/>
      <point x="326.9065420560748" y="166.00000000000003" type="qcurve"/>
      <point x="1054.1682242990653" y="166.00000000000003" type="line"/>
    </contour>
    <contour>
      <point x="850.1682242990655" y="625.0" type="line"/>
      <point x="52.0" y="625.0" type="line"/>
      <point x="52.0" y="780.0000000000001" type="line"/>
      <point x="850.1682242990655" y="780.0000000000001" type="line"/>
    </contour>
  </outline>
</glyph>
<glyph name="yen" format="2">
  <advance width="1037"/>
  <unicode hex="00A5"/>
  <outline>
    <contour>
      <point x="43.0" y="303.00000000000006" type="line"/>
      <point x="43.0" y="462.0000000000001" type="line"/>
      <point x="1002.0841121495328" y="462.0000000000001" type="line"/>
      <point x="1002.0841121495328" y="303.00000000000006" type="line"/>
    </contour>
    <contour>
      <point x="43.0" y="628.0" type="line"/>
      <point x="43.0" y="788.0" type="line"/>
      <point x="422.08411214953276" y="788.0" type="line"/>
      <point x="475.0841121495328" y="669.0000000000001" type="line"/>
      <point x="584.0841121495328" y="669.0000000000001" type="line"/>
      <point x="632.0841121495328" y="788.0" type="line"/>
      <point x="1002.0841121495328" y="788.0" type="line"/>
      <point x="1002.0841121495328" y="628.0" type="line"/>
    </contour>
    <contour>
      <point x="420.0" y="0.0" type="line"/>
      <point x="420.0" y="548.0" type="line"/>
      <point x="-35.0" y="1456.0" type="line"/>
      <point x="187.08411214953273" y="1456.0" type="line"/>
      <point x="463.08411214953276" y="849.0" type="line" smooth="yes"/>
      <point x="477.08411214953276" y="819.0000000000001"/>
      <point x="510.08411214953276" y="716.0"/>
      <point x="517.0841121495328" y="679.0" type="qcurve"/>
      <point x="537.0841121495328" y="679.0" type="line"/>
      <point x="546.0841121495326" y="735.0000000000001"/>
      <point x="577.0841121495328" y="819.0000000000001"/>
      <point x="591.0841121495329" y="849.0" type="qcurve" smooth="yes"/>
      <point x="871.0841121495328" y="1456.0" type="line"/>
      <point x="1072.0841121495328" y="1456.0" type="line"/>
      <point x="617.0841121495328" y="548.0" type="line"/>
      <point x="617.0841121495328" y="0.0" type="line"/>
    </contour>
  </outline>
</glyph>
<glyph name="logicalnot" format="2">
  <advance width="1031"/>
  <unicode hex="00AC"/>
  <outline>
    <contour>
      <point x="934.5420560747664" y="801.0" type="line"/>
      <point x="934.5420560747664" y="369.4579439252337" type="line"/>
      <point x="743.4579439252337" y="369.4579439252337" type="line"/>
      <point x="743.4579439252337" y="637.0" type="line"/>
      <point x="58.0" y="637.0" type="line"/>
      <point x="58.0" y="801.0" type="line"/>
    </contour>
  </outline>
</glyph>
<glyph name="degree" format="2">
  <advance width="773"/>
  <unicode hex="00B0"/>
  <outline>
    <contour>
      <point x="130.0" y="1213.0747663551404" type="qcurve"/>
      <point x="130.0" y="1320.6448598130844"/>
      <point x="283.42056074766356" y="1476.9018691588785"/>
      <point x="389.1214953271028" y="1476.9018691588785" type="qcurve" smooth="yes"/>
      <point x="493.7897196261682" y="1476.9018691588785"/>
      <point x="644.2102803738318" y="1320.6448598130844"/>
      <point x="644.2102803738318" y="1213.0747663551404" type="qcurve" smooth="yes"/>
      <point x="644.2102803738318" y="1104.5046728971963"/>
      <point x="493.7897196261682" y="952.3130841121496"/>
      <point x="389.1214953271028" y="952.3130841121496" type="qcurve" smooth="yes"/>
      <point x="283.45327102803736" y="952.3130841121496"/>
      <point x="130.0" y="1104.5046728971963"/>
    </contour>
    <contour>
      <point x="258.1214953271028" y="1213.107476635514" type="qcurve"/>
      <point x="258.1214953271028" y="1158.107476635514"/>
      <point x="335.1214953271028" y="1084.107476635514"/>
      <point x="389.1214953271028" y="1084.107476635514" type="qcurve" smooth="yes"/>
      <point x="443.1214953271028" y="1084.107476635514"/>
      <point x="516.0887850467291" y="1158.107476635514"/>
      <point x="516.0887850467291" y="1213.107476635514" type="qcurve" smooth="yes"/>
      <point x="516.0887850467291" y="1269.1074766355139"/>
      <point x="443.1214953271028" y="1345.107476635514"/>
      <point x="389.1214953271028" y="1345.107476635514" type="qcurve" smooth="yes"/>
      <point x="335.1214953271028" y="1345.107476635514"/>
      <point x="258.1214953271028" y="1269.1074766355139"/>
    </contour>
  </outline>
</glyph>
<glyph name="plusminus" format="2">
  <advance width="1024"/>
  <unicode hex="00B1"/>
  <outline>
    <contour>
      <point x="57.00000000000001" y="604.4579439252337" type="line"/>
      <point x="57.00000000000001" y="781.5420560747665" type="line"/>
      <point x="967.0000000000001" y="781.5420560747665" type="line"/>
      <point x="967.0000000000001" y="604.4579439252337" type="line"/>
    </contour>
    <contour>
      <point x="422.00000000000006" y="248.00000000000003" type="line"/>
      <point x="422.00000000000006" y="1163.271028037383" type="line"/>
      <point x="602.0000000000001" y="1163.271028037383" type="line"/>
      <point x="602.0000000000001" y="248.00000000000003" type="line"/>
    </contour>
    <contour>
      <point x="57.00000000000001" y="1.0" type="line"/>
      <point x="57.00000000000001" y="165.0" type="line"/>
      <point x="967.0000000000001" y="165.0" type="line"/>
      <point x="967.0000000000001" y="1.0" type="line"/>
    </contour>
  </outline>
</glyph>
<glyph name="twosuperior" format="2">
  <advance width="770"/>
  <unicode hex="00B2"/>
  <outline>
    <contour>
      <point x="84.41121495327103" y="697.0000000000001" type="line"/>
      <point x="84.41121495327103" y="805.0000000000001" type="line"/>
      <point x="375.3551401869159" y="1067.9345794392525" type="line" smooth="yes"/>
      <point x="442.61682242990656" y="1129.607476635514"/>
      <point x="482.13084112149534" y="1217.0467289719627"/>
      <point x="482.13084112149534" y="1250.0467289719627" type="qcurve" smooth="yes"/>
      <point x="482.13084112149534" y="1297.6869158878505"/>
      <point x="430.4579439252337" y="1347.0"/>
      <point x="371.4579439252336" y="1347.0" type="qcurve" smooth="yes"/>
      <point x="306.4579439252337" y="1347.0"/>
      <point x="245.803738317757" y="1282.6728971962618"/>
      <point x="245.803738317757" y="1207.6728971962616" type="qcurve" smooth="yes"/>
      <point x="245.803738317757" y="1197.836448598131" type="line"/>
      <point x="77.06542056074765" y="1197.836448598131" type="line"/>
      <point x="77.06542056074765" y="1207.6728971962616" type="line" smooth="yes"/>
      <point x="77.06542056074765" y="1338.6728971962616"/>
      <point x="229.39719626168224" y="1487.0000000000002"/>
      <point x="378.0373831775701" y="1487.0000000000002" type="qcurve" smooth="yes"/>
      <point x="517.5654205607477" y="1487.0000000000002"/>
      <point x="672.0186915887851" y="1359.0"/>
      <point x="672.0186915887851" y="1251.0000000000002" type="qcurve" smooth="yes"/>
      <point x="672.0186915887851" y="1171.0"/>
      <point x="571.9299065420562" y="1047.2803738317757"/>
      <point x="483.4392523364486" y="971.0" type="qcurve" smooth="yes"/>
      <point x="335.4953271028038" y="845.0000000000001" type="line"/>
      <point x="702.3644859813085" y="845.0000000000001" type="line"/>
      <point x="702.3644859813085" y="697.0000000000001" type="line"/>
    </contour>
  </outline>
</glyph>
<glyph name="threesuperior" format="2">
  <advance width="777"/>
  <unicode hex="00B3"/>
  <outline>
    <contour>
      <point x="63.00000000000001" y="920.0000000000001" type="qcurve" smooth="yes"/>
      <point x="63.00000000000001" y="923.1308411214955" type="line"/>
      <point x="233.08411214953273" y="923.1308411214955" type="line"/>
      <point x="233.08411214953273" y="920.0000000000001" type="line" smooth="yes"/>
      <point x="233.08411214953273" y="875.0000000000001"/>
      <point x="313.0841121495327" y="824.0000000000001"/>
      <point x="379.08411214953276" y="824.0000000000001" type="qcurve" smooth="yes"/>
      <point x="448.08411214953276" y="824.0000000000001"/>
      <point x="512.0841121495328" y="876.0"/>
      <point x="512.0841121495328" y="925.0000000000001" type="qcurve" smooth="yes"/>
      <point x="512.0841121495328" y="978.0000000000001"/>
      <point x="436.08411214953276" y="1028.0327102803737"/>
      <point x="363.0841121495327" y="1029.0" type="qcurve" smooth="yes"/>
      <point x="279.08411214953276" y="1029.0" type="line"/>
      <point x="279.08411214953276" y="1151.0" type="line"/>
      <point x="363.0841121495327" y="1151.0" type="line" smooth="yes"/>
      <point x="435.08411214953276" y="1151.0"/>
      <point x="499.08411214953276" y="1207.0"/>
      <point x="499.08411214953276" y="1255.0" type="qcurve" smooth="yes"/>
      <point x="499.08411214953276" y="1299.0"/>
      <point x="445.0841121495327" y="1349.0000000000002"/>
      <point x="376.08411214953276" y="1349.0000000000002" type="qcurve" smooth="yes"/>
      <point x="319.08411214953276" y="1349.0000000000002"/>
      <point x="244.08411214953276" y="1299.0"/>
      <point x="244.08411214953276" y="1256.0" type="qcurve" smooth="yes"/>
      <point x="244.08411214953276" y="1252.0000000000002" type="line"/>
      <point x="74.0" y="1252.0000000000002" type="line"/>
      <point x="74.0" y="1256.0" type="line" smooth="yes"/>
      <point x="74.0" y="1357.0000000000002"/>
      <point x="243.71495327102807" y="1487.0000000000002"/>
      <point x="373.08411214953276" y="1487.0000000000002" type="qcurve" smooth="yes"/>
      <point x="511.785046728972" y="1487.0000000000002"/>
      <point x="682.1682242990655" y="1372.0"/>
      <point x="682.1682242990655" y="1263.0000000000002" type="qcurve" smooth="yes"/>
      <point x="682.1682242990655" y="1211.6728971962618"/>
      <point x="619.2009345794394" y="1119.8364485981308"/>
      <point x="559.1682242990654" y="1098.0" type="qcurve"/>
      <point x="559.1682242990654" y="1097.0000000000002" type="line"/>
      <point x="626.1355140186917" y="1073.065420560748"/>
      <point x="693.1682242990655" y="981.5233644859815"/>
      <point x="693.1682242990655" y="917.0" type="qcurve" smooth="yes"/>
      <point x="693.1682242990655" y="807.0"/>
      <point x="510.39719626168227" y="686.0"/>
      <point x="374.0841121495327" y="686.0" type="qcurve" smooth="yes"/>
      <point x="233.56074766355144" y="686.0"/>
      <point x="63.00000000000001" y="802.0000000000001"/>
    </contour>
  </outline>
</glyph>
<glyph name="multiply" format="2">
  <advance width="1024"/>
  <unicode hex="00D7"/>
  <outline>
    <contour>
      <point x="192.69626168224298" y="233.76168224299064" type="line"/>
      <point x="84.69626168224299" y="345.7616822429907" type="line"/>
      <point x="829.0420560747664" y="1107.303738317757" type="line"/>
      <point x="937.0420560747664" y="994.3037383177572" type="line"/>
    </contour>
    <contour>
      <point x="814.532710280374" y="233.72897196261684" type="line"/>
      <point x="87.53271028037383" y="976.7289719626169" type="line"/>
      <point x="213.07476635514018" y="1107.2710280373833" type="line"/>
      <point x="940.0747663551404" y="363.27102803738325" type="line"/>
    </contour>
  </outline>
</glyph>
<glyph name="Thorn" format="2">
  <advance width="1198"/>
  <unicode hex="00DE"/>
  <guideline x="0" y="901.0000000000001" angle="0" identifier="i9jYwjBDP4"/>
  <guideline x="0" y="555.0" angle="0" identifier="T8KKW8oxop"/>
  <outline>
    <contour>
      <point x="170.0" y="0.0" type="line"/>
      <point x="170.0" y="1456.0" type="line"/>
      <point x="368.9018691588785" y="1456.0" type="line"/>
      <point x="368.9018691588785" y="0.0" type="line"/>
    </contour>
    <contour>
      <point x="281.5420560747664" y="314.0" type="line"/>
      <point x="281.5420560747664" y="465.00000000000006" type="line"/>
      <point x="646.9018691588785" y="465.00000000000006" type="line" smooth="yes"/>
      <point x="806.9018691588785" y="465.00000000000006"/>
      <point x="948.9018691588784" y="604.0"/>
      <point x="948.9018691588784" y="736.0000000000001" type="qcurve" smooth="yes"/>
      <point x="948.9018691588784" y="868.0000000000001"/>
      <point x="806.9018691588785" y="1012.0"/>
      <point x="646.9018691588785" y="1012.0" type="qcurve" smooth="yes"/>
      <point x="281.5420560747664" y="1012.0" type="line"/>
      <point x="281.5420560747664" y="1163.0000000000002" type="line"/>
      <point x="652.0046728971963" y="1163.0000000000002" type="line" smooth="yes"/>
      <point x="891.1261682242991" y="1163.0000000000002"/>
      <point x="1148.2289719626167" y="935.0"/>
      <point x="1148.2289719626167" y="738.0000000000001" type="qcurve" smooth="yes"/>
      <point x="1148.2289719626167" y="541.0"/>
      <point x="891.1261682242991" y="314.0"/>
      <point x="652.0046728971963" y="314.0" type="qcurve" smooth="yes"/>
    </contour>
  </outline>
</glyph>
<glyph name="germandbls" format="2">
  <advance width="1212"/>
  <unicode hex="00DF"/>
  <outline>
    <contour>
      <point x="345.0841121495327" y="1092.0000000000002" type="qcurve" name="hr00"/>
      <point x="345.0841121495327" y="0.0" type="line"/>
      <point x="148.0" y="0.0" type="line"/>
      <point x="148.0" y="1089.0233644859816" type="line" smooth="yes"/>
      <point x="148.0" y="1295.0000000000002"/>
      <point x="362.54205607476644" y="1534.0"/>
      <point x="566.481308411215" y="1534.0" type="qcurve" smooth="yes"/>
      <point x="737.9719626168225" y="1534.0"/>
      <point x="943.1682242990655" y="1361.0"/>
      <point x="943.1682242990655" y="1214.9345794392525" type="qcurve" smooth="yes"/>
      <point x="943.1682242990655" y="1125.299065420561"/>
      <point x="886.3317757009346" y="1013.9065420560748"/>
      <point x="843.443925233645" y="970.4485981308411" type="qcurve" smooth="yes"/>
      <point x="810.9859813084113" y="933.2990654205607"/>
      <point x="752.0841121495328" y="859.0000000000001"/>
      <point x="752.0841121495328" y="830.0000000000001" type="qcurve" smooth="yes"/>
      <point x="752.0841121495328" y="782.6542056074768"/>
      <point x="885.7383177570094" y="683.5841121495328"/>
      <point x="968.373831775701" y="622.5654205607476" type="qcurve" smooth="yes"/>
      <point x="1052.3271028037384" y="563.4018691588785"/>
      <point x="1164.1682242990655" y="413.2570093457944"/>
      <point x="1164.1682242990655" y="283.3084112149533" type="qcurve" smooth="yes"/>
      <point x="1164.1682242990655" y="157.2289719626168"/>
      <point x="944.107476635514" y="-20.000000000000004"/>
      <point x="772.855140186916" y="-20.000000000000004" type="qcurve" smooth="yes"/>
      <point x="603.4252336448598" y="-20.000000000000004"/>
      <point x="405.0841121495327" y="129.00000000000003"/>
      <point x="405.0841121495327" y="278.00000000000006" type="qcurve" smooth="yes"/>
      <point x="405.0841121495327" y="304.0" type="line"/>
      <point x="568.0841121495328" y="304.0" type="line"/>
      <point x="568.0841121495328" y="295.00000000000006" type="line" smooth="yes"/>
      <point x="568.0841121495328" y="211.00000000000003"/>
      <point x="673.0841121495328" y="131.0"/>
      <point x="768.0841121495328" y="131.0" type="qcurve" smooth="yes"/>
      <point x="869.0841121495329" y="131.0"/>
      <point x="976.0841121495328" y="218.00000000000003"/>
      <point x="976.0841121495328" y="302.0" type="qcurve" smooth="yes"/>
      <point x="976.0841121495328" y="371.00000000000006"/>
      <point x="877.0841121495326" y="466.0"/>
      <point x="820.0841121495328" y="512.0" type="qcurve" smooth="yes"/>
      <point x="748.0841121495329" y="569.0"/>
      <point x="576.0841121495328" y="706.0000000000001"/>
      <point x="576.0841121495328" y="797.0000000000001" type="qcurve" smooth="yes"/>
      <point x="576.0841121495328" y="871.0000000000001"/>
      <point x="659.0841121495328" y="982.0000000000001"/>
      <point x="691.0841121495326" y="1026.0000000000002" type="qcurve" smooth="yes"/>
      <point x="720.0841121495326" y="1066.0"/>
      <point x="755.0841121495326" y="1149.0"/>
      <point x="755.0841121495326" y="1204.0000000000002" type="qcurve" smooth="yes"/>
      <point x="755.0841121495326" y="1293.0000000000002"/>
      <point x="646.0841121495328" y="1383.0000000000002"/>
      <point x="564.0841121495326" y="1383.0000000000002" type="qcurve" smooth="yes"/>
      <point x="461.0841121495327" y="1383.0000000000002"/>
      <point x="345.0841121495327" y="1241.0000000000002"/>
    </contour>
  </outline>
</glyph>
<glyph name="divide" format="2">
  <advance width="1024"/>
  <unicode hex="00F7"/>
  <outline>
    <contour>
      <point x="381.22429906542055" y="1069.7429906542056" type="qcurve" smooth="yes"/>
      <point x="381.22429906542055" y="1124.803738317757"/>
      <point x="446.57943925233656" y="1197.4532710280375"/>
      <point x="510.96728971962625" y="1197.4532710280375" type="qcurve" smooth="yes"/>
      <point x="574.2897196261683" y="1197.4532710280375"/>
      <point x="641.7429906542056" y="1124.803738317757"/>
      <point x="641.7429906542056" y="1069.7429906542056" type="qcurve" smooth="yes"/>
      <point x="641.7429906542056" y="1016.8130841121496"/>
      <point x="574.2897196261683" y="945.1962616822431"/>
      <point x="510.96728971962625" y="945.1962616822431" type="qcurve" smooth="yes"/>
      <point x="446.57943925233656" y="945.1962616822431"/>
      <point x="381.22429906542055" y="1016.8130841121496"/>
    </contour>
    <contour>
      <point x="381.25700934579436" y="282.86448598130846" type="qcurve" smooth="yes"/>
      <point x="381.25700934579436" y="336.8271028037383"/>
      <point x="446.6121495327103" y="410.5420560747664"/>
      <point x="511.00000000000006" y="410.5420560747664" type="qcurve" smooth="yes"/>
      <point x="574.3224299065421" y="410.5420560747664"/>
      <point x="641.7757009345794" y="336.8271028037383"/>
      <point x="641.7757009345794" y="282.86448598130846" type="qcurve" smooth="yes"/>
      <point x="641.7757009345794" y="229.9018691588785"/>
      <point x="574.3224299065421" y="157.25233644859816"/>
      <point x="511.00000000000006" y="157.25233644859816" type="qcurve" smooth="yes"/>
      <point x="446.6121495327103" y="157.25233644859816"/>
      <point x="381.25700934579436" y="229.9018691588785"/>
    </contour>
    <contour>
      <point x="57.00000000000001" y="588.0" type="line"/>
      <point x="57.00000000000001" y="760.0" type="line"/>
      <point x="967.0000000000001" y="760.0" type="line"/>
      <point x="967.0000000000001" y="588.0" type="line"/>
    </contour>
  </outline>
</glyph>
<glyph name="idotless" format="2">
  <advance width="513"/>
  <unicode hex="0131"/>
  <anchor x="256.83644859813086" y="1052.0" name="top"/>
  <anchor x="256.83644859813086" y="0.0" name="bottom"/>
  <anchor x="308.7056074766355" y="0.0" name="ogonek"/>
  <anchor x="258.57476635514024" y="542.0" name="yu_dash"/>
  <outline>
    <contour>
      <point x="157.0" y="0.0" type="line"/>
      <point x="157.0" y="1052.0" type="line"/>
      <point x="356.0841121495327" y="1052.0" type="line"/>
      <point x="356.0841121495327" y="0.0" type="line"/>
    </contour>
  </outline>
</glyph>
<glyph name="kgreenlandic" format="2">
  <advance width="1098"/>
  <unicode hex="0138"/>
  <outline>
    <contour>
      <point x="353.0841121495327" y="1052.0" type="line"/>
      <point x="353.0841121495327" y="0.0" type="line"/>
      <point x="155.00000000000003" y="0.0" type="line"/>
      <point x="155.00000000000003" y="1052.0" type="line"/>
    </contour>
    <contour>
      <point x="1046.6261682242991" y="1052.0" type="line"/>
      <point x="536.6261682242991" y="462.0000000000001" type="line"/>
      <point x="256.5420560747664" y="462.0000000000001" type="line"/>
      <point x="256.5420560747664" y="624.0000000000001" type="line"/>
      <point x="451.626168224299" y="624.0000000000001" type="line"/>
      <point x="822.6261682242992" y="1052.0" type="line"/>
    </contour>
    <contour>
      <point x="867.0841121495328" y="0.0" type="line"/>
      <point x="436.57476635514024" y="489.6401869158879" type="line"/>
      <point x="565.1915887850467" y="627.5654205607477" type="line"/>
      <point x="1114.1682242990655" y="0.0" type="line"/>
    </contour>
  </outline>
</glyph>
<glyph name="oe" format="2">
  <advance width="1926"/>
  <unicode hex="0153"/>
  <outline>
    <contour>
      <point x="565.588785046729" y="-30.000000000000004" type="qcurve" smooth="yes"/>
      <point x="362.392523364486" y="-30.000000000000004"/>
      <point x="85.0" y="272.13084112149534"/>
      <point x="85.0" y="510.22897196261687" type="qcurve" smooth="yes"/>
      <point x="85.0" y="541.6728971962617" type="line" smooth="yes"/>
      <point x="85.0" y="779.8364485981309"/>
      <point x="361.4252336448599" y="1081.032710280374"/>
      <point x="583.0" y="1081.032710280374" type="qcurve" smooth="yes"/>
      <point x="769.9158878504674" y="1081.032710280374"/>
      <point x="974.3691588785048" y="923.4205607476636"/>
      <point x="996.1682242990655" y="869.0093457943925" type="qcurve"/>
      <point x="1017.9672897196261" y="928.2242990654207"/>
      <point x="1233.6869158878505" y="1082.0"/>
      <point x="1413.780373831776" y="1082.0" type="qcurve" smooth="yes"/>
      <point x="1607.8130841121497" y="1082.0"/>
      <point x="1846.4532710280378" y="800.0"/>
      <point x="1846.4532710280378" y="560.0" type="qcurve" smooth="yes"/>
      <point x="1846.4532710280378" y="484.0000000000001" type="line"/>
      <point x="1018.481308411215" y="484.0000000000001" type="line"/>
      <point x="1018.481308411215" y="632.0000000000001" type="line"/>
      <point x="1645.4018691588788" y="632.0000000000001" type="line"/>
      <point x="1646.3691588785048" y="656.0000000000001" type="line"/>
      <point x="1645.4018691588788" y="770.0"/>
      <point x="1516.3691588785045" y="930.0000000000001"/>
      <point x="1394.369158878505" y="930.0000000000001" type="qcurve" smooth="yes"/>
      <point x="1246.3691588785048" y="930.0000000000001"/>
      <point x="1100.3691588785048" y="705.9672897196261"/>
      <point x="1100.3691588785048" y="542.0" type="qcurve" smooth="yes"/>
      <point x="1100.3691588785048" y="510.00000000000006" type="line" smooth="yes"/>
      <point x="1100.3691588785048" y="346.03271028037386"/>
      <point x="1248.1635514018692" y="122.0"/>
      <point x="1412.355140186916" y="122.0" type="qcurve" smooth="yes"/>
      <point x="1515.9859813084115" y="122.0"/>
      <point x="1672.8644859813087" y="210.0"/>
      <point x="1718.8785046728974" y="270.0" type="qcurve"/>
      <point x="1838.1915887850469" y="175.0" type="line"/>
      <point x="1786.8177570093458" y="100.0"/>
      <point x="1571.8317757009345" y="-30.000000000000004"/>
      <point x="1437.8598130841121" y="-30.000000000000004" type="qcurve" smooth="yes"/>
      <point x="1239.7149532710282" y="-30.000000000000004"/>
      <point x="1031.2429906542056" y="108.07009345794393"/>
      <point x="998.1682242990655" y="182.48130841121497" type="qcurve"/>
      <point x="964.7663551401869" y="108.67757009345794"/>
      <point x="760.2289719626168" y="-30.000000000000004"/>
    </contour>
    <contour>
      <point x="594.5747663551402" y="122.0" type="qcurve" smooth="yes"/>
      <point x="746.5747663551402" y="122.0"/>
      <point x="900.5747663551402" y="346.03271028037386"/>
      <point x="900.5747663551402" y="510.00000000000006" type="qcurve" smooth="yes"/>
      <point x="900.5747663551402" y="542.0" type="line" smooth="yes"/>
      <point x="900.5747663551402" y="705.9672897196261"/>
      <point x="746.5747663551402" y="930.0000000000001"/>
      <point x="594.5747663551402" y="930.0000000000001" type="qcurve" smooth="yes"/>
      <point x="442.5747663551402" y="930.0000000000001"/>
      <point x="288.57476635514024" y="705.0"/>
      <point x="288.57476635514024" y="542.0" type="qcurve" smooth="yes"/>
      <point x="288.57476635514024" y="510.00000000000006" type="line" smooth="yes"/>
      <point x="288.57476635514024" y="347.00000000000006"/>
      <point x="442.5747663551402" y="122.0"/>
    </contour>
  </outline>
</glyph>
<glyph name="Schwa" format="2">
  <advance width="1471"/>
  <unicode hex="018F"/>
  <outline>
    <contour>
      <point x="726.9532710280374" y="-30.000000000000004" type="qcurve" smooth="yes"/>
      <point x="437.03271028037386" y="-30.000000000000004"/>
      <point x="102.52336448598132" y="310.96728971962614"/>
      <point x="102.06542056074767" y="725.9345794392525" type="qcurve" smooth="yes"/>
      <point x="102.00000000000001" y="783.9672897196261" type="line"/>
      <point x="1247.266355140187" y="783.9672897196261" type="line"/>
      <point x="1247.266355140187" y="622.0" type="line"/>
      <point x="753.1028037383179" y="627.0000000000001" type="line"/>
      <point x="322.1028037383178" y="624.0000000000001" type="line"/>
      <point x="322.1028037383178" y="567.0000000000001" type="line" smooth="yes"/>
      <point x="322.1028037383178" y="353.00000000000006"/>
      <point x="547.1028037383178" y="129.00000000000003"/>
      <point x="734.1028037383178" y="129.00000000000003" type="qcurve" smooth="yes"/>
      <point x="924.1028037383179" y="129.00000000000003"/>
      <point x="1157.1028037383178" y="462.0000000000001"/>
      <point x="1155.1028037383178" y="749.0000000000001" type="qcurve" smooth="yes"/>
      <point x="1153.1028037383178" y="1056.0"/>
      <point x="902.1028037383178" y="1316.0000000000002"/>
      <point x="716.1028037383178" y="1316.0000000000002" type="qcurve" smooth="yes"/>
      <point x="540.1028037383178" y="1316.0000000000002"/>
      <point x="356.1028037383178" y="1125.0"/>
      <point x="330.10280373831773" y="984.0000000000001" type="qcurve" smooth="yes"/>
      <point x="327.1028037383178" y="968.0000000000002" type="line"/>
      <point x="116.16355140186917" y="968.0000000000002" type="line"/>
      <point x="118.16355140186916" y="982.032710280374" type="line" smooth="yes"/>
      <point x="151.0981308411215" y="1212.1308411214955"/>
      <point x="456.96728971962625" y="1489.032710280374"/>
      <point x="715.1495327102805" y="1489.032710280374" type="qcurve" smooth="yes"/>
      <point x="1002.855140186916" y="1489.032710280374"/>
      <point x="1355.8411214953271" y="1127.5420560747664"/>
      <point x="1355.8411214953271" y="759.0" type="qcurve" smooth="yes"/>
      <point x="1355.8411214953271" y="384.6542056074767"/>
      <point x="1028.8411214953271" y="-30.000000000000004"/>
    </contour>
  </outline>
</glyph>
<glyph name="florin" format="2">
  <advance width="1037"/>
  <unicode hex="0192"/>
  <outline>
    <contour>
      <point x="881.0841121495328" y="882.0" type="line"/>
      <point x="881.0841121495328" y="740.0" type="line"/>
      <point x="129.00000000000003" y="740.0" type="line"/>
      <point x="129.00000000000003" y="882.0" type="line"/>
    </contour>
    <contour>
      <point x="568.0841121495328" y="111.0" type="line" smooth="yes"/>
      <point x="568.0841121495328" y="-173.0"/>
      <point x="358.81308411214957" y="-437.00000000000006"/>
      <point x="109.50934579439253" y="-437.00000000000006" type="qcurve" smooth="yes"/>
      <point x="74.61682242990655" y="-437.00000000000006"/>
      <point x="19.065420560747665" y="-429.9345794392524"/>
      <point x="-9.000000000000002" y="-420.0" type="qcurve"/>
      <point x="5.000000000000001" y="-271.0" type="line"/>
      <point x="20.000000000000004" y="-277.0"/>
      <point x="89.00000000000001" y="-284.0"/>
      <point x="103.00000000000001" y="-284.0" type="qcurve" smooth="yes"/>
      <point x="224.0" y="-284.0"/>
      <point x="370.0" y="-122.0"/>
      <point x="370.0" y="111.0" type="qcurve" smooth="yes"/>
      <point x="370.0" y="1126.0" type="line" smooth="yes"/>
      <point x="370.0" y="1301.0"/>
      <point x="552.9626168224299" y="1487.0000000000002"/>
      <point x="714.8691588785048" y="1487.0000000000002" type="qcurve" smooth="yes"/>
      <point x="803.8130841121496" y="1487.0000000000002"/>
      <point x="935.5934579439253" y="1434.3598130841124"/>
      <point x="976.0841121495328" y="1404.0" type="qcurve"/>
      <point x="895.0841121495328" y="1259.0" type="line"/>
      <point x="856.0841121495328" y="1290.0"/>
      <point x="772.0841121495328" y="1320.0"/>
      <point x="725.0841121495329" y="1320.0" type="qcurve" smooth="yes"/>
      <point x="655.0841121495326" y="1320.0"/>
      <point x="568.0841121495328" y="1224.0"/>
      <point x="568.0841121495328" y="1126.0" type="qcurve" smooth="yes"/>
    </contour>
  </outline>
</glyph>
<glyph name="doubleprimemod" format="2">
  <advance width="814"/>
  <unicode hex="02BA"/>
  <outline>
    <contour>
      <point x="224.0" y="1502.0" type="line"/>
      <point x="426.0841121495327" y="1502.0" type="line"/>
      <point x="308.08411214953276" y="1000.2056074766356" type="line"/>
      <point x="173.0" y="1005.2056074766356" type="line"/>
    </contour>
    <contour>
      <point x="537.0841121495328" y="1502.0" type="line"/>
      <point x="739.1682242990654" y="1502.0" type="line"/>
      <point x="621.1682242990654" y="1000.2056074766356" type="line"/>
      <point x="486.08411214953276" y="1005.2056074766356" type="line"/>
    </contour>
  </outline>
</glyph>
<glyph name="gravecomb" format="2">
  <unicode hex="0300"/>
  <anchor x="0.0" y="1052.0" name="_top"/>
  <anchor x="0.0" y="1601.6495327102803" name="top"/>
  <outline>
    <contour>
      <point x="80.03874991240978" y="1213.1584600362673" type="line"/>
      <point x="-250.9971041200474" y="1483.2782677372647" type="line"/>
      <point x="-118.18309859154931" y="1604.4507700408058" type="line"/>
      <point x="184.83583432056517" y="1300.360626445239" type="line"/>
    </contour>
  </outline>
</glyph>
<glyph name="circumflexcomb" format="2">
  <unicode hex="0302"/>
  <anchor x="0.0" y="1052.0" name="_top"/>
  <anchor x="0.0" y="1534.9953271028037" name="top"/>
  <outline>
    <contour>
      <point x="57.96261682242991" y="1535.0280373831774" type="line"/>
      <point x="303.00000000000006" y="1220.0" type="line"/>
      <point x="150.00000000000003" y="1220.0" type="line"/>
      <point x="0.0" y="1379.0000000000002" type="line"/>
      <point x="-150.00000000000003" y="1220.0" type="line"/>
      <point x="-303.09813084112153" y="1220.0" type="line"/>
      <point x="-57.63551401869159" y="1535.0280373831774" type="line"/>
    </contour>
  </outline>
</glyph>
<glyph name="dieresiscomb" format="2">
  <unicode hex="0308"/>
  <anchor x="0.0" y="1052.0" name="_GRK_top"/>
  <anchor x="0.0" y="1052.0" name="_top"/>
  <anchor x="0.0" y="1434.532710280374" name="top"/>
  <outline>
    <contour>
      <point x="-327.2897196261682" y="1320.8971962616822" type="qcurve" smooth="yes"/>
      <point x="-327.2897196261682" y="1366.7149532710282"/>
      <point x="-270.3084112149533" y="1429.8598130841121"/>
      <point x="-216.3271028037383" y="1429.8598130841121" type="qcurve" smooth="yes"/>
      <point x="-161.34579439252337" y="1429.8598130841121"/>
      <point x="-104.29906542056075" y="1366.7149532710282"/>
      <point x="-104.29906542056075" y="1320.8971962616822" type="qcurve" smooth="yes"/>
      <point x="-104.29906542056075" y="1277.1121495327104"/>
      <point x="-161.34579439252337" y="1215.0000000000002"/>
      <point x="-216.3271028037383" y="1215.0000000000002" type="qcurve" smooth="yes"/>
      <point x="-270.3084112149533" y="1215.0000000000002"/>
      <point x="-327.2897196261682" y="1277.1121495327104"/>
    </contour>
    <contour>
      <point x="104.29906542056075" y="1320.8971962616822" type="qcurve" smooth="yes"/>
      <point x="104.29906542056075" y="1366.7149532710282"/>
      <point x="160.31308411214954" y="1429.8598130841121"/>
      <point x="215.32710280373834" y="1429.8598130841121" type="qcurve" smooth="yes"/>
      <point x="269.3084112149533" y="1429.8598130841121"/>
      <point x="327.2897196261682" y="1366.7149532710282"/>
      <point x="327.2897196261682" y="1320.8971962616822" type="qcurve" smooth="yes"/>
      <point x="327.2897196261682" y="1277.1121495327104"/>
      <point x="269.3084112149533" y="1215.0000000000002"/>
      <point x="215.32710280373834" y="1215.0000000000002" type="qcurve" smooth="yes"/>
      <point x="160.31308411214954" y="1215.0000000000002"/>
      <point x="104.29906542056075" y="1277.1121495327104"/>
    </contour>
  </outline>
</glyph>
<glyph name="hookabovecomb" format="2">
  <unicode hex="0309"/>
  <anchor x="0.0" y="1052.0" name="_top"/>
  <anchor x="0.0" y="1693.602803738318" name="top"/>
  <outline>
    <contour>
      <point x="-70.0" y="1220.0" type="line"/>
      <point x="-70.0" y="1259.0" type="line" smooth="yes"/>
      <point x="-70.0" y="1311.0000000000002"/>
      <point x="-11.163551401869158" y="1380.9018691588788"/>
      <point x="47.0" y="1392.0" type="qcurve" smooth="yes"/>
      <point x="102.21495327102805" y="1402.8691588785048"/>
      <point x="141.69158878504675" y="1431.6728971962616"/>
      <point x="141.69158878504675" y="1472.1168224299065" type="qcurve" smooth="yes"/>
      <point x="141.69158878504675" y="1510.4299065420564"/>
      <point x="71.37850467289721" y="1546.3644859813085"/>
      <point x="18.000000000000004" y="1546.3644859813085" type="qcurve" smooth="yes"/>
      <point x="-46.00000000000001" y="1546.3644859813085"/>
      <point x="-145.0" y="1512.3644859813085"/>
      <point x="-168.0" y="1497.3644859813085" type="qcurve"/>
      <point x="-223.76635514018693" y="1632.8504672897197" type="line"/>
      <point x="-172.37383177570095" y="1658.2102803738317"/>
      <point x="-51.65420560747664" y="1693.6355140186918"/>
      <point x="49.00000000000001" y="1693.6355140186918" type="qcurve" smooth="yes"/>
      <point x="169.00000000000003" y="1693.6355140186918"/>
      <point x="307.6355140186916" y="1579.6355140186918"/>
      <point x="307.6355140186916" y="1482.0000000000002" type="qcurve" smooth="yes"/>
      <point x="307.6355140186916" y="1381.0000000000002"/>
      <point x="184.00000000000003" y="1261.0"/>
      <point x="70.0" y="1251.0000000000002" type="qcurve"/>
      <point x="70.0" y="1220.0" type="line"/>
    </contour>
  </outline>
</glyph>
<glyph name="horncomb" format="2">
  <unicode hex="031B"/>
  <anchor x="0.0" y="1052.0" name="_topright"/>
  <anchor x="0.0" y="1293.0000000000002" name="topright"/>
  <outline>
    <contour>
      <point x="0.0" y="1052.0" type="line"/>
      <point x="84.0" y="1052.0" type="line" smooth="yes"/>
      <point x="132.0" y="1052.0"/>
      <point x="204.00000000000003" y="1086.0000000000002"/>
      <point x="204.00000000000003" y="1138.0" type="qcurve" smooth="yes"/>
      <point x="204.00000000000003" y="1184.0"/>
      <point x="191.0" y="1257.0000000000002"/>
      <point x="181.00000000000003" y="1293.0000000000002" type="qcurve"/>
      <point x="333.5420560747664" y="1293.0000000000002" type="line"/>
      <point x="353.5420560747664" y="1260.0"/>
      <point x="386.5420560747664" y="1157.0"/>
      <point x="386.5420560747664" y="1093.0000000000002" type="qcurve" smooth="yes"/>
      <point x="386.5420560747664" y="1005.0000000000002"/>
      <point x="246.54205607476638" y="920.0000000000001"/>
      <point x="147.1728971962617" y="920.0000000000001" type="qcurve" smooth="yes"/>
      <point x="98.00000000000001" y="920.0000000000001"/>
      <point x="26.0" y="932.0"/>
      <point x="0.0" y="941.0" type="qcurve"/>
    </contour>
  </outline>
</glyph>
<glyph name="commaaccentcomb" format="2">
  <unicode hex="0326"/>
  <anchor x="0.0" y="0.0" name="_bottom"/>
  <anchor x="0.0" y="-600.0000000000001" name="bottom"/>
  <outline>
    <contour>
      <point x="-157.13084112149534" y="-597.0" type="line"/>
      <point x="-71.28971962616824" y="-223.20093457943926" type="line"/>
      <point x="135.94392523364485" y="-221.20093457943926" type="line"/>
      <point x="6.065420560747664" y="-600.0000000000001" type="line"/>
    </contour>
  </outline>
</glyph>
<glyph name="Gamma" format="2">
  <advance width="1091"/>
  <unicode hex="0393"/>
  <anchor x="639.2289719626169" y="1456.0" name="top"/>
  <anchor x="328.8177570093458" y="708.0000000000001" name="center"/>
  <outline>
    <contour>
      <point x="170.0" y="0.0" type="line"/>
      <point x="170.0" y="1456.0" type="line"/>
      <point x="1065.8691588785048" y="1456.0" type="line"/>
      <point x="1065.8691588785048" y="1298.0000000000002" type="line"/>
      <point x="376.03271028037386" y="1298.0000000000002" type="line"/>
      <point x="376.03271028037386" y="0.0" type="line"/>
    </contour>
  </outline>
</glyph>
<glyph name="Delta" format="2">
  <advance width="1309"/>
  <unicode hex="0394"/>
  <outline>
    <contour>
      <point x="29.0" y="0.0" type="line"/>
      <point x="29.0" y="107.00000000000001" type="line"/>
      <point x="561.0" y="1466.0" type="line"/>
      <point x="748.373831775701" y="1466.0" type="line"/>
      <point x="1281.373831775701" y="107.00000000000001" type="line"/>
      <point x="1281.373831775701" y="0.0" type="line"/>
    </contour>
    <contour>
      <point x="240.00000000000003" y="158.00000000000003" type="line"/>
      <point x="1047.0" y="158.00000000000003" type="line"/>
      <point x="687.0" y="1100.0" type="line" smooth="yes"/>
      <point x="674.0" y="1133.0000000000002"/>
      <point x="657.0" y="1195.0"/>
      <point x="650.0" y="1228.0" type="qcurve"/>
      <point x="640.0000000000001" y="1228.0" type="line"/>
      <point x="633.0" y="1195.0"/>
      <point x="615.0" y="1133.0000000000002"/>
      <point x="603.0" y="1100.0" type="qcurve" smooth="yes"/>
    </contour>
  </outline>
</glyph>
<glyph name="Sigma" format="2">
  <advance width="1206"/>
  <unicode hex="03A3"/>
  <outline>
    <contour>
      <point x="65.0" y="0.0" type="line"/>
      <point x="65.0" y="121.00000000000003" type="line"/>
      <point x="570.0000000000001" y="748.0000000000001" type="line"/>
      <point x="570.0000000000001" y="702.0" type="line"/>
      <point x="77.0" y="1304.0000000000002" type="line"/>
      <point x="77.0" y="1456.0" type="line"/>
      <point x="1108.3224299065423" y="1456.0" type="line"/>
      <point x="1108.3224299065423" y="1299.0" type="line"/>
      <point x="312.68224299065423" y="1299.0" type="line"/>
      <point x="323.35514018691595" y="1322.0000000000002" type="line"/>
      <point x="792.3551401869161" y="756.0" type="line"/>
      <point x="792.3551401869161" y="716.0" type="line"/>
      <point x="325.3551401869159" y="135.0" type="line"/>
      <point x="314.68224299065423" y="158.00000000000003" type="line"/>
      <point x="1140.322429906542" y="158.00000000000003" type="line"/>
      <point x="1140.322429906542" y="0.0" type="line"/>
    </contour>
  </outline>
</glyph>
<glyph name="Phi" format="2">
  <advance width="1787"/>
  <unicode hex="03A6"/>
  <outline>
    <contour>
      <point x="794.0654205607477" y="-20.000000000000004" type="line"/>
      <point x="794.0654205607477" y="242.00000000000006" type="line"/>
      <point x="794.0654205607477" y="285.00000000000006" type="line"/>
      <point x="794.0654205607477" y="1192.0" type="line"/>
      <point x="794.0654205607477" y="1228.0" type="line"/>
      <point x="794.0654205607477" y="1476.0000000000002" type="line"/>
      <point x="992.803738317757" y="1476.0000000000002" type="line"/>
      <point x="992.803738317757" y="1230.0" type="line"/>
      <point x="992.803738317757" y="1193.0000000000002" type="line"/>
      <point x="992.803738317757" y="283.0" type="line"/>
      <point x="992.803738317757" y="240.00000000000003" type="line"/>
      <point x="992.803738317757" y="-20.000000000000004" type="line"/>
    </contour>
    <contour>
      <point x="764.4299065420561" y="194.00000000000006" type="line" smooth="yes"/>
      <point x="438.7616822429907" y="194.00000000000006"/>
      <point x="105.0" y="486.00000000000006"/>
      <point x="105.0" y="739.0000000000001" type="qcurve" smooth="yes"/>
      <point x="105.0" y="992.0000000000001"/>
      <point x="438.7616822429907" y="1283.0000000000002"/>
      <point x="764.4299065420561" y="1283.0000000000002" type="qcurve" smooth="yes"/>
      <point x="1022.4392523364487" y="1283.0000000000002" type="line" smooth="yes"/>
      <point x="1348.1074766355143" y="1283.0000000000002"/>
      <point x="1681.8364485981308" y="991.0000000000001"/>
      <point x="1681.8364485981308" y="738.0000000000001" type="qcurve" smooth="yes"/>
      <point x="1681.8364485981308" y="485.0"/>
      <point x="1348.1074766355143" y="194.00000000000006"/>
      <point x="1022.4392523364487" y="194.00000000000006" type="qcurve" smooth="yes"/>
    </contour>
    <contour>
      <point x="766.0654205607477" y="345.0" type="qcurve" smooth="yes"/>
      <point x="1020.803738317757" y="345.0" type="line" smooth="yes"/>
      <point x="1271.8037383177568" y="345.0"/>
      <point x="1482.803738317757" y="545.0"/>
      <point x="1482.803738317757" y="736.0000000000001" type="qcurve" smooth="yes"/>
      <point x="1482.803738317757" y="925.0000000000001"/>
      <point x="1271.8037383177568" y="1132.0"/>
      <point x="1020.803738317757" y="1132.0" type="qcurve" smooth="yes"/>
      <point x="766.0654205607477" y="1132.0" type="line" smooth="yes"/>
      <point x="515.0654205607477" y="1132.0"/>
      <point x="304.06542056074767" y="932.0"/>
      <point x="304.06542056074767" y="741.0000000000001" type="qcurve" smooth="yes"/>
      <point x="304.06542056074767" y="552.0000000000001"/>
      <point x="515.0654205607477" y="345.0"/>
    </contour>
  </outline>
</glyph>
<glyph name="beta" format="2">
  <advance width="1217"/>
  <unicode hex="03B2"/>
  <outline>
    <contour>
      <point x="148.0" y="-416.0" type="line"/>
      <point x="148.0" y="1051.588785046729" type="line" smooth="yes"/>
      <point x="148.0" y="1308.514018691589"/>
      <point x="403.4439252336449" y="1556.0"/>
      <point x="609.8504672897196" y="1556.0" type="qcurve" smooth="yes"/>
      <point x="820.5373831775702" y="1556.0"/>
      <point x="1040.5280373831777" y="1350.0"/>
      <point x="1040.5280373831777" y="1155.0" type="qcurve"/>
      <point x="1040.5280373831777" y="1026.0000000000002"/>
      <point x="899.2196261682244" y="859.0000000000001"/>
      <point x="795.2196261682243" y="834.0" type="qcurve"/>
      <point x="795.2196261682243" y="850.0000000000001" type="line"/>
      <point x="948.2196261682244" y="830.0000000000001"/>
      <point x="1131.5280373831777" y="630.0"/>
      <point x="1131.5280373831777" y="463.00000000000006" type="qcurve" smooth="yes"/>
      <point x="1131.5280373831777" y="243.00000000000003"/>
      <point x="860.9719626168223" y="-21.0"/>
      <point x="667.2943925233645" y="-21.0" type="qcurve" smooth="yes"/>
      <point x="514.0607476635514" y="-21.0"/>
      <point x="304.81308411214957" y="147.6869158878505"/>
      <point x="246.17757009345797" y="254.75233644859816" type="qcurve"/>
      <point x="246.17757009345797" y="491.75233644859816" type="line"/>
      <point x="321.1214953271029" y="309.06542056074767"/>
      <point x="502.0654205607476" y="132.0"/>
      <point x="646.0841121495328" y="132.0" type="qcurve" smooth="yes"/>
      <point x="781.0841121495328" y="132.0"/>
      <point x="929.0841121495328" y="316.00000000000006"/>
      <point x="929.0841121495328" y="462.0000000000001" type="qcurve" smooth="yes"/>
      <point x="929.0841121495328" y="610.7196261682243"/>
      <point x="775.2009345794393" y="765.0000000000001"/>
      <point x="583.0841121495328" y="765.0000000000001" type="qcurve" smooth="yes"/>
      <point x="485.0841121495327" y="765.0000000000001" type="line"/>
      <point x="485.0841121495327" y="907.0" type="line"/>
      <point x="584.0841121495328" y="907.0" type="line" smooth="yes"/>
      <point x="726.0841121495326" y="907.0"/>
      <point x="852.0841121495328" y="1037.0"/>
      <point x="852.0841121495328" y="1156.0000000000002" type="qcurve" smooth="yes"/>
      <point x="852.0841121495328" y="1269.0000000000002"/>
      <point x="742.0841121495328" y="1404.0"/>
      <point x="608.0841121495328" y="1404.0" type="qcurve" smooth="yes"/>
      <point x="475.0841121495328" y="1404.0"/>
      <point x="347.08411214953276" y="1236.0000000000002"/>
      <point x="347.08411214953276" y="1065.0" type="qcurve" smooth="yes"/>
      <point x="347.08411214953276" y="-416.0" type="line"/>
    </contour>
  </outline>
</glyph>
<glyph name="delta" format="2">
  <advance width="1168"/>
  <unicode hex="03B4"/>
  <outline>
    <contour>
      <point x="574.0841121495328" y="-30.000000000000004" type="qcurve" smooth="yes"/>
      <point x="344.85046728971963" y="-30.000000000000004"/>
      <point x="85.0" y="231.00000000000006"/>
      <point x="85.0" y="439.0" type="qcurve" smooth="yes"/>
      <point x="85.0" y="469.00000000000006" type="line" smooth="yes"/>
      <point x="85.0" y="679.0"/>
      <point x="358.7476635514019" y="961.7056074766355"/>
      <point x="577.0841121495328" y="984.0000000000001" type="qcurve"/>
      <point x="719.0841121495326" y="910.0000000000001" type="line"/>
      <point x="507.0841121495327" y="900.0"/>
      <point x="287.0841121495327" y="674.0"/>
      <point x="287.0841121495327" y="492.00000000000006" type="qcurve" smooth="yes"/>
      <point x="287.0841121495327" y="472.0" type="line" smooth="yes"/>
      <point x="287.0841121495327" y="310.00000000000006"/>
      <point x="429.08411214953276" y="124.00000000000001"/>
      <point x="575.0841121495328" y="122.0" type="qcurve"/>
      <point x="718.0841121495328" y="121.00000000000003"/>
      <point x="881.0841121495328" y="318.0"/>
      <point x="881.0841121495328" y="482.00000000000006" type="qcurve" smooth="yes"/>
      <point x="881.0841121495328" y="501.0" type="line" smooth="yes"/>
      <point x="881.0841121495328" y="619.1308411214953"/>
      <point x="767.6261682242991" y="826.2102803738318"/>
      <point x="595.285046728972" y="900.6869158878505" type="qcurve" smooth="yes"/>
      <point x="428.35981308411215" y="972.9158878504674"/>
      <point x="270.0" y="1142.2943925233646"/>
      <point x="270.0" y="1247.014018691589" type="qcurve" smooth="yes"/>
      <point x="270.0" y="1385.6214953271028"/>
      <point x="485.3504672897196" y="1556.0"/>
      <point x="680.4579439252337" y="1556.0" type="qcurve" smooth="yes"/>
      <point x="783.2710280373832" y="1556.0"/>
      <point x="931.0841121495329" y="1517.9018691588785"/>
      <point x="992.0841121495328" y="1487.0000000000002" type="qcurve"/>
      <point x="961.0841121495329" y="1333.0" type="line"/>
      <point x="875.0841121495329" y="1374.0"/>
      <point x="741.4953271028038" y="1404.0"/>
      <point x="685.1682242990655" y="1404.0" type="qcurve" smooth="yes"/>
      <point x="577.6588785046729" y="1404.0"/>
      <point x="467.11682242990656" y="1314.1308411214955"/>
      <point x="467.0841121495327" y="1250.9018691588788" type="qcurve" smooth="yes"/>
      <point x="467.0514018691589" y="1195.5420560747664"/>
      <point x="535.0981308411215" y="1106.822429906542"/>
      <point x="684.4766355140188" y="1028.8364485981308" type="qcurve" smooth="yes"/>
      <point x="921.518691588785" y="905.9345794392524"/>
      <point x="1083.1682242990655" y="644.5233644859813"/>
      <point x="1083.1682242990655" y="495.00000000000006" type="qcurve" smooth="yes"/>
      <point x="1083.1682242990655" y="466.0" type="line" smooth="yes"/>
      <point x="1083.1682242990655" y="229.00000000000003"/>
      <point x="791.7102803738318" y="-30.000000000000004"/>
    </contour>
  </outline>
</glyph>
<glyph name="epsilon" format="2">
  <advance width="1104"/>
  <unicode hex="03B5"/>
  <anchor x="586.0841121495328" y="1052.0" name="top"/>
  <outline>
    <contour>
      <point x="555.5280373831777" y="-30.000000000000004" type="qcurve"/>
      <point x="334.03271028037386" y="-30.000000000000004"/>
      <point x="98.67289719626169" y="133.0"/>
      <point x="98.67289719626169" y="286.00000000000006" type="qcurve" smooth="yes"/>
      <point x="98.67289719626169" y="380.88317757009344"/>
      <point x="238.8691588785047" y="523.9018691588785"/>
      <point x="385.81308411214957" y="536.0" type="qcurve"/>
      <point x="385.81308411214957" y="514.0" type="line"/>
      <point x="267.5934579439252" y="530.9345794392524"/>
      <point x="137.6728971962617" y="658.0000000000001"/>
      <point x="137.6728971962617" y="756.5560747663551" type="qcurve" smooth="yes"/>
      <point x="137.6728971962617" y="906.0"/>
      <point x="370.3598130841122" y="1081.0"/>
      <point x="585.2009345794393" y="1081.0" type="qcurve" smooth="yes"/>
      <point x="813.5981308411215" y="1081.0"/>
      <point x="1040.1682242990655" y="858.3271028037384"/>
      <point x="1040.1682242990655" y="710.0000000000001" type="qcurve"/>
      <point x="847.0841121495328" y="710.0000000000001" type="line"/>
      <point x="847.0841121495328" y="801.0"/>
      <point x="729.0841121495326" y="930.0000000000001"/>
      <point x="586.0841121495328" y="930.0000000000001" type="qcurve" smooth="yes"/>
      <point x="465.08411214953276" y="930.0000000000001"/>
      <point x="340.08411214953276" y="845.0000000000001"/>
      <point x="340.08411214953276" y="755.0" type="qcurve" smooth="yes"/>
      <point x="340.08411214953276" y="674.0"/>
      <point x="437.0841121495327" y="597.0"/>
      <point x="522.0841121495328" y="597.0" type="qcurve" smooth="yes"/>
      <point x="732.0841121495328" y="597.0" type="line"/>
      <point x="732.0841121495328" y="455.00000000000006" type="line"/>
      <point x="522.0841121495328" y="455.00000000000006" type="line" smooth="yes"/>
      <point x="403.08411214953276" y="455.00000000000006"/>
      <point x="302.08411214953276" y="365.0"/>
      <point x="302.08411214953276" y="296.0" type="qcurve" smooth="yes"/>
      <point x="302.08411214953276" y="212.00000000000003"/>
      <point x="423.0841121495327" y="122.0"/>
      <point x="565.7897196261682" y="122.0" type="qcurve"/>
      <point x="700.0841121495326" y="122.0"/>
      <point x="846.0841121495329" y="245.00000000000003"/>
      <point x="846.0841121495329" y="342.00000000000006" type="qcurve"/>
      <point x="1039.1682242990655" y="342.00000000000006" type="line"/>
      <point x="1039.1682242990655" y="190.6728971962617"/>
      <point x="778.6775700934579" y="-30.000000000000004"/>
    </contour>
  </outline>
</glyph>
<glyph name="theta" format="2">
  <advance width="1169"/>
  <unicode hex="03B8"/>
  <outline>
    <contour>
      <point x="586.1822429906542" y="-30.000000000000004" type="qcurve" smooth="yes"/>
      <point x="361.1308411214954" y="-30.000000000000004"/>
      <point x="95.0" y="287.0093457943925"/>
      <point x="95.0" y="657.0093457943926" type="qcurve"/>
      <point x="95.0" y="879.0560747663551" type="line"/>
      <point x="95.0" y="1238.9906542056074"/>
      <point x="359.09813084112153" y="1556.0"/>
      <point x="584.1168224299066" y="1556.0" type="qcurve" smooth="yes"/>
      <point x="811.2336448598131" y="1556.0"/>
      <point x="1074.2990654205607" y="1238.9906542056074"/>
      <point x="1074.2990654205607" y="879.0560747663551" type="qcurve"/>
      <point x="1074.2990654205607" y="657.0093457943926" type="line"/>
      <point x="1074.2990654205607" y="287.0093457943925"/>
      <point x="813.266355140187" y="-30.000000000000004"/>
    </contour>
    <contour>
      <point x="587.1495327102804" y="122.0" type="qcurve" smooth="yes"/>
      <point x="722.1495327102805" y="122.0"/>
      <point x="870.1495327102805" y="352.0"/>
      <point x="870.1495327102805" y="614.0" type="qcurve"/>
      <point x="870.1495327102805" y="916.0000000000001" type="line" smooth="yes"/>
      <point x="870.1495327102805" y="1178.0"/>
      <point x="719.1495327102804" y="1404.0"/>
      <point x="585.1495327102805" y="1404.0" type="qcurve" smooth="yes"/>
      <point x="453.1495327102804" y="1404.0"/>
      <point x="299.1495327102804" y="1178.0"/>
      <point x="299.1495327102804" y="916.0000000000001" type="qcurve" smooth="yes"/>
      <point x="299.1495327102804" y="614.0" type="line" smooth="yes"/>
      <point x="299.1495327102804" y="352.0"/>
      <point x="455.1495327102804" y="122.0"/>
    </contour>
    <contour>
      <point x="196.60747663551402" y="683.0000000000001" type="line"/>
      <point x="196.60747663551402" y="825.0" type="line"/>
      <point x="972.6915887850469" y="825.0" type="line"/>
      <point x="972.6915887850469" y="683.0000000000001" type="line"/>
    </contour>
  </outline>
</glyph>
<glyph name="iota" format="2">
  <advance width="613"/>
  <unicode hex="03B9"/>
  <anchor x="241.7710280373832" y="1052.0" name="top"/>
  <outline>
    <contour>
      <point x="394.97196261682245" y="-30.000000000000004" type="qcurve" smooth="yes"/>
      <point x="278.0093457943925" y="-30.000000000000004"/>
      <point x="138.00000000000003" y="111.57009345794393"/>
      <point x="138.00000000000003" y="261.96261682242994" type="qcurve" smooth="yes"/>
      <point x="138.00000000000003" y="1052.0" type="line"/>
      <point x="337.08411214953276" y="1052.0" type="line"/>
      <point x="337.08411214953276" y="260.0" type="line" smooth="yes"/>
      <point x="337.08411214953276" y="190.0"/>
      <point x="393.0841121495327" y="130.0"/>
      <point x="453.08411214953276" y="130.0" type="qcurve" smooth="yes"/>
      <point x="481.0841121495327" y="130.0"/>
      <point x="535.0841121495328" y="142.0"/>
      <point x="563.0841121495328" y="152.0" type="qcurve"/>
      <point x="563.0841121495328" y="0.0" type="line"/>
      <point x="537.0841121495328" y="-12.000000000000002"/>
      <point x="448.9299065420561" y="-30.000000000000004"/>
    </contour>
  </outline>
</glyph>
<glyph name="kappa" format="2">
  <advance width="1069"/>
  <unicode hex="03BA"/>
  <outline>
    <contour>
      <point x="843.0841121495329" y="0.0" type="line"/>
      <point x="424.0841121495327" y="477.00000000000006" type="line"/>
      <point x="548.2570093457945" y="606.1728971962617" type="line"/>
      <point x="1084.1682242990655" y="0.0" type="line"/>
    </contour>
    <contour>
      <point x="247.54205607476638" y="610.0" type="line"/>
      <point x="440.2803738317757" y="610.0" type="line"/>
      <point x="825.2803738317758" y="1052.0" type="line"/>
      <point x="1043.280373831776" y="1052.0" type="line"/>
      <point x="528.2803738317757" y="465.00000000000006" type="line"/>
      <point x="247.54205607476638" y="465.00000000000006" type="line"/>
    </contour>
    <contour>
      <point x="347.08411214953276" y="1052.0" type="line"/>
      <point x="347.08411214953276" y="0.0" type="line"/>
      <point x="148.0" y="0.0" type="line"/>
      <point x="148.0" y="1052.0" type="line"/>
    </contour>
  </outline>
</glyph>
<glyph name="lambda" format="2">
  <advance width="974"/>
  <unicode hex="03BB"/>
  <outline>
    <contour>
      <point x="0.0" y="0.0" type="line"/>
      <point x="403.00000000000006" y="1048.0" type="line"/>
      <point x="381.00000000000006" y="1110.0" type="line" smooth="yes"/>
      <point x="323.00000000000006" y="1277.0"/>
      <point x="237.00000000000003" y="1396.0000000000002"/>
      <point x="159.0" y="1396.0000000000002" type="qcurve" smooth="yes"/>
      <point x="133.0" y="1396.0000000000002"/>
      <point x="66.0" y="1389.0"/>
      <point x="40.00000000000001" y="1381.0000000000002" type="qcurve"/>
      <point x="40.00000000000001" y="1536.0000000000002" type="line"/>
      <point x="68.0" y="1546.0"/>
      <point x="138.0467289719626" y="1556.0"/>
      <point x="178.54205607476638" y="1556.0" type="qcurve" smooth="yes"/>
      <point x="305.1261682242991" y="1556.0"/>
      <point x="457.19626168224306" y="1412.004672897196"/>
      <point x="516.7196261682244" y="1248.4672897196263" type="qcurve" smooth="yes"/>
      <point x="974.0841121495326" y="0.0" type="line"/>
      <point x="761.0" y="0.0" type="line"/>
      <point x="539.0" y="637.0" type="line" smooth="yes"/>
      <point x="519.0000000000001" y="692.9999999999999"/>
      <point x="503.0" y="757.0"/>
      <point x="491.00000000000006" y="808.0" type="qcurve"/>
      <point x="485.0" y="808.0" type="line"/>
      <point x="474.00000000000006" y="759.0"/>
      <point x="452.00000000000006" y="679.0"/>
      <point x="436.00000000000006" y="637.0" type="qcurve" smooth="yes"/>
      <point x="200.0" y="0.0" type="line"/>
    </contour>
  </outline>
</glyph>
<glyph name="pi" format="2">
  <advance width="1210"/>
  <unicode hex="03C0"/>
  <outline>
    <contour>
      <point x="0.0" y="900.0" type="line"/>
      <point x="0.0" y="1052.0" type="line"/>
      <point x="1160.1682242990655" y="1052.0" type="line"/>
      <point x="1160.1682242990655" y="900.0" type="line"/>
    </contour>
    <contour>
      <point x="166.00000000000003" y="0.0" type="line"/>
      <point x="166.00000000000003" y="971.0" type="line"/>
      <point x="365.0841121495327" y="971.0" type="line"/>
      <point x="365.0841121495327" y="0.0" type="line"/>
    </contour>
    <contour>
      <point x="1035.6261682242991" y="-30.000000000000004" type="qcurve" smooth="yes"/>
      <point x="918.5981308411216" y="-30.000000000000004"/>
      <point x="794.0841121495328" y="91.15887850467291"/>
      <point x="794.0841121495328" y="243.72897196261684" type="qcurve"/>
      <point x="794.0841121495328" y="971.0" type="line"/>
      <point x="993.1682242990655" y="971.0" type="line"/>
      <point x="993.1682242990655" y="279.0" type="line"/>
      <point x="993.1682242990655" y="196.00000000000003"/>
      <point x="1034.1682242990655" y="130.0"/>
      <point x="1090.1682242990655" y="130.0" type="qcurve"/>
      <point x="1104.1682242990655" y="130.0"/>
      <point x="1146.1682242990655" y="139.00000000000003"/>
      <point x="1157.1682242990655" y="144.00000000000003" type="qcurve"/>
      <point x="1157.1682242990655" y="-8.0" type="line"/>
      <point x="1137.8598130841121" y="-17.13084112149533"/>
      <point x="1075.785046728972" y="-30.000000000000004"/>
    </contour>
  </outline>
</glyph>
<glyph name="rho" format="2">
  <advance width="1196"/>
  <unicode hex="03C1"/>
  <outline>
    <contour>
      <point x="147.90186915887853" y="-416.0" type="line"/>
      <point x="147.90186915887853" y="538.9392523364486" type="line" smooth="yes"/>
      <point x="147.90186915887853" y="788.2616822429907"/>
      <point x="404.0514018691589" y="1072.0"/>
      <point x="627.9859813084112" y="1072.0" type="qcurve" smooth="yes"/>
      <point x="874.5280373831775" y="1072.0"/>
      <point x="1111.0700934579443" y="782.0000000000001"/>
      <point x="1111.0700934579443" y="552.0000000000001" type="qcurve" smooth="yes"/>
      <point x="1111.0700934579443" y="520.0" type="line" smooth="yes"/>
      <point x="1111.0700934579443" y="290.0"/>
      <point x="864.5280373831777" y="-20.000000000000004"/>
      <point x="661.7803738317757" y="-20.000000000000004" type="qcurve" smooth="yes"/>
      <point x="519.9859813084113" y="-20.000000000000004"/>
      <point x="337.1401869158879" y="107.07943925233646"/>
      <point x="250.7990654205608" y="263.0" type="qcurve"/>
      <point x="250.7990654205608" y="512.6355140186917" type="line"/>
      <point x="318.8457943925234" y="319.84579439252343"/>
      <point x="492.16822429906546" y="132.0"/>
      <point x="617.9859813084113" y="132.0" type="qcurve" smooth="yes"/>
      <point x="767.9859813084113" y="132.0"/>
      <point x="907.9859813084113" y="360.00000000000006"/>
      <point x="907.9859813084113" y="520.0" type="qcurve" smooth="yes"/>
      <point x="907.9859813084113" y="552.0000000000001" type="line" smooth="yes"/>
      <point x="907.9859813084113" y="712.0000000000001"/>
      <point x="777.9859813084113" y="920.0000000000001"/>
      <point x="627.9859813084112" y="920.0000000000001" type="qcurve" smooth="yes"/>
      <point x="507.9859813084112" y="920.0000000000001"/>
      <point x="346.9859813084113" y="750.0000000000001"/>
      <point x="346.9859813084113" y="546.0000000000001" type="qcurve" smooth="yes"/>
      <point x="346.9859813084113" y="-416.0" type="line"/>
    </contour>
  </outline>
</glyph>
<glyph name="finalsigma" format="2">
  <advance width="1073"/>
  <unicode hex="03C2"/>
  <outline>
    <contour>
      <point x="652.0841121495328" y="-348.0" type="line"/>
      <point x="675.3130841121496" y="-295.03271028037386"/>
      <point x="706.0841121495326" y="-196.30841121495328"/>
      <point x="706.0841121495326" y="-144.96261682242994" type="qcurve"/>
      <point x="706.0841121495326" y="-85.96261682242991"/>
      <point x="644.1355140186917" y="-30.38785046728972"/>
      <point x="558.5981308411215" y="-11.02803738317757" type="qcurve" smooth="yes"/>
      <point x="508.99532710280374" y="0.3317757009345797" type="line" smooth="yes"/>
      <point x="307.4065420560748" y="46.462616822429915"/>
      <point x="85.0" y="287.0"/>
      <point x="85.0" y="505.00000000000006" type="qcurve" smooth="yes"/>
      <point x="85.0" y="542.0" type="line" smooth="yes"/>
      <point x="85.0" y="772.0"/>
      <point x="349.32710280373834" y="1082.0"/>
      <point x="594.0841121495328" y="1082.0" type="qcurve" smooth="yes"/>
      <point x="815.6261682242991" y="1082.0"/>
      <point x="1023.5327102803739" y="851.0"/>
      <point x="1023.5327102803739" y="715.0" type="qcurve" smooth="yes"/>
      <point x="1023.5327102803739" y="710.0000000000001" type="line"/>
      <point x="832.0841121495329" y="710.0000000000001" type="line"/>
      <point x="832.0841121495329" y="715.0" type="line" smooth="yes"/>
      <point x="832.0841121495329" y="800.0"/>
      <point x="713.7897196261682" y="930.032710280374"/>
      <point x="593.7897196261683" y="930.032710280374" type="qcurve"/>
      <point x="447.7897196261682" y="930.032710280374"/>
      <point x="288.08411214953276" y="731.6542056074766"/>
      <point x="288.08411214953276" y="553.6355140186917" type="qcurve" smooth="yes"/>
      <point x="288.08411214953276" y="514.6355140186917" type="line" smooth="yes"/>
      <point x="288.08411214953276" y="367.5981308411215"/>
      <point x="412.08411214953276" y="204.2336448598131"/>
      <point x="572.0841121495328" y="167.2336448598131" type="qcurve" smooth="yes"/>
      <point x="624.0841121495328" y="155.2336448598131" type="line" smooth="yes"/>
      <point x="780.0841121495328" y="119.23364485981311"/>
      <point x="885.3925233644861" y="9.565420560747665"/>
      <point x="885.3925233644861" y="-82.03738317757009" type="qcurve"/>
      <point x="885.3925233644861" y="-145.0373831775701"/>
      <point x="854.3457943925233" y="-277.9018691588785"/>
      <point x="822.0841121495328" y="-348.0" type="qcurve"/>
    </contour>
  </outline>
</glyph>
<glyph name="chi" format="2">
  <advance width="995"/>
  <unicode hex="03C7"/>
  <outline>
    <contour>
      <point x="745.0" y="-416.0" type="line"/>
      <point x="436.00000000000006" y="270.0" type="line"/>
      <point x="427.00000000000006" y="270.0" type="line"/>
      <point x="24.000000000000004" y="1052.0" type="line"/>
      <point x="253.35514018691592" y="1052.0" type="line"/>
      <point x="547.355140186916" y="418.0" type="line"/>
      <point x="557.355140186916" y="418.0" type="line"/>
      <point x="975.355140186916" y="-416.0" type="line"/>
    </contour>
    <contour>
      <point x="20.000000000000004" y="-416.0" type="line"/>
      <point x="450.0" y="438.0" type="line"/>
      <point x="483.35514018691595" y="438.0" type="line"/>
      <point x="755.355140186916" y="1052.0" type="line"/>
      <point x="965.3551401869158" y="1052.0" type="line"/>
      <point x="582.3551401869158" y="283.0" type="line"/>
      <point x="549.0" y="283.0" type="line"/>
      <point x="230.00000000000003" y="-416.0" type="line"/>
    </contour>
  </outline>
</glyph>
<glyph name="Kaisymbol" format="2">
  <advance width="1288"/>
  <unicode hex="03CF"/>
  <outline>
    <contour>
      <point x="170.0" y="0.0" type="line"/>
      <point x="170.0" y="1456.0" type="line"/>
      <point x="375.7383177570094" y="1456.0" type="line"/>
      <point x="375.7383177570094" y="0.0" type="line"/>
    </contour>
    <contour>
      <point x="277.74299065420564" y="388.65887850467294" type="line"/>
      <point x="277.74299065420564" y="625.6588785046729" type="line"/>
      <point x="1029.0373831775703" y="1456.0" type="line"/>
      <point x="1261.102803738318" y="1456.0" type="line"/>
      <point x="611.4672897196261" y="750.0700934579439" type="line"/>
    </contour>
    <contour>
      <point x="1038.8411214953271" y="27.009345794392527" type="line"/>
      <point x="506.7383177570094" y="739.8504672897196" type="line"/>
      <point x="639.0140186915888" y="883.8785046728972" type="line"/>
      <point x="1299.588785046729" y="17.69626168224299" type="line"/>
      <point x="544.5654205607476" y="-589.9672897196263" type="line"/>
      <point x="430.53271028037386" y="-455.83644859813097" type="line"/>
    </contour>
  </outline>
</glyph>
<glyph name="Lje" format="2">
  <advance width="2077"/>
  <unicode hex="0409"/>
  <outline>
    <contour>
      <point x="122.5981308411215" y="-30.000000000000004" type="qcurve" smooth="yes"/>
      <point x="96.76635514018692" y="-30.000000000000004"/>
      <point x="39.32710280373832" y="-22.96728971962617"/>
      <point x="10.000000000000002" y="-13.0" type="qcurve"/>
      <point x="10.000000000000002" y="151.0" type="line"/>
      <point x="34.0" y="143.00000000000003"/>
      <point x="74.0" y="138.00000000000003"/>
      <point x="95.7196261682243" y="138.00000000000003" type="qcurve" smooth="yes"/>
      <point x="197.0" y="138.00000000000003"/>
      <point x="277.0" y="336.0"/>
      <point x="290.0" y="575.0000000000001" type="qcurve" smooth="yes"/>
      <point x="338.99999999999994" y="1456.0" type="line"/>
      <point x="1225.280373831776" y="1456.0" type="line"/>
      <point x="1225.280373831776" y="158.00000000000003" type="line"/>
      <point x="1515.2803738317757" y="158.00000000000003" type="line" smooth="yes"/>
      <point x="1685.2803738317757" y="158.00000000000003"/>
      <point x="1821.280373831776" y="325.0"/>
      <point x="1821.280373831776" y="445.00000000000006" type="qcurve" smooth="yes"/>
      <point x="1821.280373831776" y="565.0"/>
      <point x="1685.2803738317757" y="728.0"/>
      <point x="1515.2803738317757" y="728.0" type="qcurve" smooth="yes"/>
      <point x="1128.411214953271" y="728.0" type="line"/>
      <point x="1128.411214953271" y="886.0000000000001" type="line"/>
      <point x="1524.0794392523364" y="886.0000000000001" type="line" smooth="yes"/>
      <point x="1767.0887850467288" y="886.0000000000001"/>
      <point x="2027.280373831776" y="645.0"/>
      <point x="2027.280373831776" y="445.00000000000006" type="qcurve" smooth="yes"/>
      <point x="2027.280373831776" y="245.00000000000003"/>
      <point x="1767.0887850467288" y="0.0"/>
      <point x="1524.0794392523364" y="0.0" type="qcurve" smooth="yes"/>
      <point x="1019.6074766355141" y="0.0" type="line"/>
      <point x="1019.6074766355141" y="1298.0000000000002" type="line"/>
      <point x="523.6074766355141" y="1298.0000000000002" type="line"/>
      <point x="481.60747663551405" y="542.0" type="line" smooth="yes"/>
      <point x="465.57476635514024" y="257.2149532710281"/>
      <point x="318.7570093457944" y="-30.000000000000004"/>
    </contour>
  </outline>
</glyph>
<glyph name="Dzhe" format="2">
  <advance width="1465"/>
  <unicode hex="040F"/>
  <outline>
    <contour>
      <point x="170.0" y="0.0" type="line"/>
      <point x="170.0" y="1456.0" type="line"/>
      <point x="375.6728971962617" y="1456.0" type="line"/>
      <point x="375.6728971962617" y="158.00000000000003" type="line"/>
      <point x="1089.6401869158879" y="158.00000000000003" type="line"/>
      <point x="1089.6401869158879" y="1456.0" type="line"/>
      <point x="1295.3130841121497" y="1456.0" type="line"/>
      <point x="1295.3130841121497" y="0.0" type="line"/>
    </contour>
    <contour>
      <point x="646.6728971962617" y="-290.0" type="line"/>
      <point x="646.6728971962617" y="80.00000000000001" type="line"/>
      <point x="818.6728971962617" y="80.00000000000001" type="line"/>
      <point x="818.6728971962617" y="-290.0" type="line"/>
    </contour>
  </outline>
</glyph>
<glyph name="Be" format="2">
  <advance width="1227"/>
  <unicode hex="0411"/>
  <outline>
    <contour>
      <point x="170.0" y="0.0" type="line"/>
      <point x="170.0" y="1456.0" type="line"/>
      <point x="1065.6401869158879" y="1456.0" type="line"/>
      <point x="1065.6401869158879" y="1298.0000000000002" type="line"/>
      <point x="375.6401869158879" y="1298.0000000000002" type="line"/>
      <point x="375.6401869158879" y="158.00000000000003" type="line"/>
      <point x="665.640186915888" y="158.00000000000003" type="line" smooth="yes"/>
      <point x="835.6401869158879" y="158.00000000000003"/>
      <point x="971.6401869158879" y="319.00000000000006"/>
      <point x="971.6401869158879" y="435.0" type="qcurve" smooth="yes"/>
      <point x="971.6401869158879" y="551.0"/>
      <point x="835.6401869158879" y="708.0000000000001"/>
      <point x="665.640186915888" y="708.0000000000001" type="qcurve" smooth="yes"/>
      <point x="278.7710280373832" y="708.0000000000001" type="line"/>
      <point x="278.7710280373832" y="866.0" type="line"/>
      <point x="676.892523364486" y="866.0" type="line" smooth="yes"/>
      <point x="917.873831775701" y="866.0"/>
      <point x="1176.9205607476636" y="630.0"/>
      <point x="1176.9205607476636" y="435.0" type="qcurve" smooth="yes"/>
      <point x="1176.9205607476636" y="239.0"/>
      <point x="917.873831775701" y="0.0"/>
      <point x="676.892523364486" y="0.0" type="qcurve" smooth="yes"/>
    </contour>
  </outline>
</glyph>
<glyph name="De" format="2">
  <advance width="1499"/>
  <unicode hex="0414"/>
  <outline>
    <contour>
      <point x="1297.1495327102805" y="-290.0" type="line"/>
      <point x="1297.1495327102805" y="0.0" type="line"/>
      <point x="182.0" y="0.0" type="line"/>
      <point x="182.0" y="-290.0" type="line"/>
      <point x="10.000000000000002" y="-290.0" type="line"/>
      <point x="10.000000000000002" y="158.00000000000003" type="line"/>
      <point x="1469.1495327102805" y="158.00000000000003" type="line"/>
      <point x="1469.1495327102805" y="-290.0" type="line"/>
    </contour>
    <contour>
      <point x="310.00000000000006" y="1456.0" type="line"/>
      <point x="1289.1495327102803" y="1456.0" type="line"/>
      <point x="1289.1495327102803" y="79.00000000000001" type="line"/>
      <point x="1083.4112149532712" y="79.00000000000001" type="line"/>
      <point x="1083.4112149532712" y="1298.0000000000002" type="line"/>
      <point x="492.41121495327104" y="1298.0000000000002" type="line"/>
      <point x="451.41121495327104" y="659.0" type="line" smooth="yes"/>
      <point x="437.4112149532711" y="447.0"/>
      <point x="387.4112149532711" y="205.00000000000003"/>
      <point x="339.4112149532711" y="79.00000000000001" type="qcurve"/>
      <point x="123.00000000000001" y="79.00000000000001" type="line"/>
      <point x="186.0" y="209.0"/>
      <point x="245.00000000000003" y="457.0"/>
      <point x="258.00000000000006" y="657.0" type="qcurve" smooth="yes"/>
    </contour>
  </outline>
</glyph>
<glyph name="Ze" format="2">
  <advance width="1287"/>
  <unicode hex="0417"/>
  <anchor x="661.7383177570093" y="0.0" name="bottom"/>
  <outline>
    <contour>
      <point x="652.3785046728972" y="134.0" type="qcurve" smooth="yes"/>
      <point x="825.3785046728973" y="134.0"/>
      <point x="983.3785046728972" y="289.00000000000006"/>
      <point x="983.3785046728972" y="420.0" type="qcurve" smooth="yes"/>
      <point x="983.3785046728972" y="540.0"/>
      <point x="843.3785046728973" y="680.0"/>
      <point x="693.3785046728972" y="680.0" type="qcurve" smooth="yes"/>
      <point x="461.3785046728972" y="680.0" type="line"/>
      <point x="461.3785046728972" y="836.0" type="line"/>
      <point x="663.3785046728972" y="836.0" type="line" smooth="yes"/>
      <point x="812.7242990654206" y="836.0"/>
      <point x="944.7242990654206" y="962.6610352264823"/>
      <point x="944.7242990654206" y="1075.0000000000002" type="qcurve" smooth="yes"/>
      <point x="944.7242990654206" y="1193.6123164218895"/>
      <point x="798.7242990654205" y="1322.0000000000002"/>
      <point x="640.3785046728973" y="1322.0000000000002" type="qcurve" smooth="yes"/>
      <point x="481.37850467289724" y="1322.0000000000002"/>
      <point x="308.9345794392524" y="1177.6542056074768"/>
      <point x="308.5420560747664" y="1022.6542056074768" type="qcurve" smooth="yes"/>
      <point x="308.4112149532711" y="1009.6728971962618" type="line"/>
      <point x="102.83644859813084" y="1009.6728971962618" type="line"/>
      <point x="102.96728971962618" y="1020.6542056074767" type="line" smooth="yes"/>
      <point x="103.6214953271028" y="1221.654205607477"/>
      <point x="371.0514018691589" y="1486.0654205607475"/>
      <point x="637.3971962616822" y="1486.0654205607475" type="qcurve" smooth="yes"/>
      <point x="874.4953271028038" y="1486.0654205607475"/>
      <point x="1148.1682242990655" y="1287.402262311272"/>
      <point x="1148.1682242990655" y="1075.0000000000002" type="qcurve" smooth="yes"/>
      <point x="1148.1682242990655" y="952.2277650553818"/>
      <point x="1023.8451916974137" y="799.796255074936"/>
      <point x="930.9018691588786" y="768.0000000000001" type="qcurve"/>
      <point x="930.9018691588786" y="764.0" type="line"/>
      <point x="1043.322429906542" y="732.1308411214953"/>
      <point x="1187.1495327102805" y="560.392523364486"/>
      <point x="1187.1495327102805" y="420.0" type="qcurve" smooth="yes"/>
      <point x="1187.1495327102805" y="206.00000000000003"/>
      <point x="897.2429906542058" y="-30.000000000000004"/>
      <point x="653.3598130841121" y="-30.000000000000004" type="qcurve" smooth="yes"/>
      <point x="395.93457943925233" y="-30.000000000000004"/>
      <point x="84.16355140186916" y="203.01869158878506"/>
      <point x="84.03271028037383" y="455.0186915887851" type="qcurve" smooth="yes"/>
      <point x="84.0" y="466.32710280373834" type="line"/>
      <point x="289.37850467289724" y="466.32710280373834" type="line"/>
      <point x="289.5093457943926" y="455.3457943925235" type="line" smooth="yes"/>
      <point x="290.06542056074767" y="286.3457943925234"/>
      <point x="469.37850467289724" y="134.0"/>
    </contour>
  </outline>
</glyph>
<glyph name="Ka" format="2">
  <advance width="1293"/>
  <unicode hex="041A"/>
  <guideline x="480.00000000000006" y="796.0" angle="90.00000000000001" identifier="LxfLwWU0sJ"/>
  <anchor x="657.0" y="1456.0" name="top"/>
  <anchor x="1082.0140186915887" y="0.0" name="cy_descender"/>
  <outline>
    <contour>
      <point x="1063.7383177570096" y="0.0" type="line"/>
      <point x="436.3271028037384" y="739.247663551402" type="line"/>
      <point x="605.2570093457945" y="827.8411214953271" type="line"/>
      <point x="1313.4766355140187" y="0.0" type="line"/>
    </contour>
    <contour>
      <point x="279.7383177570093" y="830.0000000000001" type="line"/>
      <point x="498.90654205607484" y="830.0000000000001" type="line"/>
      <point x="1043.9065420560748" y="1456.0" type="line"/>
      <point x="1260.9065420560746" y="1456.0" type="line"/>
      <point x="576.9065420560748" y="672.0" type="line"/>
      <point x="279.7383177570093" y="672.0" type="line"/>
    </contour>
    <contour>
      <point x="170.0" y="0.0" type="line"/>
      <point x="170.0" y="1456.0" type="line"/>
      <point x="375.7383177570094" y="1456.0" type="line"/>
      <point x="375.7383177570094" y="0.0" type="line"/>
    </contour>
  </outline>
</glyph>
<glyph name="Che" format="2">
  <advance width="1416"/>
  <unicode hex="0427"/>
  <guideline x="1123.0" y="741.0000000000001" angle="90.00000000000001" identifier="nfCxFSb4p1"/>
  <anchor x="1151.196261682243" y="0.0" name="cy_descender"/>
  <outline>
    <contour>
      <point x="346.26168224299073" y="1032.0000000000002" type="line" smooth="yes"/>
      <point x="346.26168224299073" y="854.0000000000001"/>
      <point x="509.2616822429906" y="733.9672897196261"/>
      <point x="707.2616822429906" y="734.0" type="qcurve" smooth="yes"/>
      <point x="827.269691371486" y="734.0327102803739"/>
      <point x="1040.1079625224334" y="754.5031861483823"/>
      <point x="1143.6214953271028" y="777.1261682242991" type="qcurve"/>
      <point x="1143.6214953271028" y="619.1261682242991" type="line"/>
      <point x="1006.5359566775627" y="595.5372187207673"/>
      <point x="816.7937099653515" y="576.0000000000001"/>
      <point x="690.0700934579439" y="576.0000000000001" type="qcurve" smooth="yes"/>
      <point x="376.42056074766356" y="576.0000000000001"/>
      <point x="140.16355140186917" y="805.8878504672897"/>
      <point x="140.0981308411215" y="1036.210280373832" type="qcurve" smooth="yes"/>
      <point x="140.0" y="1456.0" type="line"/>
      <point x="346.26168224299073" y="1456.0" type="line"/>
    </contour>
    <contour>
      <point x="1246.3598130841121" y="1456.0" type="line"/>
      <point x="1246.3598130841121" y="0.0" type="line"/>
      <point x="1040.261682242991" y="0.0" type="line"/>
      <point x="1040.261682242991" y="1456.0" type="line"/>
    </contour>
  </outline>
</glyph>
<glyph name="Soft" format="2">
  <advance width="1227"/>
  <unicode hex="042C"/>
  <outline>
    <contour>
      <point x="170.0" y="0.0" type="line"/>
      <point x="170.0" y="1456.0" type="line"/>
      <point x="375.9345794392524" y="1456.0" type="line"/>
      <point x="375.9345794392524" y="158.00000000000003" type="line"/>
      <point x="665.9345794392524" y="158.00000000000003" type="line" smooth="yes"/>
      <point x="835.9345794392524" y="158.00000000000003"/>
      <point x="971.9345794392524" y="325.0"/>
      <point x="971.9345794392524" y="445.00000000000006" type="qcurve" smooth="yes"/>
      <point x="971.9345794392524" y="565.0"/>
      <point x="835.9345794392524" y="728.0"/>
      <point x="665.9345794392524" y="728.0" type="qcurve" smooth="yes"/>
      <point x="279.06542056074767" y="728.0" type="line"/>
      <point x="279.06542056074767" y="886.0000000000001" type="line"/>
      <point x="675.747663551402" y="886.0000000000001" type="line" smooth="yes"/>
      <point x="917.5467289719627" y="886.0000000000001"/>
      <point x="1177.443925233645" y="645.0"/>
      <point x="1177.443925233645" y="445.00000000000006" type="qcurve" smooth="yes"/>
      <point x="1177.443925233645" y="245.00000000000003"/>
      <point x="917.5467289719627" y="0.0"/>
      <point x="675.747663551402" y="0.0" type="qcurve" smooth="yes"/>
    </contour>
  </outline>
</glyph>
<glyph name="Ecyr" format="2">
  <advance width="1382"/>
  <unicode hex="042D"/>
  <guideline x="1147.0" y="753.0000000000001" angle="90.00000000000001" identifier="Ovo68woMtl"/>
  <anchor x="655.6261682242991" y="1456.0" name="top"/>
  <outline>
    <contour>
      <point x="1166.1355140186915" y="830.0000000000001" type="line"/>
      <point x="1166.1355140186915" y="672.0" type="line"/>
      <point x="416.26635514018693" y="672.0" type="line"/>
      <point x="416.26635514018693" y="830.0000000000001" type="line"/>
    </contour>
    <contour>
      <point x="1062.528037383178" y="675.2757009345795" type="qcurve" smooth="yes"/>
      <point x="1062.528037383178" y="795.6915887850469" type="line" smooth="yes"/>
      <point x="1062.528037383178" y="1062.6542056074768"/>
      <point x="842.5934579439254" y="1322.0000000000002"/>
      <point x="656.5934579439253" y="1322.0000000000002" type="qcurve" smooth="yes"/>
      <point x="481.5934579439253" y="1322.0000000000002"/>
      <point x="289.2803738317757" y="1142.0"/>
      <point x="289.0514018691589" y="1003.0" type="qcurve" smooth="yes"/>
      <point x="288.9532710280374" y="988.3644859813083" type="line"/>
      <point x="84.0" y="988.3644859813083" type="line"/>
      <point x="84.09813084112149" y="1003.0" type="line" smooth="yes"/>
      <point x="84.42523364485982" y="1215.0000000000002"/>
      <point x="387.44392523364496" y="1486.0"/>
      <point x="656.2336448598131" y="1486.0" type="qcurve" smooth="yes"/>
      <point x="935.5420560747665" y="1486.0"/>
      <point x="1270.5280373831774" y="1117.0"/>
      <point x="1270.5280373831774" y="793.6915887850467" type="qcurve" smooth="yes"/>
      <point x="1270.5280373831774" y="708.2757009345794" type="line" smooth="yes"/>
      <point x="1270.5280373831774" y="331.6214953271028"/>
      <point x="923.1495327102805" y="-30.000000000000004"/>
      <point x="651.2009345794393" y="-30.000000000000004" type="qcurve" smooth="yes"/>
      <point x="383.12149532710276" y="-30.000000000000004"/>
      <point x="84.45794392523365" y="258.6012397481963"/>
      <point x="84.09813084112149" y="461.0" type="qcurve" smooth="yes"/>
      <point x="84.0" y="467.6355140186916" type="line"/>
      <point x="288.9532710280374" y="467.6355140186916" type="line"/>
      <point x="289.0514018691589" y="461.0" type="line" smooth="yes"/>
      <point x="289.2803738317757" y="327.00000000000006"/>
      <point x="468.26635514018704" y="134.0"/>
      <point x="651.266355140187" y="134.0" type="qcurve" smooth="yes"/>
      <point x="861.2663551401869" y="134.0"/>
      <point x="1062.528037383178" y="430.3130841121496"/>
    </contour>
  </outline>
</glyph>
<glyph name="icyr" format="2">
  <advance width="1184"/>
  <unicode hex="0438"/>
  <anchor x="601.1495327102804" y="1052.0" name="top"/>
  <outline>
    <contour>
      <point x="148.0" y="0.0" type="line"/>
      <point x="148.0" y="1052.0" type="line"/>
      <point x="344.08411214953276" y="1052.0" type="line"/>
      <point x="344.08411214953276" y="403.00000000000006" type="line" smooth="yes"/>
      <point x="344.08411214953276" y="373.0"/>
      <point x="343.0841121495327" y="298.0"/>
      <point x="342.08411214953276" y="268.0" type="qcurve"/>
      <point x="352.0841121495327" y="268.0" type="line"/>
      <point x="366.0841121495327" y="293.0"/>
      <point x="401.1822429906543" y="351.93457943925233"/>
      <point x="420.08411214953264" y="383.0" type="qcurve" smooth="yes"/>
      <point x="837.0841121495328" y="1052.0" type="line"/>
      <point x="1036.1682242990655" y="1052.0" type="line"/>
      <point x="1036.1682242990655" y="0.0" type="line"/>
      <point x="840.0841121495328" y="0.0" type="line"/>
      <point x="840.0841121495328" y="648.0" type="line" smooth="yes"/>
      <point x="840.0841121495328" y="677.9999999999999"/>
      <point x="843.0841121495329" y="758.0"/>
      <point x="845.0841121495328" y="788.0" type="qcurve"/>
      <point x="830.0841121495328" y="788.0" type="line"/>
      <point x="818.0841121495328" y="763.0"/>
      <point x="783.1822429906542" y="698.9345794392523"/>
      <point x="764.0841121495328" y="668.0000000000001" type="qcurve" smooth="yes"/>
      <point x="347.08411214953276" y="0.0" type="line"/>
    </contour>
  </outline>
</glyph>
<glyph name="en" format="2">
  <advance width="1164"/>
  <unicode hex="043D"/>
  <anchor x="926.8084112149534" y="0.0" name="cy_descender"/>
  <outline>
    <contour>
      <point x="148.0" y="0.0" type="line"/>
      <point x="148.0" y="1052.0" type="line"/>
      <point x="347.08411214953276" y="1052.0" type="line"/>
      <point x="347.08411214953276" y="0.0" type="line"/>
    </contour>
    <contour>
      <point x="250.54205607476638" y="465.00000000000006" type="line"/>
      <point x="250.54205607476638" y="610.0" type="line"/>
      <point x="913.626168224299" y="610.0" type="line"/>
      <point x="913.626168224299" y="465.00000000000006" type="line"/>
    </contour>
    <contour>
      <point x="817.0841121495329" y="0.0" type="line"/>
      <point x="817.0841121495329" y="1052.0" type="line"/>
      <point x="1016.1682242990654" y="1052.0" type="line"/>
      <point x="1016.1682242990654" y="0.0" type="line"/>
    </contour>
  </outline>
</glyph>
<glyph name="te" format="2">
  <advance width="919"/>
  <unicode hex="0442"/>
  <anchor x="467.82242990654214" y="0.0" name="cy_descender"/>
  <outline>
    <contour>
      <point x="30.000000000000004" y="907.0" type="line"/>
      <point x="30.000000000000004" y="1052.0" type="line"/>
      <point x="889.0841121495328" y="1052.0" type="line"/>
      <point x="889.0841121495328" y="907.0" type="line"/>
    </contour>
    <contour>
      <point x="360.00000000000006" y="0.0" type="line"/>
      <point x="360.00000000000006" y="977.0000000000001" type="line"/>
      <point x="559.0841121495328" y="977.0000000000001" type="line"/>
      <point x="559.0841121495328" y="0.0" type="line"/>
    </contour>
  </outline>
</glyph>
<glyph name="tse" format="2">
  <advance width="1181"/>
  <unicode hex="0446"/>
  <outline>
    <contour>
      <point x="993.1682242990655" y="-270.0" type="line"/>
      <point x="993.1682242990655" y="0.0" type="line"/>
      <point x="148.0" y="0.0" type="line"/>
      <point x="148.0" y="1052.0" type="line"/>
      <point x="347.08411214953276" y="1052.0" type="line"/>
      <point x="347.08411214953276" y="145.0" type="line"/>
      <point x="807.0841121495328" y="145.0" type="line"/>
      <point x="807.0841121495328" y="1052.0" type="line"/>
      <point x="1006.1682242990655" y="1052.0" type="line"/>
      <point x="1006.1682242990655" y="145.0" type="line"/>
      <point x="1161.1682242990655" y="145.0" type="line"/>
      <point x="1161.1682242990655" y="-270.0" type="line"/>
    </contour>
  </outline>
</glyph>
<glyph name="che" format="2">
  <advance width="1121"/>
  <unicode hex="0447"/>
  <guideline x="854.9999999999999" y="515.0" angle="90.00000000000001" identifier="GGEFes61Q6"/>
  <anchor x="880.5794392523363" y="0.0" name="cy_descender"/>
  <outline>
    <contour>
      <point x="323.75700934579436" y="773.0" type="line" smooth="yes"/>
      <point x="323.75700934579436" y="641.9999999999999"/>
      <point x="423.7383177570094" y="542.0"/>
      <point x="547.392523364486" y="542.0" type="qcurve" smooth="yes"/>
      <point x="636.8177570093458" y="542.0"/>
      <point x="785.2009345794393" y="568.1635514018692"/>
      <point x="873.2990654205609" y="590.0000000000001" type="qcurve"/>
      <point x="873.2990654205609" y="444.0" type="line"/>
      <point x="788.2009345794393" y="425.1635514018692"/>
      <point x="633.2990654205607" y="396.0"/>
      <point x="504.196261682243" y="396.0" type="qcurve" smooth="yes"/>
      <point x="306.88785046728975" y="396.0"/>
      <point x="125.22897196261682" y="583.0"/>
      <point x="125.0" y="773.0" type="qcurve" smooth="yes"/>
      <point x="125.0" y="1052.0" type="line"/>
      <point x="323.75700934579436" y="1052.0" type="line"/>
    </contour>
    <contour>
      <point x="972.8411214953271" y="1052.0" type="line"/>
      <point x="972.8411214953271" y="0.0" type="line"/>
      <point x="773.7570093457944" y="0.0" type="line"/>
      <point x="773.7570093457944" y="1052.0" type="line"/>
    </contour>
  </outline>
</glyph>
<glyph name="ya" format="2">
  <advance width="1143"/>
  <unicode hex="044F"/>
  <anchor x="594.4439252336449" y="1052.0" name="top"/>
  <outline>
    <contour>
      <point x="85.0" y="0.0" type="line"/>
      <point x="411.0" y="454.0" type="line"/>
      <point x="609.0841121495328" y="437.00000000000006" type="line"/>
      <point x="302.08411214953276" y="0.0" type="line"/>
    </contour>
    <contour>
      <point x="119.00000000000001" y="716.0" type="qcurve" smooth="yes"/>
      <point x="119.00000000000001" y="869.0"/>
      <point x="329.4719626168225" y="1052.0"/>
      <point x="523.8457943925233" y="1052.0" type="qcurve" smooth="yes"/>
      <point x="995.1682242990655" y="1052.0" type="line"/>
      <point x="995.1682242990655" y="0.0" type="line"/>
      <point x="796.0841121495328" y="0.0" type="line"/>
      <point x="796.0841121495328" y="907.0" type="line"/>
      <point x="534.0841121495328" y="907.0" type="line" smooth="yes"/>
      <point x="415.08411214953276" y="907.0"/>
      <point x="318.0841121495327" y="799.4810019917626"/>
      <point x="318.0841121495327" y="716.0" type="qcurve" smooth="yes"/>
      <point x="318.0841121495327" y="633.4539236672944"/>
      <point x="414.08411214953276" y="529.0"/>
      <point x="534.0841121495328" y="529.0" type="qcurve" smooth="yes"/>
      <point x="892.6261682242991" y="529.0" type="line"/>
      <point x="892.6261682242991" y="384.00000000000006" type="line"/>
      <point x="552.0841121495328" y="384.00000000000006" type="line"/>
      <point x="523.8457943925233" y="396.0" type="line"/>
      <point x="329.4719626168225" y="396.0"/>
      <point x="119.00000000000001" y="569.0"/>
    </contour>
  </outline>
</glyph>
<glyph name="nje" format="2">
  <advance width="1740"/>
  <unicode hex="045A"/>
  <outline>
    <contour>
      <point x="148.0" y="0.0" type="line"/>
      <point x="148.0" y="1052.0" type="line"/>
      <point x="347.08411214953276" y="1052.0" type="line"/>
      <point x="347.08411214953276" y="0.0" type="line"/>
    </contour>
    <contour>
      <point x="250.54205607476638" y="525.0" type="line"/>
      <point x="250.54205607476638" y="670.0000000000001" type="line"/>
      <point x="910.626168224299" y="670.0000000000001" type="line"/>
      <point x="910.626168224299" y="525.0" type="line"/>
    </contour>
    <contour>
      <point x="814.0841121495326" y="0.0" type="line"/>
      <point x="814.0841121495326" y="1052.0" type="line"/>
      <point x="1013.1682242990655" y="1052.0" type="line"/>
      <point x="1013.1682242990655" y="145.0" type="line"/>
      <point x="1255.1682242990655" y="145.0" type="line" smooth="yes"/>
      <point x="1380.1682242990655" y="145.0"/>
      <point x="1481.1682242990655" y="254.57943925233224"/>
      <point x="1481.1682242990655" y="337.0" type="qcurve" smooth="yes"/>
      <point x="1481.1682242990655" y="418.4514018691911"/>
      <point x="1380.1682242990655" y="525.0"/>
      <point x="1255.1682242990655" y="525.0" type="qcurve" smooth="yes"/>
      <point x="936.6261682242991" y="525.0" type="line"/>
      <point x="936.6261682242991" y="670.0000000000001" type="line"/>
      <point x="1265.3411214953271" y="670.0000000000001" type="line" smooth="yes"/>
      <point x="1464.747663551402" y="670.0000000000001"/>
      <point x="1680.252336448598" y="491.00000000000006"/>
      <point x="1680.252336448598" y="337.0" type="qcurve" smooth="yes"/>
      <point x="1680.252336448598" y="183.00000000000003"/>
      <point x="1464.747663551402" y="0.0"/>
      <point x="1265.3411214953271" y="0.0" type="qcurve" smooth="yes"/>
    </contour>
  </outline>
</glyph>
<glyph name="Kaverticalstrokecyr" format="2">
  <advance width="1515"/>
  <unicode hex="049C"/>
  <guideline x="637.0" y="675.0" angle="90.00000000000001" identifier="5CJVZV5P4J"/>
  <outline>
    <contour>
      <point x="170.0" y="0.0" type="line"/>
      <point x="170.0" y="1456.0" type="line"/>
      <point x="375.6401869158879" y="1456.0" type="line"/>
      <point x="375.6401869158879" y="0.0" type="line"/>
    </contour>
    <contour>
      <point x="1292.7429906542056" y="0.0" type="line"/>
      <point x="715.6261682242991" y="738.7570093457945" type="line"/>
      <point x="885.7990654205607" y="825.3551401869158" type="line"/>
      <point x="1534.8271028037386" y="0.0" type="line"/>
    </contour>
    <contour>
      <point x="656.5280373831777" y="830.0000000000001" type="line"/>
      <point x="780.266355140187" y="830.0000000000001" type="line"/>
      <point x="1274.9392523364486" y="1456.0" type="line"/>
      <point x="1484.9392523364488" y="1456.0" type="line"/>
      <point x="858.266355140187" y="672.0" type="line"/>
      <point x="656.5280373831777" y="672.0" type="line"/>
    </contour>
    <contour>
      <point x="565.640186915888" y="300.00000000000006" type="line"/>
      <point x="565.640186915888" y="1156.0000000000002" type="line"/>
      <point x="746.7616822429907" y="1156.0000000000002" type="line"/>
      <point x="746.7616822429907" y="300.00000000000006" type="line"/>
    </contour>
  </outline>
</glyph>
<glyph name="kaverticalstrokecyr" format="2">
  <advance width="1243"/>
  <unicode hex="049D"/>
  <guideline x="547.0" y="651.0" angle="90.00000000000001" identifier="ATaXbxe4rK"/>
  <outline>
    <contour>
      <point x="645.3551401869158" y="852.0" type="line"/>
      <point x="645.3551401869158" y="200.0" type="line"/>
      <point x="480.3551401869159" y="200.0" type="line"/>
      <point x="480.3551401869159" y="852.0" type="line"/>
    </contour>
    <contour>
      <point x="350.35514018691595" y="1052.0" type="line"/>
      <point x="350.35514018691595" y="0.0" type="line"/>
      <point x="148.0" y="0.0" type="line"/>
      <point x="148.0" y="1052.0" type="line"/>
    </contour>
    <contour>
      <point x="1025.355140186916" y="0.0" type="line"/>
      <point x="643.8504672897196" y="466.83177570093466" type="line"/>
      <point x="775.2056074766356" y="592.8317757009346" type="line"/>
      <point x="1267.710280373832" y="0.0" type="line"/>
    </contour>
    <contour>
      <point x="563.355140186916" y="610.0" type="line"/>
      <point x="657.1308411214953" y="610.0" type="line"/>
      <point x="1012.1308411214953" y="1052.0" type="line"/>
      <point x="1226.1308411214955" y="1052.0" type="line"/>
      <point x="744.1308411214953" y="465.00000000000006" type="line"/>
      <point x="563.355140186916" y="465.00000000000006" type="line"/>
    </contour>
  </outline>
</glyph>
<glyph name="Kabashkircyr" format="2">
  <advance width="1523"/>
  <unicode hex="04A0"/>
  <outline>
    <contour>
      <point x="1293.1635514018692" y="0.0" type="line"/>
      <point x="665.1635514018692" y="740.0" type="line"/>
      <point x="837.0046728971963" y="825.7476635514018" type="line"/>
      <point x="1543.2616822429907" y="0.0" type="line"/>
    </contour>
    <contour>
      <point x="501.803738317757" y="830.0000000000001" type="line"/>
      <point x="730.3598130841123" y="830.0000000000001" type="line"/>
      <point x="1277.9766355140189" y="1456.0" type="line"/>
      <point x="1494.9766355140187" y="1456.0" type="line"/>
      <point x="808.3598130841121" y="672.0" type="line"/>
      <point x="501.803738317757" y="672.0" type="line"/>
    </contour>
    <contour>
      <point x="399.00000000000006" y="0.0" type="line"/>
      <point x="399.00000000000006" y="1298.0000000000002" type="line"/>
      <point x="24.000000000000004" y="1298.0000000000002" type="line"/>
      <point x="24.000000000000004" y="1456.0" type="line"/>
      <point x="604.8364485981309" y="1456.0" type="line"/>
      <point x="604.8364485981309" y="0.0" type="line"/>
    </contour>
  </outline>
</glyph>
<glyph name="kabashkircyr" format="2">
  <advance width="1241"/>
  <unicode hex="04A1"/>
  <outline>
    <contour>
      <point x="1015.0841121495328" y="0.0" type="line"/>
      <point x="596.0841121495328" y="477.00000000000006" type="line"/>
      <point x="723.1682242990655" y="603.0" type="line"/>
      <point x="1256.1682242990653" y="0.0" type="line"/>
    </contour>
    <contour>
      <point x="421.54205607476644" y="610.0" type="line"/>
      <point x="614.8971962616823" y="610.0" type="line"/>
      <point x="999.8971962616823" y="1052.0" type="line"/>
      <point x="1217.8971962616822" y="1052.0" type="line"/>
      <point x="702.8971962616822" y="465.00000000000006" type="line"/>
      <point x="421.54205607476644" y="465.00000000000006" type="line"/>
    </contour>
    <contour>
      <point x="519.0841121495328" y="1052.0" type="line"/>
      <point x="519.0841121495328" y="0.0" type="line"/>
      <point x="320.00000000000006" y="0.0" type="line"/>
      <point x="320.00000000000006" y="907.0" type="line"/>
      <point x="30.000000000000004" y="907.0" type="line"/>
      <point x="30.000000000000004" y="1052.0" type="line"/>
    </contour>
  </outline>
</glyph>
<glyph name="ustraight" format="2">
  <advance width="955"/>
  <unicode hex="04AF"/>
  <outline>
    <contour>
      <point x="378.0" y="-416.0" type="line"/>
      <point x="378.0" y="0.0" type="line"/>
      <point x="0.0" y="1052.0" type="line"/>
      <point x="193.08411214953273" y="1052.0" type="line"/>
      <point x="447.08411214953276" y="289.00000000000006" type="line" smooth="yes"/>
      <point x="460.0841121495327" y="249.00000000000003"/>
      <point x="480.08411214953276" y="179.0"/>
      <point x="484.08411214953276" y="159.0" type="qcurve"/>
      <point x="490.0841121495328" y="159.0" type="line"/>
      <point x="494.0841121495327" y="179.0"/>
      <point x="514.247663551402" y="248.9672897196262"/>
      <point x="527.0841121495326" y="289.00000000000006" type="qcurve" smooth="yes"/>
      <point x="779.0841121495328" y="1052.0" type="line"/>
      <point x="955.0841121495328" y="1052.0" type="line"/>
      <point x="577.0841121495328" y="0.0" type="line"/>
      <point x="577.0841121495328" y="-416.0" type="line"/>
    </contour>
  </outline>
</glyph>
<glyph name="Cheverticalstroke-cy" format="2">
  <advance width="1416"/>
  <unicode hex="04B8"/>
  <outline>
    <contour>
      <point x="780.0654205607477" y="1106.0" type="line"/>
      <point x="780.0654205607477" y="250.0" type="line"/>
      <point x="610.0654205607477" y="250.0" type="line"/>
      <point x="610.0654205607477" y="1106.0" type="line"/>
    </contour>
    <contour>
      <point x="346.26168224299073" y="1032.0000000000002" type="line" smooth="yes"/>
      <point x="346.26168224299073" y="854.0000000000001"/>
      <point x="509.2616822429906" y="733.9672897196261"/>
      <point x="707.2616822429906" y="734.0" type="qcurve" smooth="yes"/>
      <point x="827.5373831775702" y="734.0327102803739"/>
      <point x="1040.8598130841124" y="754.4579439252337"/>
      <point x="1144.588785046729" y="777.1261682242991" type="qcurve"/>
      <point x="1144.588785046729" y="619.1261682242991" type="line"/>
      <point x="1007.2196261682244" y="595.4906542056075"/>
      <point x="817.0654205607478" y="576.0000000000001"/>
      <point x="690.0700934579439" y="576.0000000000001" type="qcurve" smooth="yes"/>
      <point x="376.42056074766356" y="576.0000000000001"/>
      <point x="140.16355140186917" y="805.8878504672897"/>
      <point x="140.0981308411215" y="1036.210280373832" type="qcurve" smooth="yes"/>
      <point x="140.0" y="1456.0" type="line"/>
      <point x="346.26168224299073" y="1456.0" type="line"/>
    </contour>
    <contour>
      <point x="1246.3598130841121" y="1456.0" type="line"/>
      <point x="1246.3598130841121" y="0.0" type="line"/>
      <point x="1040.261682242991" y="0.0" type="line"/>
      <point x="1040.261682242991" y="1456.0" type="line"/>
    </contour>
  </outline>
</glyph>
<glyph name="Germandbls" format="2">
  <advance width="1475"/>
  <unicode hex="1E9E"/>
  <outline>
    <contour>
      <point x="178.00000000000003" y="1063.3504672897195" type="line" smooth="yes"/>
      <point x="178.00000000000003" y="1266.9018691588785"/>
      <point x="404.36448598130846" y="1510.0"/>
      <point x="623.0373831775702" y="1510.0" type="qcurve" smooth="yes"/>
      <point x="859.7009345794393" y="1510.0"/>
      <point x="1045.4953271028037" y="1347.0"/>
      <point x="1045.4953271028037" y="1244.0" type="qcurve" smooth="yes"/>
      <point x="1045.4953271028037" y="1142.0"/>
      <point x="938.4719626168225" y="1009.2803738317758"/>
      <point x="871.3738317757011" y="964.8551401869161" type="qcurve" smooth="yes"/>
      <point x="818.2149532710281" y="928.2803738317757"/>
      <point x="763.4112149532712" y="881.3598130841121"/>
      <point x="763.4112149532712" y="861.5560747663552" type="qcurve" smooth="yes"/>
      <point x="763.4112149532712" y="841.7850467289721"/>
      <point x="829.247663551402" y="806.2757009345795"/>
      <point x="1019.6074766355141" y="737.373831775701" type="qcurve" smooth="yes"/>
      <point x="1224.285046728972" y="663.7429906542055"/>
      <point x="1395.495327102804" y="483.8084112149533"/>
      <point x="1395.495327102804" y="334.92056074766356" type="qcurve" smooth="yes"/>
      <point x="1395.495327102804" y="189.83644859813083"/>
      <point x="1150.8598130841121" y="-30.000000000000004"/>
      <point x="959.7570093457946" y="-30.000000000000004" type="qcurve" smooth="yes"/>
      <point x="716.1588785046729" y="-30.000000000000004"/>
      <point x="478.4112149532711" y="152.0"/>
      <point x="478.4112149532711" y="338.00000000000006" type="qcurve" smooth="yes"/>
      <point x="478.4112149532711" y="350.0" type="line"/>
      <point x="681.4112149532712" y="350.0" type="line"/>
      <point x="681.4112149532712" y="338.00000000000006" type="line" smooth="yes"/>
      <point x="681.4112149532712" y="238.00000000000003"/>
      <point x="806.411214953271" y="135.0"/>
      <point x="942.411214953271" y="135.0" type="qcurve" smooth="yes"/>
      <point x="1047.4112149532712" y="135.0"/>
      <point x="1185.4112149532712" y="241.00000000000003"/>
      <point x="1185.4112149532712" y="330.0" type="qcurve" smooth="yes"/>
      <point x="1185.4112149532712" y="427.00000000000006"/>
      <point x="1053.4112149532712" y="521.0"/>
      <point x="882.4112149532709" y="584.0000000000001" type="qcurve" smooth="yes"/>
      <point x="654.4112149532712" y="668.0000000000001"/>
      <point x="537.411214953271" y="760.0"/>
      <point x="537.411214953271" y="831.0000000000001" type="qcurve" smooth="yes"/>
      <point x="537.411214953271" y="904.0000000000001"/>
      <point x="611.411214953271" y="989.0000000000001"/>
      <point x="705.4112149532709" y="1056.0" type="qcurve" smooth="yes"/>
      <point x="775.4112149532712" y="1106.0"/>
      <point x="837.411214953271" y="1172.0"/>
      <point x="837.411214953271" y="1229.0" type="qcurve" smooth="yes"/>
      <point x="837.411214953271" y="1283.9999999999998"/>
      <point x="735.411214953271" y="1348.0"/>
      <point x="630.4112149532712" y="1348.0" type="qcurve" smooth="yes"/>
      <point x="509.4112149532711" y="1348.0"/>
      <point x="383.41121495327104" y="1198.0000000000002"/>
      <point x="383.41121495327104" y="1036.0" type="qcurve" smooth="yes"/>
      <point x="383.41121495327104" y="357.5186915887851" type="line" smooth="yes"/>
      <point x="383.41121495327104" y="184.35981308411218"/>
      <point x="215.5280373831776" y="-16.0"/>
      <point x="74.86915887850468" y="-16.0" type="qcurve" smooth="yes"/>
      <point x="59.90654205607477" y="-16.0"/>
      <point x="28.0" y="-14.0"/>
      <point x="15.000000000000002" y="-12.000000000000002" type="qcurve"/>
      <point x="13.0" y="172.0" type="line"/>
      <point x="22.0" y="169.03271028037386"/>
      <point x="41.32710280373833" y="167.00000000000003"/>
      <point x="51.07943925233645" y="167.00000000000003" type="qcurve" smooth="yes"/>
      <point x="110.32710280373833" y="167.00000000000003"/>
      <point x="178.00000000000003" y="264.0"/>
      <point x="178.00000000000003" y="355.00000000000006" type="qcurve" smooth="yes"/>
    </contour>
  </outline>
</glyph>
<glyph name="quoteleft" format="2">
  <advance width="423"/>
  <unicode hex="2018"/>
  <outline>
    <contour>
      <point x="92.00000000000001" y="1068.0934579439254" type="line"/>
      <point x="92.00000000000001" y="1190.728971962617" type="line" smooth="yes"/>
      <point x="92.00000000000001" y="1283.6728971962618"/>
      <point x="189.08411214953273" y="1489.0467289719627"/>
      <point x="279.08411214953276" y="1556.0" type="qcurve"/>
      <point x="384.0841121495327" y="1483.0000000000002" type="line"/>
      <point x="338.0841121495327" y="1417.0"/>
      <point x="288.08411214953276" y="1274.728971962617"/>
      <point x="288.08411214953276" y="1193.728971962617" type="qcurve" smooth="yes"/>
      <point x="288.08411214953276" y="1068.0934579439254" type="line"/>
    </contour>
  </outline>
</glyph>
<glyph name="quotedblleft" format="2">
  <advance width="856"/>
  <unicode hex="201C"/>
  <outline>
    <contour>
      <point x="92.00000000000001" y="1068.0934579439254" type="line"/>
      <point x="92.00000000000001" y="1194.0" type="line" smooth="yes"/>
      <point x="92.00000000000001" y="1284.3271028037382"/>
      <point x="188.03738317757012" y="1488.6542056074768"/>
      <point x="279.08411214953276" y="1556.0" type="qcurve"/>
      <point x="384.0841121495327" y="1483.0000000000002" type="line"/>
      <point x="338.0841121495327" y="1417.0"/>
      <point x="288.08411214953276" y="1278.0"/>
      <point x="288.08411214953276" y="1197.0" type="qcurve" smooth="yes"/>
      <point x="288.08411214953276" y="1068.0934579439254" type="line"/>
    </contour>
    <contour>
      <point x="525.0841121495328" y="1068.0934579439254" type="line"/>
      <point x="525.0841121495328" y="1194.0" type="line" smooth="yes"/>
      <point x="525.0841121495328" y="1284.3271028037382"/>
      <point x="622.855140186916" y="1489.210280373832"/>
      <point x="712.1682242990654" y="1556.0" type="qcurve"/>
      <point x="817.1682242990656" y="1483.0000000000002" type="line"/>
      <point x="771.1682242990654" y="1417.0"/>
      <point x="721.1682242990655" y="1278.0"/>
      <point x="721.1682242990655" y="1197.0" type="qcurve" smooth="yes"/>
      <point x="721.1682242990655" y="1068.0934579439254" type="line"/>
    </contour>
  </outline>
</glyph>
<glyph name="guilsinglleft" format="2">
  <advance width="665"/>
  <unicode hex="2039"/>
  <guideline x="0" y="901.0000000000001" angle="0" identifier="Amp5Ormvx4"/>
  <guideline x="0" y="555.0" angle="0" identifier="JDX5vz3jKp"/>
  <outline>
    <contour>
      <point x="108.0" y="522.0" type="line"/>
      <point x="108.0" y="581.0000000000001" type="line"/>
      <point x="403.00000000000006" y="949.0" type="line"/>
      <point x="578.0841121495328" y="949.0" type="line"/>
      <point x="320.08411214953276" y="551.0" type="line"/>
      <point x="578.0841121495328" y="153.0" type="line"/>
      <point x="403.00000000000006" y="153.0" type="line"/>
    </contour>
  </outline>
</glyph>
<glyph name="guilsinglright" format="2">
  <advance width="665"/>
  <unicode hex="203A"/>
  <guideline x="0" y="901.0000000000001" angle="0" identifier="Amp5Ormvx4"/>
  <guideline x="0" y="555.0" angle="0" identifier="JDX5vz3jKp"/>
  <outline>
    <contour>
      <point x="87.0" y="153.0" type="line"/>
      <point x="345.0" y="551.0" type="line"/>
      <point x="87.0" y="949.0" type="line"/>
      <point x="262.0841121495327" y="949.0" type="line"/>
      <point x="557.0841121495328" y="581.0000000000001" type="line"/>
      <point x="557.0841121495328" y="522.0" type="line"/>
      <point x="262.0841121495327" y="153.0" type="line"/>
    </contour>
  </outline>
</glyph>
<glyph name="uni20AD" format="2">
  <advance width="1067"/>
  <unicode hex="20AD"/>
  <outline>
    <contour>
      <point x="130.0" y="0.0" type="line"/>
      <point x="130.0" y="1456.0" type="line"/>
      <point x="330.08411214953276" y="1456.0" type="line"/>
      <point x="330.08411214953276" y="0.0" type="line"/>
    </contour>
    <contour>
      <point x="858.0841121495329" y="0.0" type="line"/>
      <point x="443.3411214953272" y="775.9766355140188" type="line"/>
      <point x="566.766355140187" y="930.9859813084114" type="line"/>
      <point x="1087.1682242990655" y="0.0" type="line"/>
    </contour>
    <contour>
      <point x="237.6121495327103" y="370.29906542056074" type="line"/>
      <point x="237.6121495327103" y="639.2990654205607" type="line"/>
      <point x="853.3177570093458" y="1456.0" type="line"/>
      <point x="1055.3177570093458" y="1456.0" type="line"/>
    </contour>
    <contour>
      <point x="-9.000000000000002" y="661.0000000000001" type="line"/>
      <point x="-9.000000000000002" y="809.0000000000001" type="line"/>
      <point x="232.54205607476638" y="809.0000000000001" type="line"/>
      <point x="232.54205607476638" y="772.0" type="line"/>
      <point x="575.6074766355141" y="772.0" type="line"/>
      <point x="575.6074766355141" y="809.0000000000001" type="line"/>
      <point x="999.1682242990654" y="809.0000000000001" type="line"/>
      <point x="999.1682242990654" y="661.0000000000001" type="line"/>
      <point x="575.6074766355141" y="661.0000000000001" type="line"/>
      <point x="575.6074766355141" y="698.0000000000001" type="line"/>
      <point x="232.54205607476638" y="698.0000000000001" type="line"/>
      <point x="232.54205607476638" y="661.0000000000001" type="line"/>
    </contour>
  </outline>
</glyph>
<glyph name="tenge" format="2">
  <advance width="1037"/>
  <unicode hex="20B8"/>
  <outline>
    <contour>
      <point x="416.0" y="0.0" type="line"/>
      <point x="416.0" y="1038.0000000000002" type="line"/>
      <point x="621.0841121495328" y="1038.0000000000002" type="line"/>
      <point x="621.0841121495328" y="0.0" type="line"/>
    </contour>
    <contour>
      <point x="24.000000000000004" y="968.0000000000002" type="line"/>
      <point x="24.000000000000004" y="1126.0" type="line"/>
      <point x="1013.0841121495326" y="1126.0" type="line"/>
      <point x="1013.0841121495326" y="968.0000000000002" type="line"/>
    </contour>
    <contour>
      <point x="24.000000000000004" y="1311.0000000000002" type="line"/>
      <point x="24.000000000000004" y="1456.0" type="line"/>
      <point x="1013.0841121495326" y="1456.0" type="line"/>
      <point x="1013.0841121495326" y="1311.0000000000002" type="line"/>
    </contour>
  </outline>
</glyph>
<glyph name="liraTurkish" format="2">
  <advance width="1044"/>
  <unicode hex="20BA"/>
  <outline>
    <contour>
      <point x="6.000000000000001" y="334.00000000000006" type="line"/>
      <point x="6.000000000000001" y="502.0000000000001" type="line"/>
      <point x="874.1214953271029" y="881.9205607476636" type="line"/>
      <point x="868.1214953271028" y="714.9205607476637" type="line"/>
    </contour>
    <contour>
      <point x="180.00000000000003" y="0.0" type="line"/>
      <point x="180.00000000000003" y="1456.0" type="line"/>
      <point x="375.08411214953276" y="1456.0" type="line"/>
      <point x="375.08411214953276" y="153.0" type="line"/>
      <point x="458.95327102803736" y="153.0" type="line" smooth="yes"/>
      <point x="666.9532710280374" y="153.0"/>
      <point x="858.6915887850467" y="363.0327102803739"/>
      <point x="854.9532710280373" y="521.0" type="qcurve" smooth="yes"/>
      <point x="854.9532710280373" y="558.0" type="line"/>
      <point x="1034.9532710280375" y="558.0" type="line"/>
      <point x="1034.9532710280375" y="523.0" type="line" smooth="yes"/>
      <point x="1034.9532710280375" y="298.0"/>
      <point x="746.9532710280375" y="0.0"/>
      <point x="421.9532710280374" y="0.0" type="qcurve" smooth="yes"/>
    </contour>
    <contour>
      <point x="6.000000000000001" y="694.0000000000001" type="line"/>
      <point x="6.000000000000001" y="862.0000000000001" type="line"/>
      <point x="874.1214953271029" y="1241.9205607476636" type="line"/>
      <point x="868.1214953271028" y="1074.9205607476636" type="line"/>
    </contour>
  </outline>
</glyph>
<glyph name="ruble" format="2">
  <advance width="1051"/>
  <unicode hex="20BD"/>
  <outline>
    <contour>
      <point x="545.6261682242991" y="611.0000000000001" type="qcurve" smooth="yes"/>
      <point x="30.000000000000004" y="611.0000000000001" type="line"/>
      <point x="30.000000000000004" y="768.0000000000001" type="line"/>
      <point x="539.0841121495328" y="768.0000000000001" type="line" smooth="yes"/>
      <point x="702.0841121495328" y="768.0000000000001"/>
      <point x="855.0841121495326" y="913.0000000000001"/>
      <point x="855.0841121495326" y="1033.0000000000002" type="qcurve" smooth="yes"/>
      <point x="855.0841121495326" y="1138.0"/>
      <point x="708.0841121495328" y="1298.0000000000002"/>
      <point x="539.0841121495328" y="1298.0000000000002" type="qcurve" smooth="yes"/>
      <point x="380.0841121495327" y="1298.0000000000002" type="line"/>
      <point x="380.0841121495327" y="0.0" type="line"/>
      <point x="188.0" y="0.0" type="line"/>
      <point x="188.0" y="1456.0" type="line"/>
      <point x="545.6261682242991" y="1456.0" type="line" smooth="yes"/>
      <point x="793.588785046729" y="1456.0"/>
      <point x="1060.1355140186918" y="1217.0"/>
      <point x="1060.1355140186918" y="1035.0" type="qcurve" smooth="yes"/>
      <point x="1060.1355140186918" y="835.0"/>
      <point x="793.588785046729" y="611.0000000000001"/>
    </contour>
    <contour>
      <point x="771.1074766355141" y="445.00000000000006" type="line"/>
      <point x="771.1074766355141" y="286.00000000000006" type="line"/>
      <point x="30.000000000000004" y="286.00000000000006" type="line"/>
      <point x="30.000000000000004" y="445.00000000000006" type="line"/>
    </contour>
  </outline>
</glyph>
<glyph name="arrowleft" format="2">
  <advance width="1733"/>
  <unicode hex="2190"/>
  <outline>
    <contour>
      <point x="1562.5186915887853" y="607.0" type="line"/>
      <point x="538.5186915887851" y="607.0" type="line"/>
      <point x="538.5186915887851" y="692.9999999999999" type="line"/>
      <point x="538.5186915887851" y="779.0000000000001" type="line"/>
      <point x="1562.5186915887853" y="779.0000000000001" type="line"/>
    </contour>
    <contour>
      <point x="813.5186915887851" y="242.45794392523368" type="line"/>
      <point x="170.0" y="667.8691588785048" type="line"/>
      <point x="170.0" y="718.0327102803739" type="line"/>
      <point x="813.5186915887851" y="1141.5420560747664" type="line"/>
      <point x="850.5280373831777" y="1093.3177570093458" type="line"/>
      <point x="581.5186915887851" y="692.9999999999999" type="line"/>
      <point x="851.4626168224299" y="292.7803738317757" type="line"/>
    </contour>
  </outline>
</glyph>
<glyph name="arrowright" format="2">
  <advance width="1733"/>
  <unicode hex="2192"/>
  <guideline x="1094.0" y="773.0" angle="90.00000000000001" identifier="xShtOjvBze"/>
  <outline>
    <contour>
      <point x="170.0" y="607.0" type="line"/>
      <point x="170.0" y="779.0000000000001" type="line"/>
      <point x="1194.0" y="779.0000000000001" type="line"/>
      <point x="1194.0" y="697.9843359220745" type="line"/>
      <point x="1194.0" y="607.0" type="line"/>
    </contour>
    <contour>
      <point x="919.0000000000001" y="242.45794392523368" type="line"/>
      <point x="881.0560747663552" y="292.7803738317757" type="line"/>
      <point x="1149.0654205607477" y="697.8364485981309" type="line"/>
      <point x="881.9906542056075" y="1093.3177570093458" type="line"/>
      <point x="919.0000000000001" y="1141.5420560747664" type="line"/>
      <point x="1562.5186915887853" y="718.0327102803739" type="line"/>
      <point x="1562.5186915887853" y="667.8691588785048" type="line"/>
    </contour>
  </outline>
</glyph>
<glyph name="arrowdown" format="2">
  <advance width="1299"/>
  <unicode hex="2193"/>
  <guideline x="669.0000000000001" y="459.00000000000006" angle="0" identifier="F0Pg9tvdQE"/>
  <outline>
    <contour>
      <point x="623.4766355140188" y="-5.887850467289719" type="line"/>
      <point x="200.0" y="637.6308411214955" type="line"/>
      <point x="248.38785046728972" y="674.6074766355141" type="line"/>
      <point x="646.6728971962618" y="403.696261682243" type="line"/>
      <point x="1048.9252336448599" y="674.640186915888" type="line"/>
      <point x="1099.0841121495328" y="637.6308411214955" type="line"/>
      <point x="673.640186915888" y="-5.887850467289719" type="line"/>
    </contour>
    <contour>
      <point x="562.640186915888" y="361.64953271028037" type="line"/>
      <point x="562.640186915888" y="1386.6308411214957" type="line"/>
      <point x="734.6401869158879" y="1386.6308411214957" type="line"/>
      <point x="734.6401869158879" y="361.64953271028037" type="line"/>
      <point x="647.1165591680927" y="361.64953271028037" type="line"/>
    </contour>
  </outline>
</glyph>
<glyph name="lessequal" format="2">
  <advance width="1024"/>
  <unicode hex="2264"/>
  <outline>
    <contour>
      <point x="914.6355140186917" y="246.45794392523368" type="line"/>
      <point x="93.59345794392523" y="596.7990654205609" type="line"/>
      <point x="93.59345794392523" y="751.233644859813" type="line"/>
      <point x="914.6355140186917" y="1101.5420560747664" type="line"/>
      <point x="914.6355140186917" y="898.6962616822431" type="line"/>
      <point x="334.177570093458" y="678.9672897196261" type="line"/>
      <point x="914.6355140186917" y="459.27102803738325" type="line"/>
    </contour>
    <contour>
      <point x="52.0" y="1.0" type="line"/>
      <point x="52.0" y="170.0" type="line"/>
      <point x="961.9999999999999" y="170.0" type="line"/>
      <point x="961.9999999999999" y="1.0" type="line"/>
    </contour>
  </outline>
</glyph>
<glyph name="leftanglebracket" format="2">
  <advance width="728"/>
  <unicode hex="27E8"/>
  <outline>
    <contour>
      <point x="12.000000000000002" y="533.7102803738318" type="line"/>
      <point x="12.000000000000002" y="667.2897196261682" type="line"/>
      <point x="614.981308411215" y="1499.0" type="line"/>
      <point x="727.6869158878505" y="1412.9018691588788" type="line"/>
      <point x="213.23831775700936" y="604.0" type="line"/>
      <point x="726.8177570093459" y="-219.09813084112147" type="line"/>
      <point x="614.981308411215" y="-304.0" type="line"/>
    </contour>
  </outline>
</glyph>
<glyph name="replacementchar" format="2">
  <advance width="2101"/>
  <unicode hex="FFFD"/>
  <outline>
    <contour>
      <point x="92.00000000000001" y="643.0" type="line"/>
      <point x="1048.0" y="-332.00000000000006" type="line"/>
      <point x="2007.0000000000005" y="643.0" type="line"/>
      <point x="1048.0" y="1618.0000000000002" type="line"/>
    </contour>
    <contour>
      <point x="929.0" y="402.00000000000006" type="line"/>
      <point x="929.7462686567" y="496.776119403"/>
      <point x="996.8507462687" y="585.7462686567001"/>
      <point x="1067.0" y="635.0000000000001" type="qcurve"/>
      <point x="1106.552238806" y="661.1194029851"/>
      <point x="1160.0" y="738.5074626866"/>
      <point x="1160.0" y="790.0000000000001" type="qcurve" smooth="yes"/>
      <point x="1160.0" y="841.4925373134001"/>
      <point x="1102.9701492537001" y="906.0"/>
      <point x="1047.0" y="906.0" type="qcurve" smooth="yes"/>
      <point x="1008.1940298507001" y="906.0"/>
      <point x="945.4925373134001" y="857.4776119403001"/>
      <point x="944.0" y="803.0000000000001" type="qcurve"/>
      <point x="741.0000000000001" y="803.0000000000001" type="line"/>
      <point x="743.2388059701" y="943.2985074627001"/>
      <point x="920.1343283582002" y="1069.0"/>
      <point x="1047.0" y="1069.0" type="qcurve" smooth="yes"/>
      <point x="1194.7611940299" y="1069.0"/>
      <point x="1363.0000000000002" y="917.6119402985"/>
      <point x="1363.0000000000002" y="790.0000000000001" type="qcurve" smooth="yes"/>
      <point x="1363.0000000000002" y="708.6567164179002"/>
      <point x="1264.1641791045001" y="578.5671641791001"/>
      <point x="1197.0" y="542.0" type="qcurve" smooth="yes"/>
      <point x="1155.9552238806" y="515.1343283582"/>
      <point x="1131.0" y="452.74626865670007"/>
      <point x="1131.0" y="402.00000000000006" type="qcurve"/>
    </contour>
    <contour>
      <point x="1131.0" y="141.00000000000003" type="line"/>
      <point x="929.0" y="141.00000000000003" type="line"/>
      <point x="929.0" y="311.0" type="line"/>
      <point x="1131.0" y="311.0" type="line"/>
    </contour>
    <contour>
      <point x="1056.0" y="-555.0" type="line"/>
      <point x="1060.0000000000002" y="-555.0" type="line"/>
      <point x="1060.0000000000002" y="-551.0" type="line"/>
      <point x="1056.0" y="-551.0" type="line"/>
    </contour>
    <contour>
      <point x="1054.0" y="2159.0000000000005" type="line"/>
      <point x="1058.0" y="2159.0000000000005" type="line"/>
      <point x="1058.0" y="2163.0" type="line"/>
      <point x="1054.0" y="2163.0" type="line"/>
    </contour>
  </outline>
</glyph>
<glyph name="Cy-descendercomb.case" format="2">
  <anchor x="0.0" y="0.0" name="_cy-descender"/>
  <outline>
    <contour>
      <point x="104.0" y="-290.0" type="line"/>
      <point x="104.0" y="0.0" type="line"/>
      <point x="0.0" y="0.0" type="line"/>
      <point x="0.0" y="158.00000000000003" type="line"/>
      <point x="276.00000000000006" y="158.00000000000003" type="line"/>
      <point x="276.00000000000006" y="-290.0" type="line"/>
    </contour>
  </outline>
</glyph>
<glyph name="Obarcyr-stroke" format="2">
  <advance width="1473"/>
  <guideline x="212.00000000000003" y="786.0" angle="90.00000000000001" identifier="UtNSclIhRG"/>
  <guideline x="1261.0841121495328" y="730.6214953271028" angle="90.00000000000001" identifier="hwb5F7EShy"/>
  <outline>
    <contour>
      <point x="212.00000000000003" y="830.0000000000001" type="line"/>
      <point x="1261.0841121495328" y="830.0000000000001" type="line"/>
      <point x="1261.0841121495328" y="672.0" type="line"/>
      <point x="212.00000000000003" y="672.0" type="line"/>
    </contour>
  </outline>
</glyph>
<glyph name="U-stroke" format="2">
  <advance width="1241"/>
  <outline>
    <contour>
      <point x="198.0" y="544.0" type="line"/>
      <point x="1043.0841121495328" y="544.0" type="line"/>
      <point x="1043.0841121495328" y="378.0" type="line"/>
      <point x="198.0" y="378.0" type="line"/>
    </contour>
  </outline>
</glyph>
<glyph name="Yu-dash.case" format="2">
  <advance width="582"/>
  <anchor x="0.0" y="750.0000000000001" name="_yu_dash"/>
  <anchor x="581.6308411214953" y="750.0000000000001" name="yu_dash"/>
  <outline>
    <contour>
      <point x="0.0" y="672.0" type="line"/>
      <point x="0.0" y="830.0000000000001" type="line"/>
      <point x="581.6308411214953" y="830.0000000000001" type="line"/>
      <point x="581.6308411214953" y="672.0" type="line"/>
    </contour>
  </outline>
</glyph>
<glyph name="Zhe.bgr" format="2">
  <advance width="1968"/>
  <outline>
    <contour>
      <point x="-20.000000000000004" y="0.0" type="line"/>
      <point x="657.6682242990655" y="891.7990654205609" type="line"/>
      <point x="784.5841121495329" y="749.2943925233646" type="line"/>
      <point x="225.58878504672901" y="0.0" type="line"/>
    </contour>
    <contour>
      <point x="879.0093457943926" y="0.0" type="line"/>
      <point x="879.0093457943926" y="1456.0" type="line"/>
      <point x="1084.518691588785" y="1456.0" type="line"/>
      <point x="1084.518691588785" y="0.0" type="line"/>
    </contour>
    <contour>
      <point x="1737.9392523364488" y="0.0" type="line"/>
      <point x="1178.943925233645" y="749.4579439252336" type="line"/>
      <point x="1310.5654205607477" y="892.4859813084113" type="line"/>
      <point x="1988.3317757009347" y="0.0" type="line"/>
    </contour>
    <contour>
      <point x="20.841121495327105" y="1456.0" type="line"/>
      <point x="255.84112149532712" y="1456.0" type="line"/>
      <point x="966.5280373831778" y="632.9859813084113" type="line"/>
      <point x="966.5280373831778" y="390.9859813084113" type="line"/>
    </contour>
    <contour>
      <point x="1707.42523364486" y="1456.0" type="line"/>
      <point x="1939.4579439252336" y="1456.0" type="line"/>
      <point x="993.1635514018692" y="391.0186915887851" type="line"/>
      <point x="993.1635514018692" y="628.1168224299065" type="line"/>
    </contour>
  </outline>
</glyph>
<glyph name=".notdef" format="2">
  <advance width="908"/>
  <outline>
    <contour>
      <point x="808.0" y="1456.0" type="line"/>
      <point x="808.0" y="0.0" type="line"/>
      <point x="100.0" y="0.0" type="line"/>
      <point x="100.0" y="1456.0" type="line"/>
    </contour>
    <contour>
      <point x="154.0" y="1402.0" type="line"/>
      <point x="154.0" y="54.0" type="line"/>
      <point x="754.0000000000001" y="54.0" type="line"/>
      <point x="754.0000000000001" y="1402.0" type="line"/>
    </contour>
    <contour>
      <point x="126.00000000000001" y="30.000000000000004" type="line"/>
      <point x="719.0" y="1426.0000000000002" type="line"/>
      <point x="777.0000000000001" y="1426.0000000000002" type="line"/>
      <point x="184.00000000000003" y="30.000000000000004" type="line"/>
    </contour>
    <contour>
      <point x="126.00000000000001" y="1426.0000000000002" type="line"/>
      <point x="184.00000000000003" y="1426.0000000000002" type="line"/>
      <point x="777.0000000000001" y="30.000000000000004" type="line"/>
      <point x="719.0" y="30.000000000000004" type="line"/>
    </contour>
  </outline>
</glyph>
<glyph name="acutecomb-stack" format="2">
  <anchor x="0.0" y="1053.0000000000002" name="_top"/>
  <anchor x="0.0" y="1563.2242990654206" name="top"/>
  <anchor x="0.0" y="1052.0" name="_topright"/>
  <outline>
    <contour>
      <point x="10.000000000000002" y="1215.0981308411217" type="line"/>
      <point x="-102.03271028037385" y="1290.0" type="line"/>
      <point x="72.82242990654206" y="1563.1588785046729" type="line"/>
      <point x="233.3224299065421" y="1462.8364485981308" type="line"/>
    </contour>
  </outline>
</glyph>
